<?xml version="1.0" encoding="utf-8"?>
<!-- Generator: Adobe Illustrator 23.0.2, SVG Export Plug-In . SVG Version: 6.00 Build 0)  -->
<svg version="1.1" id="Layer_1" xmlns="http://www.w3.org/2000/svg" xmlns:xlink="http://www.w3.org/1999/xlink" x="0px" y="0px"
	 viewBox="0 0 504 540.8" style="enable-background:new 0 0 504 540.8;" xml:space="preserve">
<style type="text/css">
	.st0{fill:#7D7D7D;}
</style>
<g>
	<path class="st0" d="M411.57,248.69c-3.77-28.09-25.87-51.73-53.48-57.2c-29.14-5.78-56.39,6.73-70.96,32.95
		c-3.42,6.15-5.87,12.84-8.92,19.63c-0.91-1.37-1.85-2.66-2.68-4.03c-12.3-20.48-22.07-42.13-29.9-64.69
		c-0.53-1.51-1.87-3.89-2.88-3.92c-10.76-0.29-21.53-0.18-32.67-0.18c0,2.64,0,4.61,0,6.59c0,26.5,0.02,53-0.02,79.5
		c0,2.99-0.15,6-0.55,8.97c-2.21,16.53-17.2,28.7-33.79,27.53c-17.96-1.26-30.47-14.55-30.59-33.09
		c-0.19-27.83-0.05-55.66-0.06-83.5c0-1.91,0-3.81,0-5.85c-11.83,0-22.8,0-34.48,0c0,2.38,0,4.19,0,6c0,26.67-0.03,53.33,0.03,80
		c0.01,4.16,0.25,8.33,0.68,12.46c3.34,31.89,31.31,57.63,63.42,58.44c32.41,0.82,61.66-23.03,66.57-54.75
		c1.27-8.24,1.16-16.69,1.66-24.67c7.56,12.01,15.3,24.17,22.82,36.47c0.81,1.32,0.65,3.55,0.29,5.22
		c-4.33,20.17-8.79,40.32-13.2,60.48c-2.51,11.5-4.99,23.01-7.61,35.1c10.53,0,20.5-0.18,30.46,0.09c3.78,0.1,5.07-1.17,5.81-4.81
		c4.56-22.31,9.4-44.56,14.21-67.17c1.35,0.58,2.43,0.93,3.41,1.47c10.76,5.94,22.21,9.51,34.44,11.15
		C377.55,332.76,417.49,292.83,411.57,248.69z M348.66,291.36c-2.43,0.49-4.92,0.69-6.26,0.87c-14.44-0.62-25.96-5.74-36.26-13.84
		c-0.94-0.74-1.79-2.6-1.54-3.67c2.1-9.21,3.85-18.57,6.91-27.47c3.97-11.55,11.42-20.28,24.14-22.88
		c18.58-3.79,36.97,7.91,40.66,25.72C380.04,268.05,366.88,287.72,348.66,291.36z"/>
</g>
</svg>
