<svg id="be549469-4243-42f4-9ad4-6171a9a5a2c6" data-name="Layer 1" xmlns="http://www.w3.org/2000/svg" viewBox="0 0 504 540.8"><defs><style>.b96456a3-1186-4152-a95b-f22129bed131{fill:#fff;}.a40b373e-d090-46bd-89f9-8f53e5f5b6f9{fill:#7d7d7d;}</style></defs><title>2379947</title><rect class="b96456a3-1186-4152-a95b-f22129bed131" x="43.6" y="45.2" width="444.6" height="444.6"/><path class="a40b373e-d090-46bd-89f9-8f53e5f5b6f9" d="M411.57,248.69c-3.77-28.08-25.87-51.72-53.48-57.2-29.14-5.78-56.38,6.73-70.95,32.95-3.42,6.15-5.87,12.84-8.92,19.62-.91-1.36-1.86-2.66-2.68-4a343.92,343.92,0,0,1-29.89-64.69c-.53-1.52-1.87-3.89-2.89-3.92-10.76-.28-21.53-.17-32.67-.17v6.58q0,39.75,0,79.5a68.9,68.9,0,0,1-.54,9,32.06,32.06,0,0,1-33.79,27.53c-18-1.26-30.47-14.55-30.6-33.09-.18-27.83,0-55.66,0-83.49v-5.85H110.6v6q0,40,0,80a123.68,123.68,0,0,0,.68,12.46c3.34,31.89,31.32,57.63,63.42,58.44,32.41.82,61.66-23,66.57-54.75,1.27-8.23,1.16-16.69,1.66-24.67,7.56,12,15.3,24.17,22.81,36.47.81,1.32.65,3.55.29,5.22-4.33,20.17-8.79,40.32-13.2,60.48-2.51,11.5-5,23-7.61,35.1,10.54,0,20.51-.18,30.46.09,3.79.1,5.07-1.17,5.82-4.82,4.55-22.31,9.39-44.56,14.21-67.17,1.35.58,2.43.94,3.41,1.48a97,97,0,0,0,34.44,11.14C377.55,332.76,417.49,292.83,411.57,248.69Zm-62.91,42.67c-2.43.49-4.92.7-6.26.88-14.44-.63-26-5.74-36.26-13.85a4.51,4.51,0,0,1-1.54-3.67c2.1-9.21,3.85-18.57,6.91-27.47,4-11.55,11.42-20.28,24.14-22.88,18.59-3.79,37,7.91,40.67,25.72C380,268.05,366.88,287.72,348.66,291.36Z"/></svg>