<svg id="Layer_7" data-name="Layer 7" xmlns="http://www.w3.org/2000/svg" viewBox="0 0 680.85 938.18"><defs><style>.cls-1,.cls-6{font-size:37.75px;fill:red;font-family:GoldenRatioDemo-Regular, Golden Ratio Demo;}.cls-1{letter-spacing:0.01em;}.cls-2{letter-spacing:-0.1em;}.cls-3{letter-spacing:0.01em;}.cls-4{letter-spacing:-0.04em;}.cls-5{letter-spacing:-0.06em;}.cls-7{fill:#f5841a;}</style></defs><title>logo</title><text class="cls-1" transform="translate(491.13 103.1)">01101111<tspan class="cls-2"><tspan x="0" y="77">00100000</tspan></tspan><tspan x="0" y="154">01110111</tspan><tspan class="cls-3"><tspan x="0" y="487.9">01101111</tspan></tspan><tspan class="cls-4"><tspan x="0" y="553.9">01110010</tspan><tspan x="0" y="619.9">01101100</tspan></tspan><tspan class="cls-5"><tspan x="0" y="685.9">01100100 </tspan></tspan></text><text class="cls-6" transform="translate(0 146.19)">01001000 01100101<tspan x="0" y="167.18" xml:space="preserve">01101100   01101100</tspan></text><path class="cls-7" d="M790.63,882H683.39l0-2.72V680.89a148.7,148.7,0,0,1,147.77-132.7h37.49V492.35H831.09c-29,0-73.17,11.39-98.56,25.43-24.33,13.46-56.32,43.06-71.94,66.47-14.14-28.56-38.75-60.37-81.51-83.27-.67-.81-.17-1.66,1.12-3.88q15.78-27.3,31.5-54.66a9.09,9.09,0,0,0,1.15-4.62,6.71,6.71,0,0,0-5.33-6.31,7.13,7.13,0,0,0-8.1,3.72q-16.47,28.49-32.91,57c-.76,1.33-1.06,1.82-1.71,1.76-18.37-8.2-39.71-14.81-64.43-19.12a298.9,298.9,0,0,0-56.82-5.41c-50.7-1.22-90.58,7.31-122,21.38-6.23-10.89-12.53-21.74-18.81-32.6q-6.66-11.53-13.34-23.07c-2.29-3.93-6.85-5-10.42-2.59-3.39,2.32-3.92,6.36-1.46,10.62Q292.8,469.54,308,495.92l.7,1.23C209.53,550.35,206,661.29,206,661.29v276.5H416.61c0-.16-.05-.32-.07-.48h29.07V851.87H359.38a18.74,18.74,0,0,0,0,2.84L363.21,882H273.48V661.29H615.9V882H539.5q2.1-15,4.2-30.08H457.57v85.44h8.48c0,.16,0,.32-.05.48H869.51V882Zm-473.58-279A16.66,16.66,0,0,1,300.18,586a16.89,16.89,0,1,1,16.87,16.89Zm254.76,0a16.62,16.62,0,0,1-16.74-17A16.93,16.93,0,0,1,572,569.16a17.13,17.13,0,0,1,16.85,16.94A16.92,16.92,0,0,1,571.81,602.93Z" transform="translate(-204.54 -79.4)"/><path d="M257.4,106.79c0,9.25-6.76,20.17-15.08,24.38a32.67,32.67,0,0,1,9.11,9.7,31.83,31.83,0,0,1,3.45,13.19v5h-7.56v-5a20,20,0,0,0-20.13-19.89H214.56v24.9H207V79.4h22.68A27.57,27.57,0,0,1,257.4,106.79Zm-7.54,0a20,20,0,0,0-20.15-19.91H214.56v39.84h15.17a23.13,23.13,0,0,0,14.2-5.83A22.73,22.73,0,0,0,249.86,106.78Z" transform="translate(-204.54 -79.4)"/><path d="M333,109.28V129.2a30.24,30.24,0,0,1-60.48,0V109.28a30.24,30.24,0,0,1,60.48,0Zm-7.56,0v0a22.68,22.68,0,0,0-45.36,0v20a22.68,22.68,0,0,0,45.36,0V109.28Z" transform="translate(-204.54 -79.4)"/><path d="M355.65,146.39v12.69h-7.56V79.4h7.56L367,94.34l11.34,14.94,11.34-14.94L401,79.4h7.56v79.68H401V91.85l-8.31,11-8.32,11-3,4-3,4-3-4-3-4-8.32-11-8.32-11v54.54Z" transform="translate(-204.54 -79.4)"/><path d="M434.52,147.88l-3,11.2h-7.82l10.71-39.84L445.1,79.4h7.56l10.71,39.84,10.71,39.84h-7.52l-3-11.2-3-11.21h-23Zm9.69-36.06-4.67,17.38h19l-4.67-17.38-4.68-17.38-.07.28L449,95l-.07-.28-.08-.28Z" transform="translate(-204.54 -79.4)"/><path d="M496.75,127.05v32h-7.56V79.4h7.56l17.64,32,17.64,32v-64h7.56v79.68H532l-17.64-32L496.75,95Z" transform="translate(-204.54 -79.4)"/><path d="M588.24,95.27l8.34-15.87h8.52L594.63,99.32l-10.47,19.92-.24.46-.24.46v38.92h-7.56V120.16l-.24-.46-.24-.46L565.17,99.32,554.7,79.4h8.52l8.34,15.87,8.34,15.86Z" transform="translate(-204.54 -79.4)"/><path d="M214.56,323.86v12.69H207V256.86h7.56L225.9,271.8l11.34,14.95,11.34-14.95,11.34-14.94h7.56v79.69h-7.56V269.32l-8.32,10.95-8.31,11-3,4-3,4-3-4-3-4-8.32-11-8.31-10.95v54.54Z" transform="translate(-204.54 -79.4)"/><path d="M351.44,286.75v19.92a30.24,30.24,0,0,1-60.48,0V286.75a30.24,30.24,0,0,1,60.48,0Zm-7.55,0v0a22.69,22.69,0,0,0-45.37,0v20a22.69,22.69,0,0,0,45.37,0V286.75Z" transform="translate(-204.54 -79.4)"/><path d="M374.93,311.64V256.86h7.56v54.81a17.64,17.64,0,0,0,35.28,0V256.86h7.56v54.78a25.2,25.2,0,0,1-50.4,0Z" transform="translate(-204.54 -79.4)"/><path d="M456.38,304.52v32h-7.56V256.86h7.56l17.64,32,17.64,32V256.86h7.56v79.69h-7.56l-17.64-32-17.64-32Z" transform="translate(-204.54 -79.4)"/><path d="M530.27,296.71v39.84h-7.56V256.86h7.56Z" transform="translate(-204.54 -79.4)"/><path d="M605.48,284.26c0,9.24-6.75,20.16-15.07,24.38a32.8,32.8,0,0,1,9.11,9.7A31.89,31.89,0,0,1,603,331.52v5H595.4v-5a20,20,0,0,0-20.12-19.89H562.64v24.91h-7.56V256.86h22.68A27.58,27.58,0,0,1,605.48,284.26Zm-7.54,0a20,20,0,0,0-20.15-19.91H562.64v39.84h15.18a23.15,23.15,0,0,0,14.2-5.83A22.72,22.72,0,0,0,597.94,284.24Z" transform="translate(-204.54 -79.4)"/><path class="cls-7" d="M808.61,378c32.72-3.58,64.45,24.58,60.58,53C840.55,434.56,810.54,408.61,808.61,378Z" transform="translate(-204.54 -79.4)"/><path class="cls-7" d="M341.84,721.71c5.24,37.75,10.56,75.49,15.72,113.26.52,3.8,1.84,5.26,5.86,5.24,26.79-.17,53.59-.08,80.38-.11.59,0,1.2,0,1.81-.08V717.87H341.82A30.13,30.13,0,0,0,341.84,721.71Z" transform="translate(-204.54 -79.4)"/><path class="cls-7" d="M545.09,835.14c3.29-24.21,6.75-48.4,10.14-72.6,2.06-14.68,4.07-29.37,6.18-44.57H457.57V840c27.58,0,55.17,0,82.76.16C544.14,840.15,544.67,838.24,545.09,835.14Z" transform="translate(-204.54 -79.4)"/><path class="cls-7" d="M681.75,236.18V135.46H868.63V79.4H615.9V300.07s-2.73,65.33,81,143.39c.47.45.92.83,1.34,1.17,11.4,10,23.28,18.77,33.75,24.56,25.5,14.1,69.84,25.53,99,25.53h37.69V438.66H831A149.3,149.3,0,0,1,681.75,289.42V236.18Z" transform="translate(-204.54 -79.4)"/><path d="M235,1017.58h-4.54l-3.63-13.69H212.9l-3.63,13.69h-4.72l12.92-48.67H222Zm-9.39-18.25-5.56-21-.17-.63-.09.35,0,.13-.1.38-5.51,20.72Z" transform="translate(-204.54 -79.4)"/><path d="M272.79,998v19.56h-4.56V968.91h4.56l10.64,19.56L294.08,1008V968.91h4.56v48.67h-4.56L283.43,998l-10.64-19.56Z" transform="translate(-204.54 -79.4)"/><path d="M311.93,1017.58h-3.81V968.91h30.42v4.57H312.69v13.68h13.68v4.56H312.69V1013h25.85v4.57H311.93Z" transform="translate(-204.54 -79.4)"/><path d="M357.18,1017.58H354.9l-3.44-24.34L348,968.91h4.61l.32,2.28.32,2.29,2.58,18.21,2.57,18.21,3.44-6.37,3.44-6.37,2-3.72,2-3.71,2,3.71,2,3.72,3.44,6.37,3.44,6.37,2.57-18.21,2.57-18.21.32-2.29.33-2.28h4.6l-3.43,24.33-3.44,24.34h-4.56l-4.93-9.13-4.93-9.12-4.92,9.12-4.93,9.13Z" transform="translate(-204.54 -79.4)"/><path d="M423.87,1017.58V968.91H430a24.34,24.34,0,0,1,0,48.67Zm4.56-4.57H430a23,23,0,0,0,11-3.36,23.79,23.79,0,0,0,5.37-5.37,23.4,23.4,0,0,0,1.81-3.34,19.82,19.82,0,0,0,0-15.39,23.4,23.4,0,0,0-1.81-3.34,19.83,19.83,0,0,0-12.47-8.35,24.55,24.55,0,0,0-3.92-.38h-1.54Z" transform="translate(-204.54 -79.4)"/><path d="M468.33,993.24v24.34h-4.56V968.91h4.56Z" transform="translate(-204.54 -79.4)"/><path d="M477.81,999.33V987.16h0a18.26,18.26,0,0,1,18.25-18.25,21.15,21.15,0,0,1,12.17,4.65l-1.52,1.7-1.52,1.7a15.83,15.83,0,0,0-9.14-3.5,13.68,13.68,0,0,0-13.67,13.68v12.21a13.69,13.69,0,0,0,27.37,0v0H499.1v-4.56h15.21v4.56a18.25,18.25,0,1,1-36.5,0Z" transform="translate(-204.54 -79.4)"/><path d="M528.36,993.24v24.34H523.8V968.91h4.56Z" transform="translate(-204.54 -79.4)"/><path d="M550.77,995.53v-22H537.85v-4.57h30.41v4.57H555.33v44.1h-4.56Z" transform="translate(-204.54 -79.4)"/><path d="M577,1010.73l-1.81,6.85h-4.72l6.46-24.34,6.46-24.33h4.56l6.47,24.33,6.46,24.34h-4.54l-1.82-6.85-1.81-6.84H578.8Zm5.85-22L580,999.33h11.46l-2.81-10.62-2.82-10.61-.05.17,0,.17,0-.17-.05-.17Z" transform="translate(-204.54 -79.4)"/><path d="M612.63,1017.58h-2.29V968.91h4.57V1013h19.77v4.57h-22Z" transform="translate(-204.54 -79.4)"/><path d="M677.1,1017.58h-2.28l-3.44-24.34-3.44-24.33h4.61l.32,2.28.32,2.29,2.58,18.21,2.57,18.21,3.44-6.37,3.44-6.37,2-3.72,2-3.71,2,3.71,2,3.72,3.44,6.37,3.44,6.37,2.57-18.21,2.57-18.21.32-2.29.32-2.28h4.61l-3.43,24.33-3.44,24.34h-4.56l-4.93-9.13-4.93-9.12-4.93,9.12-4.92,9.13Z" transform="translate(-204.54 -79.4)"/><path d="M755.89,987.16v12.17a18.25,18.25,0,1,1-36.49,0V987.16a18.25,18.25,0,1,1,36.49,0Zm-4.56,0v0a13.69,13.69,0,0,0-27.37,0v12.21a13.69,13.69,0,0,0,27.37,0V987.16Z" transform="translate(-204.54 -79.4)"/><path d="M795.79,985.64c0,5.65-4.07,12.32-9.09,14.89a19.93,19.93,0,0,1,5.49,5.93,19.61,19.61,0,0,1,2.08,8v3.07h-4.56v-3.07a12.15,12.15,0,0,0-12.14-12.14h-7.63v15.21h-4.56V968.91h13.68A16.74,16.74,0,0,1,795.79,985.64Zm-4.55,0a12.15,12.15,0,0,0-12.16-12.15h-9.14v24.33h9.16a12.19,12.19,0,0,0,12.14-12.18Z" transform="translate(-204.54 -79.4)"/><path d="M807.56,1017.58h-2.28V968.91h4.56V1013h19.77v4.57H807.56Z" transform="translate(-204.54 -79.4)"/><path d="M839.09,1017.58V968.91h6.09a24.34,24.34,0,0,1,0,48.67Zm4.57-4.57h1.56a23,23,0,0,0,11-3.36,19.85,19.85,0,0,0,8.35-12.47,20,20,0,0,0,0-7.87,23.71,23.71,0,0,0-1.17-3.76,19.82,19.82,0,0,0-7.18-8.71,23.64,23.64,0,0,0-7.1-3,24.43,24.43,0,0,0-3.91-.38h-1.54Z" transform="translate(-204.54 -79.4)"/></svg>