<?xml version="1.0" encoding="utf-8"?>
<!-- Generator: Adobe Illustrator 25.3.0, SVG Export Plug-In . SVG Version: 6.00 Build 0)  -->
<svg version="1.1" id="Layer_1" xmlns="http://www.w3.org/2000/svg" xmlns:xlink="http://www.w3.org/1999/xlink" x="0px" y="0px"
	 viewBox="0 0 14400 14400" style="enable-background:new 0 0 14400 14400;" xml:space="preserve">
<style type="text/css">
	.st0{fill:none;stroke:#F48420;stroke-width:6;stroke-linecap:round;stroke-miterlimit:10;}
	.st1{fill:#010101;}
	.st2{fill:#F48420;}
	.st3{fill:#010101;stroke:#FFFFFF;stroke-miterlimit:10;}
</style>
<g>
	<path class="st0" d="M7001.09,7512.5c-63.28,0-114.59-51.3-114.59-114.59v-396.83c0-63.28,51.3-114.59,114.59-114.59h396.83
		c63.28,0,114.59,51.3,114.59,114.59v396.83"/>
	<g>
		<g>
			<path class="st1" d="M7086.33,7176.25c-0.02-0.02-0.04-0.03-0.05-0.05l0,0C7086.29,7176.21,7086.31,7176.23,7086.33,7176.25z"/>
			<polygon class="st1" points="7086.38,7176.3 7086.38,7176.3 7086.39,7176.3 7086.33,7176.25 7086.39,7176.3 			"/>
			<path class="st1" d="M7094.98,7181.14c1.76,0.23,3.53,0.51,5.28,0.82c4.64,0.82,9.24,1.91,13.77,3.25
				c0.01-0.01,0.02-0.02,0.03-0.02c5.82-5.58,12.52-10.27,19.87-13.82c0.1-0.05,0.19-0.09,0.29-0.14c1.55-0.74,3.13-1.44,4.74-2.07
				c-2.81-0.6-5.64-1.1-8.48-1.51c-0.18-0.03-0.36-0.05-0.54-0.08c-4.22-0.59-8.47-0.96-12.74-1.11c-1.52-0.05-3.05-0.08-4.57-0.08
				c-3.71,3.74-7.65,7.24-11.81,10.49C7098.92,7178.34,7096.97,7179.77,7094.98,7181.14z"/>
			<path class="st1" d="M7099.79,7176.69c4.15-3.25,8.1-6.75,11.81-10.49c-1,0-1.99,0.01-2.99,0.04c-0.26,0.01-0.52,0.01-0.78,0.02
				c-0.26,0.01-0.52,0.02-0.78,0.03h-0.01c-0.23,0.01-0.45,0.02-0.68,0.03c-0.26,0.01-0.52,0.02-0.77,0.03
				c-0.34,0.02-0.69,0.04-1.03,0.05c-0.22,0.01-0.44,0.03-0.67,0.04c-0.24,0.01-0.49,0.03-0.73,0.05c-0.21,0.01-0.42,0.03-0.63,0.04
				h0c-0.14,0.01-0.29,0.02-0.43,0.03c-0.02,0-0.05,0-0.07,0c-0.17,0.01-0.33,0.03-0.5,0.04c-0.15,0.01-0.31,0.02-0.46,0.04
				c-0.04,0-0.07,0.01-0.1,0.01c-0.21,0.02-0.42,0.04-0.63,0.06c-0.27,0.02-0.53,0.05-0.8,0.08c-0.38,0.04-0.76,0.08-1.15,0.12
				c-0.52,0.06-1.05,0.12-1.57,0.18c0,0-0.01,0-0.01,0c-0.17,0.02-0.35,0.04-0.52,0.06c-0.01,0-0.02,0-0.03,0
				c-0.12,0.01-0.24,0.03-0.35,0.05c-0.4,0.05-0.81,0.1-1.21,0.16c-0.18,0.02-0.36,0.05-0.54,0.07c-0.05,0.01-0.09,0.01-0.14,0.02
				c-0.17,0.02-0.35,0.05-0.52,0.08c-0.41,0.06-0.82,0.12-1.23,0.19c-0.19,0.03-0.38,0.06-0.58,0.09c-0.2,0.03-0.4,0.07-0.6,0.1
				c-0.3,0.05-0.6,0.1-0.9,0.15c-0.3,0.05-0.6,0.11-0.9,0.16c-0.24,0.04-0.48,0.09-0.71,0.13c-0.24,0.04-0.48,0.09-0.71,0.14
				c-0.01,0-0.02,0-0.03,0c-0.23,0.05-0.47,0.09-0.7,0.14c-0.28,0.06-0.56,0.11-0.84,0.17c-0.19,0.04-0.39,0.08-0.58,0.12
				c-0.25,0.05-0.49,0.11-0.74,0.16c-0.48,0.11-0.96,0.21-1.43,0.32l0,0c0,0,0,0-0.01,0c3.71,3.63,7.2,7.49,10.44,11.56
				C7095.94,7179.6,7097.89,7178.17,7099.79,7176.69z"/>
			<path class="st1" d="M7212.21,7370.3L7212.21,7370.3c5.99-7.38,11.05-15.35,15.15-23.73c1.59-3.25,3.04-6.57,4.33-9.94v0
				c2.08-5.39,3.78-10.92,5.09-16.54c0.8-3.41,1.45-6.86,1.96-10.33c-0.49,2.09-1.07,4.14-1.73,6.16c-1.41,4.32-3.19,8.48-5.3,12.43
				c-7.86,14.69-20.34,26.57-35.55,33.65c-4.52,9.47-10.2,18.29-16.84,26.27C7191.82,7385.04,7203.05,7378.77,7212.21,7370.3z"/>
			<path class="st1" d="M7156.95,7410.35c3.61-1.28,7.19-2.74,10.71-4.38c6.41-2.97,12.64-6.54,18.65-10.7
				c9.97-6.91,18.63-15.01,25.91-23.99c-9.43,8.71-21.04,15.1-33.95,18.26c-1.12,1.31-2.27,2.6-3.44,3.86
				C7169.52,7399.53,7163.56,7405.22,7156.95,7410.35z"/>
			<path class="st1" d="M7224.41,7297.29c3.1-3.22,5.93-6.7,8.44-10.41c-7.1-22.02-23.79-39.64-45.05-48.08
				c6.08,9.26,10.98,19.37,14.47,30.12C7211.7,7276.46,7219.34,7286.15,7224.41,7297.29z"/>
			<path class="st1" d="M7208.37,7310.23c5.71-3.4,10.93-7.53,15.52-12.28c-4.82-10.59-12.06-19.83-20.99-27.04
				c3.58,11.67,5.5,24.07,5.5,36.91C7208.4,7308.63,7208.39,7309.43,7208.37,7310.23z"/>
			<path class="st1" d="M7229.75,7313.47c-6.46,8.75-14.74,16.09-24.29,21.47c-1.98,9-4.92,17.65-8.71,25.81
				c14.94-7.12,27.2-18.88,34.96-33.38c2.12-3.95,3.89-8.11,5.3-12.43c0.66-2.02,1.23-4.07,1.73-6.16c0,0,0,0,0,0
				c0.19-1.28,0.36-2.56,0.51-3.85c0-0.01,0-0.01,0-0.02c0.22-3.06,0.33-6.14,0.32-9.22c-0.94,2.4-1.99,4.73-3.15,7
				C7234.5,7306.47,7232.26,7310.07,7229.75,7313.47z"/>
			<path class="st1" d="M7229.91,7312.47c2.51-3.39,4.74-7,6.67-10.78c1.16-2.27,2.21-4.61,3.15-7v-0.01
				c-0.01-5.25-0.35-10.51-1.03-15.75c-1.54,3.1-3.28,6.08-5.2,8.93c-2.51,3.71-5.34,7.2-8.44,10.41
				c-4.92,5.1-10.54,9.52-16.71,13.12c-0.21,7.69-1.12,15.22-2.66,22.51C7215.21,7328.52,7223.47,7321.2,7229.91,7312.47z"/>
			<path class="st1" d="M7125.36,7160.53c-0.01,0.01-0.02,0.02-0.03,0.04h0.01C7125.35,7160.56,7125.36,7160.54,7125.36,7160.53z"/>
			<polygon class="st1" points="7086.28,7176.2 7086.28,7176.2 7086.33,7176.25 			"/>
			<path class="st1" d="M7086.38,7176.3L7086.38,7176.3c-0.02-0.02-0.04-0.03-0.05-0.05
				C7086.35,7176.27,7086.36,7176.28,7086.38,7176.3z"/>
			<path class="st1" d="M7086.38,7176.3C7086.38,7176.3,7086.38,7176.3,7086.38,7176.3l-0.05-0.05l-0.06-0.05
				c0.02,0.02,0.04,0.03,0.05,0.05C7086.35,7176.27,7086.36,7176.28,7086.38,7176.3z"/>
			<path class="st1" d="M7187.19,7237.88c21.78,8.26,38.93,26.11,46.15,48.51c1.93-2.85,3.67-5.83,5.2-8.93
				c-0.88-6.8-2.32-13.56-4.34-20.22c-0.01-0.01-0.01-0.01-0.01-0.01c-0.23-0.52-0.47-1.05-0.71-1.56
				c-0.04-0.08-0.07-0.16-0.11-0.23c-0.23-0.5-0.48-1-0.72-1.49c-0.27-0.54-0.55-1.08-0.83-1.61c-0.28-0.53-0.57-1.06-0.87-1.59
				c-0.39-0.7-0.8-1.4-1.21-2.08c-0.56-0.93-1.14-1.85-1.74-2.75c-0.23-0.35-0.47-0.7-0.7-1.04c-0.28-0.41-0.57-0.82-0.86-1.23
				c-0.37-0.51-0.74-1.02-1.12-1.52c-0.37-0.5-0.75-0.99-1.14-1.47c-0.35-0.45-0.72-0.9-1.08-1.34c-0.04-0.06-0.09-0.11-0.13-0.16
				c-0.32-0.38-0.64-0.76-0.97-1.14c-0.13-0.16-0.27-0.31-0.4-0.46c-0.33-0.38-0.68-0.77-1.02-1.14c-0.41-0.46-0.84-0.91-1.27-1.36
				c-0.43-0.44-0.86-0.89-1.3-1.32c-0.03-0.03-0.06-0.06-0.09-0.09c-0.37-0.37-0.75-0.74-1.13-1.1c-0.07-0.07-0.15-0.14-0.22-0.21
				c-0.41-0.39-0.83-0.77-1.25-1.15c-0.44-0.4-0.9-0.8-1.35-1.18c-0.45-0.39-0.91-0.77-1.37-1.15c-0.61-0.51-1.24-1-1.87-1.49
				c-0.52-0.4-1.04-0.79-1.56-1.17c-0.44-0.32-0.89-0.64-1.33-0.96c-0.41-0.29-0.83-0.57-1.24-0.85c-0.2-0.14-0.4-0.27-0.6-0.4
				c-0.38-0.25-0.76-0.5-1.15-0.75c-0.68-0.43-1.36-0.84-2.05-1.25c-0.35-0.2-0.69-0.4-1.04-0.6c-0.27-0.16-0.54-0.31-0.81-0.45
				c-0.24-0.14-0.48-0.27-0.73-0.4c-0.3-0.16-0.6-0.33-0.91-0.48c-0.31-0.16-0.63-0.33-0.94-0.48c-0.25-0.13-0.5-0.26-0.75-0.37
				c-0.31-0.16-0.63-0.31-0.94-0.45c-0.28-0.14-0.56-0.27-0.83-0.39c-0.91-0.42-1.83-0.83-2.75-1.21c-0.75-0.31-1.5-0.61-2.26-0.89
				c-0.42-0.16-0.85-0.32-1.29-0.47c-0.41-0.15-0.83-0.29-1.24-0.44c-0.3-0.1-0.61-0.2-0.92-0.3c-0.26-0.08-0.52-0.17-0.78-0.25
				c-0.29-0.1-0.58-0.18-0.87-0.27c-1.79-0.54-3.61-1-5.45-1.41c-0.81-0.18-1.61-0.34-2.42-0.49c-0.82-0.15-1.63-0.29-2.45-0.42
				c-3.92-0.6-7.95-0.9-12.03-0.89C7172.49,7218.99,7180.53,7227.93,7187.19,7237.88z"/>
			<path class="st1" d="M7162.83,7209.84L7162.83,7209.84c4.1-0.01,8.12,0.29,12.05,0.89c0.82,0.13,1.64,0.27,2.45,0.42
				c0.81,0.15,1.62,0.31,2.42,0.49c1.84,0.4,3.65,0.87,5.45,1.41c0.29,0.09,0.58,0.17,0.87,0.27c0.26,0.08,0.53,0.16,0.78,0.25
				c0.31,0.1,0.62,0.2,0.92,0.3c0.42,0.14,0.83,0.29,1.24,0.44c0.43,0.15,0.86,0.31,1.29,0.47c0.76,0.28,1.51,0.58,2.26,0.89
				c0.92,0.38,1.84,0.79,2.75,1.21c0.28,0.12,0.56,0.25,0.83,0.39c0.32,0.15,0.63,0.3,0.94,0.45c0.25,0.12,0.5,0.24,0.75,0.37
				c0.32,0.16,0.63,0.32,0.94,0.48c0.31,0.16,0.61,0.32,0.91,0.48c0.24,0.12,0.48,0.26,0.73,0.4c0.27,0.15,0.54,0.29,0.81,0.45
				c0.35,0.2,0.7,0.4,1.04,0.6c0.69,0.41,1.37,0.83,2.05,1.25c0.39,0.25,0.77,0.49,1.15,0.75c0.2,0.13,0.4,0.26,0.6,0.4
				c0.42,0.28,0.83,0.56,1.24,0.85c0.45,0.31,0.89,0.63,1.33,0.96c0.53,0.38,1.05,0.77,1.56,1.17c0.63,0.48,1.26,0.98,1.87,1.49
				c0.46,0.38,0.92,0.76,1.37,1.15c0.45,0.39,0.91,0.78,1.35,1.18c0.42,0.38,0.84,0.76,1.25,1.15c0.08,0.07,0.15,0.14,0.22,0.21
				c0.38,0.36,0.76,0.73,1.13,1.1c0.03,0.03,0.06,0.06,0.09,0.09c0.44,0.43,0.87,0.88,1.3,1.32c0.43,0.44,0.86,0.9,1.27,1.36
				c0.35,0.38,0.69,0.76,1.02,1.14c0.13,0.15,0.27,0.3,0.4,0.46c0.33,0.38,0.65,0.76,0.97,1.14c0.04,0.06,0.09,0.11,0.13,0.16
				c0.37,0.44,0.73,0.89,1.08,1.34c0.39,0.49,0.77,0.98,1.14,1.47c0.38,0.5,0.75,1.01,1.12,1.52c0.29,0.41,0.58,0.82,0.86,1.23
				c0.24,0.34,0.47,0.69,0.7,1.04c0.6,0.9,1.18,1.82,1.74,2.75c0.41,0.68,0.82,1.38,1.21,2.08c0.3,0.53,0.59,1.05,0.87,1.59
				c0.29,0.53,0.56,1.07,0.83,1.61c0.25,0.49,0.49,0.99,0.72,1.49c0.04,0.07,0.08,0.15,0.11,0.23c0.25,0.52,0.48,1.04,0.71,1.56
				c-3.68-12.11-9.28-23.85-16.87-34.81c-2.89-4.18-5.99-8.11-9.28-11.82c-2.43-2.74-4.96-5.36-7.59-7.84
				c-0.3-0.29-0.6-0.57-0.91-0.85c-0.49-0.45-0.98-0.9-1.47-1.34c-0.03-0.03-0.06-0.06-0.09-0.08c-2.66-2.38-5.4-4.64-8.22-6.76
				c-1.86-1.4-3.74-2.74-5.67-4.02c-5.9-1.28-12.06-1.9-18.36-1.74c-2.26,0.05-4.49,0.21-6.69,0.45c-0.79,0.09-1.57,0.19-2.35,0.3
				c-0.94,0.13-1.87,0.28-2.8,0.45c-3.27,0.58-6.47,1.38-9.58,2.36c-3.01,0.95-5.93,2.08-8.76,3.38
				c9.53,4.38,18.42,9.92,26.49,16.44C7161.98,7209.85,7162.4,7209.84,7162.83,7209.84z"/>
			<path class="st1" d="M7134.65,7171.56c-7.36,3.55-14.05,8.24-19.87,13.82c0.04,0.03,0.08,0.05,0.13,0.07
				c3.3,0.98,6.55,2.1,9.76,3.35c3.21,1.25,6.37,2.63,9.48,4.15c2.92-1.35,5.95-2.53,9.06-3.51c3.11-0.98,6.31-1.77,9.58-2.36
				c0.93-0.17,1.86-0.32,2.8-0.45c0.78-0.11,1.56-0.21,2.35-0.3c2.21-0.25,4.44-0.4,6.69-0.45c6.31-0.15,12.46,0.46,18.36,1.74
				c-6.02-4.03-12.35-7.49-18.9-10.38c-3.94-1.74-7.95-3.27-12.02-4.59c-4.08-1.32-8.22-2.43-12.4-3.33
				c-1.61,0.64-3.19,1.33-4.74,2.08C7134.84,7171.46,7134.75,7171.51,7134.65,7171.56z"/>
		</g>
		<g>
			<path class="st2" d="M7129.36,7337.69c0.01,0.01,0.01,0.02,0.01,0.03c0.07,0.15,0.14,0.29,0.21,0.44
				c0.06,0.14,0.13,0.28,0.19,0.42c0.02,0.03,0.04,0.06,0.04,0.09c0.05,0.11,0.1,0.21,0.14,0.32c0.03,0.06,0.05,0.12,0.08,0.18
				c0.04,0.1,0.09,0.21,0.13,0.31c0.01,0.04,0.03,0.08,0.04,0.12c0.06,0.13,0.11,0.26,0.16,0.39c0.05,0.12,0.09,0.24,0.14,0.36
				c0.06,0.15,0.11,0.3,0.17,0.46c0.03,0.07,0.06,0.15,0.09,0.23c0.04,0.12,0.09,0.24,0.12,0.36c0.28,0.8,0.53,1.61,0.74,2.42
				c0.04,0.15,0.07,0.3,0.11,0.46c0.01,0.01,0.01,0.03,0.01,0.05c0.04,0.16,0.08,0.32,0.11,0.48c0.02,0.09,0.05,0.19,0.07,0.28
				c0.03,0.12,0.05,0.25,0.08,0.37c0.04,0.18,0.08,0.35,0.11,0.53c0.03,0.16,0.06,0.33,0.09,0.5c0.01,0.03,0.01,0.06,0.02,0.09
				c0.03,0.14,0.05,0.28,0.08,0.42c0,0.03,0.01,0.07,0.02,0.11c0.02,0.16,0.05,0.32,0.08,0.48c0.02,0.14,0.03,0.27,0.06,0.4
				c0.01,0.09,0.02,0.19,0.03,0.28c0.02,0.16,0.04,0.32,0.06,0.47c0.02,0.13,0.03,0.26,0.04,0.4c0.01,0.04,0.01,0.08,0.02,0.12
				c0.02,0.17,0.03,0.34,0.05,0.51c0.01,0.11,0.02,0.23,0.03,0.35c0.01,0.09,0.01,0.2,0.02,0.29c0.01,0.18,0.02,0.35,0.03,0.53
				c0.02,0.34,0.03,0.7,0.04,1.06l0.01,0.45c0,0.07,0,0.14,0,0.2c0,0.14,0.01,0.28,0,0.41c0,0.12,0,0.25,0,0.37c0,0.03,0,0.07,0,0.1
				c-0.01,0.34-0.02,0.68-0.04,1.02c0,0.04,0,0.09,0,0.13c0,0.09-0.01,0.2-0.01,0.29c-0.01,0.03-0.01,0.07-0.01,0.09
				c0,0.16-0.02,0.33-0.03,0.5c-0.02,0.17-0.03,0.34-0.05,0.5c0,0.11-0.02,0.22-0.03,0.33c0,0.07-0.02,0.15-0.03,0.22
				c-0.01,0.12-0.02,0.25-0.04,0.37c-0.01,0.05-0.01,0.09-0.02,0.14c-0.01,0.12-0.03,0.24-0.05,0.36c0,0.02-0.01,0.04-0.01,0.06
				c-0.01,0.08-0.02,0.16-0.03,0.24c-0.08,0.56-0.17,1.13-0.28,1.69c0.21-0.01,0.42-0.03,0.63-0.03c0.11,0,0.21,0.01,0.32,0.02
				c0.09-0.48,0.17-0.96,0.24-1.45c0.01-0.08,0.02-0.16,0.03-0.24c0-0.02,0.01-0.04,0.01-0.06c0.02-0.12,0.03-0.24,0.05-0.36
				c0.01-0.05,0.01-0.09,0.02-0.14c0.02-0.12,0.03-0.24,0.04-0.37c0.01-0.07,0.02-0.15,0.03-0.22c0.01-0.11,0.02-0.22,0.03-0.33
				c0.02-0.16,0.03-0.33,0.05-0.5c0.01-0.16,0.03-0.33,0.03-0.5c0.01-0.03,0.01-0.06,0.01-0.09c0-0.1,0.01-0.2,0.01-0.29
				c0.01-0.04,0-0.09,0-0.13c0.02-0.35,0.03-0.68,0.04-1.02c0.01-0.03,0.01-0.07,0-0.1c0-0.12,0-0.25,0-0.37c0-0.14,0-0.28,0-0.41
				c0-0.07,0-0.14,0-0.2l-0.01-0.45c0,0.2,0.02,0.41,0.02,0.62c0,0.13,0.01,0.25,0.02,0.37c0.01,0.1,0.01,0.2,0.02,0.3
				c0.01,0.2,0.02,0.39,0.03,0.57c0.03,0.3,0.06,0.6,0.08,0.9c0,0.01,0,0.03,0.01,0.04c0.01,0.13,0.03,0.26,0.04,0.38
				c0.05,0.45,0.11,0.88,0.18,1.33c0.02,0.1,0.03,0.2,0.05,0.3c0.02,0.09,0.02,0.18,0.04,0.26c0.08,0.44,0.16,0.88,0.25,1.31
				c0.02,0.11,0.05,0.22,0.08,0.32c0,0.01,0,0.01,0,0.01c0.03,0.15,0.06,0.3,0.1,0.44c0.02,0.08,0.04,0.15,0.06,0.23
				c0.21,0.04,0.42,0.09,0.63,0.15c-0.03-0.13-0.06-0.27-0.1-0.41c-0.04-0.15-0.07-0.3-0.1-0.44c0-0.01,0-0.01,0-0.01
				c-0.03-0.11-0.05-0.22-0.08-0.32c-0.09-0.44-0.17-0.87-0.25-1.31c-0.02-0.09-0.02-0.18-0.04-0.26c-0.02-0.09-0.03-0.2-0.05-0.3
				c-0.07-0.44-0.13-0.88-0.18-1.33c-0.01-0.13-0.03-0.26-0.04-0.38c-0.01-0.01-0.01-0.03-0.01-0.04c-0.03-0.3-0.05-0.59-0.08-0.9
				c-0.01-0.19-0.02-0.38-0.03-0.57c-0.01-0.1-0.01-0.2-0.02-0.3c0-0.12-0.01-0.24-0.02-0.37c0-0.2-0.02-0.41-0.02-0.62
				c-0.07-2.9,0.21-5.73,0.82-8.45c0.48-2.16,1.16-4.26,2.01-6.26c0.17-0.41,0.35-0.8,0.54-1.2c-0.38,0.03-0.76,0.07-1.15,0.1
				c-0.18,0.37-0.35,0.75-0.51,1.13c-0.86,2-1.54,4.09-2.01,6.26c-0.6,2.72-0.89,5.54-0.82,8.45c-0.01-0.36-0.02-0.71-0.04-1.06
				c-0.01-0.18-0.02-0.35-0.03-0.53c-0.01-0.09-0.01-0.2-0.02-0.29c-0.01-0.12-0.02-0.24-0.03-0.35c-0.02-0.18-0.03-0.34-0.05-0.51
				c-0.01-0.04-0.01-0.08-0.02-0.12c-0.01-0.14-0.03-0.26-0.04-0.4c-0.02-0.16-0.04-0.32-0.06-0.47c-0.01-0.09-0.02-0.18-0.03-0.28
				c-0.02-0.13-0.04-0.27-0.06-0.4c-0.02-0.16-0.06-0.32-0.08-0.48c-0.01-0.04-0.02-0.08-0.02-0.11c-0.02-0.14-0.05-0.28-0.08-0.42
				c0-0.03-0.01-0.06-0.02-0.09c-0.03-0.17-0.06-0.34-0.09-0.5c-0.03-0.18-0.07-0.36-0.11-0.53c-0.03-0.12-0.05-0.25-0.08-0.37
				c-0.02-0.09-0.05-0.19-0.07-0.28c-0.03-0.16-0.08-0.32-0.11-0.48c-0.01-0.01-0.01-0.03-0.01-0.05c-0.04-0.15-0.07-0.3-0.11-0.46
				c-0.22-0.81-0.47-1.62-0.74-2.42c-0.04-0.12-0.08-0.24-0.12-0.36c-0.03-0.08-0.06-0.16-0.09-0.23c-0.06-0.15-0.11-0.31-0.17-0.46
				c-0.05-0.12-0.09-0.24-0.14-0.36c-0.05-0.13-0.1-0.26-0.16-0.39c-0.01-0.04-0.03-0.08-0.04-0.12c-0.04-0.1-0.09-0.21-0.13-0.31
				c-0.03-0.06-0.05-0.12-0.08-0.18c-0.04-0.11-0.09-0.21-0.14-0.32c-0.01-0.03-0.02-0.06-0.04-0.09c-0.06-0.14-0.12-0.28-0.19-0.42
				c-0.07-0.15-0.14-0.29-0.21-0.44c-0.01-0.01-0.01-0.02-0.01-0.03c-0.06-0.13-0.12-0.25-0.19-0.38c-0.1-0.19-0.2-0.39-0.3-0.59
				c-0.02-0.05-0.05-0.09-0.07-0.14c-0.09,0-0.17,0.01-0.26,0.01c0.08,0.16,0.17,0.33,0.25,0.49
				C7129.24,7337.44,7129.3,7337.56,7129.36,7337.69z"/>
			<path class="st2" d="M7134.5,7358.97c0-0.01,0-0.01,0-0.01c-0.03-0.11-0.05-0.22-0.08-0.32c-0.09-0.44-0.17-0.87-0.25-1.31
				c-0.02-0.09-0.02-0.18-0.04-0.26c-0.02-0.09-0.03-0.2-0.05-0.3c-0.07-0.44-0.13-0.88-0.18-1.33c-0.01-0.13-0.03-0.26-0.04-0.38
				c-0.01-0.01-0.01-0.03-0.01-0.04c-0.03-0.3-0.05-0.59-0.08-0.9c-0.01-0.19-0.02-0.38-0.03-0.57c-0.01-0.1-0.01-0.2-0.02-0.3
				c0-0.12-0.01-0.24-0.02-0.37c0-0.2-0.02-0.41-0.02-0.62l0.01,0.45c0,0.07,0,0.14,0,0.2c0,0.14,0.01,0.28,0,0.41
				c0,0.12,0,0.25,0,0.37c0,0.03,0,0.07,0,0.1c-0.01,0.34-0.02,0.68-0.04,1.02c0,0.04,0,0.09,0,0.13c0,0.09-0.01,0.2-0.01,0.29
				c-0.01,0.03-0.01,0.07-0.01,0.09c0,0.16-0.02,0.33-0.03,0.5c-0.02,0.17-0.03,0.34-0.05,0.5c0,0.11-0.02,0.22-0.03,0.33
				c0,0.07-0.02,0.15-0.03,0.22c-0.01,0.12-0.02,0.25-0.04,0.37c-0.01,0.05-0.01,0.09-0.02,0.14c-0.01,0.12-0.03,0.24-0.05,0.36
				c0,0.02-0.01,0.04-0.01,0.06c-0.01,0.08-0.02,0.16-0.03,0.24c-0.07,0.48-0.15,0.96-0.24,1.45c0.52,0.02,1.04,0.07,1.54,0.16
				c-0.02-0.08-0.04-0.15-0.06-0.23C7134.57,7359.26,7134.54,7359.12,7134.5,7358.97z"/>
			<path class="st2" d="M7132.8,7429.81c-0.56-2.82-1.04-5.68-1.43-8.57c-0.44-3.18-0.77-6.38-1-9.63
				c-0.03-0.43-0.06-0.86-0.09-1.28c-0.03-0.43-0.05-0.87-0.08-1.3c-0.02-0.42-0.04-0.84-0.06-1.25c-0.02-0.43-0.04-0.86-0.06-1.29
				l0.01,0.36c0.04,1.79-0.05,3.55-0.26,5.29c-0.35,2.77-1.03,5.45-1.98,7.98c-0.16,0.42-0.33,0.84-0.5,1.25
				c1.26,3.56,2.4,7.18,3.39,10.86c0.95,3.5,1.77,7.05,2.46,10.65c0.17,0.9,0.33,1.8,0.49,2.7c0.12,0.68,0.24,1.37,0.35,2.06
				c0.07-0.65,0.14-1.3,0.22-1.95c0.24-1.98,0.53-3.95,0.85-5.91c-0.01-0.01-0.01-0.02-0.01-0.03
				C7134.23,7436.48,7133.46,7433.17,7132.8,7429.81z"/>
			<path class="st2" d="M7133.2,7379.43c-0.09,0.6-0.17,1.21-0.25,1.81c-0.03,0.24-0.06,0.48-0.09,0.73
				c-0.09,0.64-0.16,1.28-0.23,1.93c-0.07,0.59-0.13,1.19-0.19,1.78l0,0.03c-0.03,0.33-0.06,0.67-0.1,1
				c-0.04,0.37-0.07,0.73-0.1,1.1c-0.03,0.37-0.06,0.73-0.09,1.1v0.01c-0.03,0.35-0.06,0.71-0.08,1.07
				c-0.01,0.23-0.03,0.47-0.04,0.7c-0.02,0.31-0.04,0.6-0.06,0.9c-0.01,0.03-0.01,0.07,0,0.1c-0.02,0.27-0.03,0.55-0.05,0.83
				c0,0.11-0.01,0.22-0.02,0.34c0,0.11-0.01,0.22-0.02,0.34l-0.01,0.26c-0.01,0.29-0.03,0.59-0.04,0.89l0,0.06
				c-0.01,0.16-0.01,0.32-0.02,0.47c-0.01,0.28-0.02,0.56-0.03,0.83c-0.01,0.33-0.02,0.66-0.03,0.98c-0.01,0.31-0.01,0.62-0.02,0.93
				c-0.01,0.18-0.01,0.35-0.01,0.53c0,0.42-0.01,0.84-0.02,1.26c0,0.42,0,0.84,0,1.26c0,0.19,0,0.39,0,0.58l0,0.05
				c0,0.32,0,0.64,0.01,0.96c0,0.08,0,0.16,0,0.25l0.01,0.37c0,0.08,0,0.16,0,0.24l0.05,2.17c0.01,0.26,0.02,0.51,0.03,0.77
				c0.01,0.26,0.02,0.51,0.03,0.77c0.02,0.41,0.03,0.83,0.06,1.24c0.02,0.42,0.04,0.83,0.06,1.25c0.01,0.26,0.03,0.52,0.05,0.78
				c0.03,0.44,0.05,0.87,0.09,1.31c0.08,1.08,0.17,2.15,0.27,3.23c0.01,0.12,0.02,0.24,0.04,0.35c0.04,0.44,0.08,0.88,0.13,1.32
				c0.03,0.28,0.06,0.56,0.09,0.84c0.05,0.51,0.11,1.03,0.17,1.55c0.03,0.26,0.07,0.52,0.1,0.78s0.07,0.51,0.1,0.78
				c0.03,0.26,0.07,0.51,0.1,0.77s0.07,0.51,0.11,0.77c0.03,0.22,0.06,0.44,0.1,0.67c0.06,0.42,0.12,0.83,0.19,1.24
				c0.03,0.21,0.06,0.41,0.1,0.62c0.03,0.2,0.06,0.4,0.1,0.61c0.02,0.18,0.06,0.36,0.09,0.53c0.05,0.3,0.1,0.61,0.16,0.91
				c0.05,0.31,0.1,0.61,0.16,0.92c0.01,0.02,0.01,0.04,0.01,0.05c0.01,0.05,0.02,0.1,0.02,0.15c0.04,0.2,0.08,0.4,0.11,0.61
				c0.05,0.25,0.1,0.5,0.15,0.75c0.04,0.21,0.08,0.42,0.12,0.63c0.01,0.04,0.02,0.08,0.02,0.12c0.04,0.2,0.08,0.4,0.12,0.61
				c0.05,0.22,0.08,0.43,0.13,0.65c0.24,1.16,0.49,2.32,0.76,3.47c0.15-0.71,0.29-1.44,0.45-2.15c0.05-0.24,0.1-0.48,0.16-0.71
				c0.04-0.19,0.08-0.37,0.12-0.56c0.04-0.18,0.09-0.37,0.13-0.56c0.06-0.27,0.12-0.52,0.18-0.79c0.08-0.33,0.15-0.65,0.23-0.98
				c0.17-0.69,0.35-1.39,0.52-2.08c0.06-0.23,0.12-0.47,0.19-0.7c0.12-0.47,0.25-0.94,0.38-1.4c0.06-0.24,0.12-0.47,0.19-0.7
				c0.06-0.23,0.13-0.46,0.2-0.7c0.12-0.42,0.24-0.83,0.36-1.25c-0.08-0.16-0.17-0.32-0.25-0.48c-2.27-4.48-3.61-9.52-3.75-14.87
				l0-0.11c-0.09-3.69,0.39-7.27,1.37-10.64c1.73-5.96,5-11.29,9.36-15.5c-0.17-0.14-0.35-0.3-0.52-0.44l-0.02-0.02
				c-0.13-0.11-0.26-0.22-0.38-0.34c-0.01-0.01-0.03-0.02-0.04-0.03c-0.06-0.05-0.12-0.1-0.19-0.16l-0.06-0.06
				c-0.12-0.11-0.23-0.21-0.35-0.32c-0.17-0.16-0.33-0.31-0.5-0.47c-0.01-0.01-0.01-0.01-0.01-0.01c-0.16-0.16-0.32-0.31-0.48-0.47
				c-0.01-0.01-0.03-0.03-0.04-0.05c-0.02-0.02-0.03-0.03-0.06-0.05c-0.12-0.12-0.24-0.24-0.35-0.36c-0.03-0.03-0.05-0.05-0.08-0.07
				c-0.31-0.32-0.61-0.66-0.91-0.99c-0.21-0.23-0.41-0.46-0.61-0.7c-0.01-0.02-0.03-0.03-0.04-0.05
				C7138.95,7377.83,7136.26,7379.31,7133.2,7379.43z M7133.02,7385.81c0,0.01,0,0.02,0,0.03
				C7133.02,7385.83,7133.02,7385.82,7133.02,7385.81L7133.02,7385.81c0.06-0.6,0.12-1.19,0.19-1.78
				C7133.15,7384.62,7133.08,7385.21,7133.02,7385.81z"/>
			<path class="st2" d="M7129.47,7410.99c0.21-1.7,0.3-3.44,0.26-5.2l-0.01-0.58c-0.21-4.94-1.44-9.61-3.49-13.79
				c-0.13-0.24-0.25-0.49-0.37-0.73c-1.69-3.23-3.87-6.17-6.45-8.7l-0.08-0.07c-1.6,1.24-3.31,2.35-5.13,3.3
				c0.07,0.06,0.13,0.12,0.19,0.19c0.25,0.25,0.5,0.51,0.75,0.77c2.25,2.38,4.17,5.08,5.67,8.03c2.28,4.47,3.62,9.5,3.75,14.85
				c0.03,1.43-0.02,2.84-0.16,4.22c0.23,0.55,0.45,1.1,0.67,1.65c0.47,1.17,0.92,2.36,1.36,3.55c0.2,0.53,0.39,1.07,0.58,1.6
				c0.17-0.4,0.34-0.81,0.5-1.23C7128.47,7416.35,7129.13,7413.71,7129.47,7410.99z"/>
			<path class="st2" d="M7153.99,7385.78c0,0-0.01,0-0.01-0.01c-0.05-0.02-0.09-0.04-0.14-0.06c-0.01,0-0.01,0-0.01,0
				c-0.02-0.01-0.03-0.01-0.05-0.02c-0.01-0.01-0.02-0.01-0.03-0.01c-0.15-0.06-0.3-0.12-0.45-0.2c-0.03-0.01-0.06-0.03-0.1-0.04
				c-0.03-0.02-0.08-0.03-0.12-0.05c-0.1-0.05-0.21-0.09-0.31-0.15c-0.01,0-0.01,0-0.01-0.01c0,0,0,0-0.01,0
				c-0.01,0-0.01-0.01-0.01-0.01c-0.01-0.01-0.02-0.01-0.03-0.02c0,0-0.01,0-0.01-0.01h-0.01l-0.01-0.01
				c-0.02,0-0.04-0.02-0.06-0.02c-0.06-0.03-0.13-0.07-0.2-0.09c-0.01-0.01-0.02-0.01-0.02-0.02c-0.08-0.03-0.15-0.07-0.23-0.11
				c-0.01-0.01-0.03-0.01-0.05-0.02c-0.05-0.02-0.09-0.04-0.14-0.07c-0.05-0.03-0.1-0.05-0.15-0.08c0,0-0.01,0-0.01-0.01
				c-0.1-0.05-0.2-0.1-0.3-0.15c-0.02-0.01-0.03-0.02-0.04-0.02c-0.01-0.01-0.02-0.01-0.02-0.02c-0.06-0.03-0.11-0.05-0.16-0.08
				c-0.04-0.02-0.08-0.04-0.12-0.07c-0.03-0.02-0.06-0.03-0.09-0.05c-0.03-0.02-0.06-0.03-0.09-0.05c-0.02-0.01-0.03-0.02-0.06-0.03
				c-0.02-0.01-0.04-0.02-0.06-0.03c-0.09-0.04-0.17-0.09-0.26-0.14c-0.58,0.57-1.13,1.17-1.66,1.79c-0.5,0.58-0.98,1.19-1.43,1.81
				c-1.7,2.33-3.07,4.91-4.03,7.67c-0.03,0.07-0.05,0.14-0.07,0.21c-1.11,3.24-1.67,6.73-1.59,10.36c0.04,1.73,0.23,3.43,0.55,5.08
				c0.28-0.8,0.56-1.6,0.85-2.39c0.03-0.09,0.06-0.17,0.09-0.25c0.04-0.12,0.09-0.23,0.13-0.35c0.01-0.02,0.02-0.05,0.02-0.06
				c0.01-0.02,0.02-0.05,0.03-0.07c0.01-0.01,0.01-0.02,0.01-0.03c0.01-0.03,0.02-0.06,0.03-0.08c0.01-0.02,0.02-0.05,0.03-0.08
				c0.02-0.06,0.04-0.12,0.06-0.17c0.03-0.08,0.06-0.16,0.1-0.25c0.12-0.32,0.24-0.64,0.37-0.96c0.01-0.02,0.02-0.05,0.03-0.08
				c0.1-0.25,0.19-0.5,0.3-0.75c0.1-0.25,0.21-0.52,0.31-0.78c0.11-0.26,0.21-0.52,0.32-0.77c0.08-0.19,0.15-0.37,0.23-0.56
				c0.02-0.04,0.03-0.08,0.05-0.12c0.02-0.03,0.03-0.07,0.05-0.11c0.01-0.02,0.01-0.03,0.02-0.05c0.01-0.01,0.01-0.01,0.01-0.02
				c0.01-0.01,0.01-0.02,0.01-0.02c0.04-0.09,0.08-0.18,0.11-0.27c0.09-0.2,0.17-0.4,0.26-0.6c0.08-0.18,0.16-0.36,0.24-0.54
				c0.06-0.14,0.12-0.28,0.18-0.42c0.02-0.05,0.05-0.1,0.07-0.15c0.05-0.13,0.11-0.25,0.16-0.37c0.04-0.1,0.09-0.19,0.13-0.28
				c0.04-0.09,0.08-0.18,0.12-0.27c0.01-0.03,0.03-0.06,0.04-0.09c0.05-0.1,0.09-0.21,0.14-0.31c0.04-0.08,0.07-0.16,0.1-0.23
				c0.01-0.02,0.02-0.03,0.02-0.05c0.06-0.13,0.12-0.25,0.17-0.38c0.08-0.17,0.16-0.34,0.25-0.52c0.02-0.04,0.03-0.08,0.05-0.11
				c0.13-0.27,0.26-0.55,0.39-0.81c0.03-0.08,0.07-0.16,0.11-0.23c0.15-0.32,0.31-0.64,0.46-0.96c0.03-0.07,0.07-0.14,0.1-0.21
				c0.08-0.16,0.16-0.33,0.25-0.49c0.04-0.08,0.08-0.17,0.13-0.25c0.1-0.2,0.2-0.4,0.31-0.6c0.07-0.13,0.14-0.27,0.21-0.41
				c0.03-0.06,0.06-0.12,0.09-0.18c0.09-0.18,0.19-0.37,0.29-0.55c0.03-0.05,0.05-0.1,0.08-0.16c0.1-0.19,0.2-0.38,0.3-0.56
				c0.1-0.19,0.2-0.38,0.3-0.56c0.1-0.19,0.2-0.37,0.3-0.56c0.01,0,0.01-0.01,0.01-0.01c0.01,0,0.01,0,0.01-0.01
				c0.01-0.01,0.01-0.02,0.02-0.03c0.14-0.26,0.29-0.52,0.43-0.79c0.14-0.26,0.29-0.52,0.43-0.77c0.14-0.26,0.28-0.51,0.43-0.76
				c0.14-0.25,0.29-0.5,0.43-0.75c0.07-0.11,0.13-0.23,0.2-0.34c0.11-0.19,0.22-0.38,0.34-0.56c0.15-0.26,0.31-0.52,0.47-0.79
				c0.07-0.12,0.14-0.23,0.22-0.35c0.08-0.13,0.16-0.26,0.24-0.4c0.1-0.18,0.22-0.36,0.33-0.53c-0.07-0.03-0.14-0.05-0.2-0.08
				C7154.11,7385.83,7154.05,7385.81,7153.99,7385.78z"/>
			<path class="st2" d="M7114.82,7386.26c-0.24-0.25-0.49-0.5-0.73-0.75c-0.06-0.06-0.12-0.12-0.19-0.18
				c-0.02,0.01-0.04,0.03-0.06,0.03c-1.22,0.64-2.48,1.2-3.79,1.69c0.5,0.73,0.99,1.48,1.47,2.22c1.59,2.43,3.1,4.91,4.54,7.44
				c2.92,5.14,5.53,10.48,7.8,15.99c0.14-1.35,0.19-2.72,0.15-4.11c-0.13-5.22-1.43-10.13-3.66-14.49
				C7118.89,7391.22,7117.01,7388.59,7114.82,7386.26z M7114.25,7385.96c0.02-0.01,0.04-0.02,0.06-0.04
				c0.07,0.07,0.13,0.13,0.19,0.19C7114.42,7386.06,7114.34,7386.01,7114.25,7385.96z"/>
			<path class="st2" d="M7114.25,7385.96c0.08,0.05,0.17,0.1,0.25,0.16c-0.06-0.07-0.12-0.13-0.19-0.19
				C7114.29,7385.94,7114.28,7385.95,7114.25,7385.96z"/>
			<path class="st2" d="M7133.02,7385.84c0-0.01,0-0.02,0-0.03h0C7133.02,7385.82,7133.02,7385.83,7133.02,7385.84z"/>
			<path class="st2" d="M7142.6,7396.07c0.02-0.08,0.05-0.15,0.08-0.23c1.05-3,2.53-5.8,4.37-8.32c0.49-0.68,1.01-1.34,1.55-1.97
				c0.57-0.67,1.17-1.32,1.79-1.94c-0.23-0.13-0.47-0.27-0.7-0.41c-0.15-0.09-0.29-0.17-0.43-0.26c-0.13-0.08-0.25-0.16-0.37-0.23
				c-0.11-0.07-0.23-0.15-0.35-0.23c-0.08-0.05-0.16-0.1-0.23-0.16c-0.11-0.07-0.21-0.14-0.31-0.2c-0.17-0.12-0.34-0.24-0.51-0.36
				c-0.03-0.02-0.06-0.05-0.09-0.07c-0.01-0.01-0.03-0.02-0.04-0.03c-0.01-0.01-0.01-0.01-0.02-0.01c-0.05-0.04-0.1-0.08-0.15-0.11
				c-0.05-0.04-0.1-0.08-0.16-0.11c-0.02-0.01-0.04-0.03-0.06-0.04c-0.04-0.04-0.08-0.07-0.13-0.1c-0.02-0.02-0.04-0.03-0.06-0.04
				c-0.11-0.09-0.23-0.18-0.35-0.27c-0.01-0.01-0.03-0.02-0.04-0.03c-0.04-0.04-0.09-0.07-0.14-0.11c-0.01-0.01-0.02-0.01-0.03-0.02
				c-0.03-0.02-0.04-0.04-0.07-0.05c-0.01-0.01-0.03-0.02-0.04-0.04c-0.01-0.01-0.02-0.01-0.03-0.02l-0.03-0.02
				c-0.09-0.07-0.18-0.15-0.27-0.22c-4.01,3.87-7.02,8.76-8.61,14.24c-0.9,3.09-1.34,6.38-1.26,9.78l0,0.11
				c0.13,4.92,1.36,9.55,3.45,13.66c0.07,0.15,0.15,0.29,0.23,0.44c0.15-0.5,0.3-1.01,0.45-1.52c0.28-0.92,0.57-1.83,0.88-2.75
				c0.06-0.18,0.12-0.36,0.18-0.55c0.12-0.36,0.25-0.73,0.37-1.08c-0.35-1.79-0.55-3.63-0.6-5.5
				C7140.79,7403.37,7141.4,7399.58,7142.6,7396.07z"/>
			<path class="st2" d="M7125.16,7375.89c-1.49,1.82-3.15,3.49-4.96,4.97c-0.22,0.18-0.45,0.36-0.66,0.53l0.08,0.07
				c2.62,2.58,4.84,5.56,6.56,8.85c0.13,0.25,0.25,0.5,0.38,0.74c2.09,4.25,3.34,9,3.55,14.03c-0.02-0.58-0.04-1.17-0.06-1.76
				c-0.09-3.64-0.04-7.26,0.13-10.84c0.09-1.9,0.21-3.78,0.38-5.67c0.21-2.51,0.49-5,0.83-7.48
				C7128.89,7378.98,7126.7,7377.72,7125.16,7375.89z"/>
			<path class="st2" d="M7151.19,7393c0,0,0-0.01,0.01-0.02C7151.19,7392.98,7151.19,7392.99,7151.19,7393L7151.19,7393z"/>
			<path class="st2" d="M7132.17,7359.49c0.11-0.56,0.2-1.12,0.28-1.69c0.01-0.08,0.02-0.16,0.03-0.24c0-0.02,0.01-0.04,0.01-0.06
				c0.02-0.12,0.03-0.24,0.05-0.36c0.01-0.05,0.01-0.09,0.02-0.14c0.02-0.12,0.03-0.24,0.04-0.37c0.01-0.07,0.02-0.15,0.03-0.22
				c0.01-0.11,0.02-0.22,0.03-0.33c0.02-0.16,0.03-0.33,0.05-0.5c0.01-0.16,0.03-0.33,0.03-0.5c0.01-0.03,0.01-0.06,0.01-0.09
				c0-0.09,0.01-0.2,0.01-0.29c0.01-0.04,0-0.09,0-0.13c0.02-0.35,0.03-0.68,0.04-1.02c0.01-0.03,0-0.07,0-0.1c0-0.12,0-0.25,0-0.37
				c0-0.14,0-0.28,0-0.41c0-0.07,0-0.14,0-0.2l-0.01-0.45c-0.01-0.36-0.02-0.71-0.04-1.06c-0.01-0.18-0.02-0.35-0.03-0.53
				c-0.01-0.09-0.01-0.2-0.02-0.29c-0.01-0.12-0.02-0.24-0.03-0.35c-0.02-0.18-0.03-0.34-0.05-0.51c-0.01-0.04-0.01-0.08-0.02-0.12
				c-0.01-0.14-0.03-0.26-0.04-0.4c-0.02-0.16-0.03-0.32-0.06-0.47c-0.01-0.09-0.02-0.18-0.03-0.28c-0.02-0.13-0.04-0.27-0.06-0.4
				c-0.02-0.16-0.06-0.32-0.08-0.48c-0.01-0.04-0.02-0.08-0.02-0.11c-0.02-0.14-0.05-0.28-0.08-0.42c0-0.03-0.01-0.06-0.02-0.09
				c-0.03-0.17-0.06-0.34-0.09-0.5c-0.03-0.18-0.07-0.36-0.11-0.53c-0.03-0.12-0.05-0.25-0.08-0.37c-0.02-0.09-0.04-0.19-0.07-0.28
				c-0.03-0.16-0.08-0.32-0.11-0.48c-0.01-0.01-0.01-0.03-0.01-0.05c-0.04-0.15-0.07-0.3-0.11-0.46c-0.22-0.81-0.47-1.62-0.74-2.42
				c-0.04-0.12-0.08-0.24-0.12-0.36c-0.03-0.08-0.06-0.16-0.09-0.23c-0.06-0.15-0.11-0.31-0.17-0.46c-0.05-0.12-0.09-0.24-0.14-0.36
				c-0.05-0.13-0.1-0.26-0.16-0.39c-0.01-0.04-0.03-0.08-0.04-0.12c-0.04-0.1-0.09-0.21-0.13-0.31c-0.03-0.06-0.05-0.12-0.08-0.18
				c-0.04-0.11-0.09-0.21-0.14-0.32c-0.01-0.03-0.02-0.06-0.04-0.09c-0.06-0.14-0.12-0.28-0.19-0.42c-0.07-0.15-0.14-0.29-0.21-0.44
				c-0.01-0.01-0.01-0.02-0.01-0.03c-0.06-0.13-0.12-0.25-0.19-0.38c-0.08-0.16-0.17-0.33-0.25-0.49c-1.38,0.04-2.77,0.06-4.17,0.06
				c-0.94,0-1.87-0.02-2.81-0.04c0.61,2.46,0.97,5.02,1.03,7.66c0.11,4.55-0.64,8.91-2.12,12.93c-2.37,6.48-6.61,12.09-12.08,16.14
				c-1.04,0.77-2.12,1.48-3.23,2.14c-0.62,0.36-1.25,0.7-1.89,1.02c-0.07,0.04-0.15,0.08-0.23,0.11c0,0.01,0.01,0.01,0.01,0.01
				c2.29,2.89,4.47,5.86,6.55,8.92c1.36-0.51,2.68-1.09,3.95-1.76c0.02-0.01,0.04-0.02,0.06-0.04c1.85-0.97,3.58-2.09,5.21-3.35
				c0.22-0.17,0.44-0.35,0.66-0.53c1.76-1.44,3.37-3.05,4.82-4.79c-1.18-1.64-1.89-3.65-1.89-5.83
				C7122.8,7364.15,7126.94,7359.82,7132.17,7359.49z"/>
			<path class="st2" d="M7137.11,7337.51c-0.86,2-1.54,4.09-2.01,6.26c-0.6,2.72-0.89,5.54-0.82,8.45c0,0.2,0.02,0.41,0.02,0.62
				c0,0.13,0.01,0.25,0.02,0.37c0.01,0.1,0.01,0.2,0.02,0.3c0.01,0.2,0.02,0.39,0.03,0.57c0.03,0.3,0.06,0.6,0.08,0.9
				c0,0.01,0,0.03,0.01,0.04c0.01,0.13,0.03,0.26,0.04,0.38c0.05,0.45,0.11,0.88,0.18,1.33c0.02,0.1,0.03,0.2,0.05,0.3
				c0.02,0.09,0.02,0.18,0.04,0.26c0.08,0.44,0.16,0.88,0.25,1.31c0.02,0.11,0.05,0.22,0.08,0.32c0,0.01,0,0.01,0,0.01
				c0.03,0.15,0.06,0.3,0.1,0.44c0.04,0.14,0.06,0.28,0.1,0.41c4.31,1.11,7.5,5.01,7.5,9.67c0,1.38-0.28,2.69-0.78,3.89
				c0.01,0.01,0.02,0.02,0.02,0.03c0.09,0.12,0.18,0.23,0.28,0.35c0.06,0.08,0.13,0.16,0.2,0.24c0.2,0.24,0.4,0.47,0.61,0.7
				c0.3,0.34,0.6,0.67,0.91,0.99c0.03,0.03,0.05,0.05,0.08,0.07c0.12,0.12,0.24,0.25,0.35,0.36c0.02,0.02,0.03,0.03,0.06,0.05
				c0.01,0.01,0.03,0.03,0.04,0.05c0.16,0.16,0.32,0.31,0.48,0.47c0.01,0.01,0.01,0.01,0.01,0.01c0.17,0.16,0.33,0.31,0.5,0.47
				c0.12,0.11,0.24,0.21,0.35,0.32l0.06,0.06c0.06,0.06,0.12,0.11,0.19,0.16c0.01,0.01,0.03,0.03,0.04,0.03
				c0.12,0.12,0.25,0.22,0.38,0.34l0.02,0.02c0.17,0.15,0.35,0.3,0.52,0.44c0.1,0.08,0.2,0.16,0.3,0.24l0.03,0.03
				c0.01,0.01,0.02,0.01,0.03,0.02c0.01,0.01,0.03,0.03,0.05,0.04c0.03,0.02,0.05,0.04,0.08,0.06c0.01,0.01,0.02,0.01,0.03,0.02
				c0.06,0.05,0.1,0.09,0.15,0.12c0.01,0.01,0.03,0.02,0.05,0.03c0.12,0.1,0.26,0.2,0.38,0.3c0.02,0.01,0.04,0.03,0.06,0.05
				c0.05,0.03,0.09,0.07,0.14,0.1c0.02,0.01,0.04,0.03,0.06,0.05c0.06,0.04,0.12,0.09,0.17,0.12c0.06,0.04,0.11,0.09,0.17,0.12
				c0.01,0.01,0.01,0.01,0.02,0.01c0.02,0.01,0.03,0.02,0.05,0.03c0.03,0.03,0.07,0.05,0.1,0.08c0.19,0.13,0.37,0.26,0.56,0.39
				c0.11,0.07,0.22,0.15,0.34,0.22c0.08,0.06,0.17,0.12,0.25,0.17c0.12,0.08,0.25,0.17,0.38,0.25c0.14,0.08,0.27,0.17,0.41,0.25
				c0.15,0.1,0.31,0.19,0.47,0.29c0.25,0.15,0.51,0.3,0.76,0.44c0.1,0.06,0.2,0.12,0.3,0.17c0.03,0.01,0.05,0.03,0.08,0.04
				c0.03,0.02,0.05,0.03,0.07,0.04c0.03,0.02,0.08,0.04,0.11,0.06c0.03,0.02,0.07,0.04,0.1,0.06c0.05,0.03,0.1,0.05,0.14,0.08
				c0.06,0.03,0.12,0.06,0.19,0.1c0.01,0.01,0.02,0.01,0.03,0.02c0.01,0.01,0.03,0.01,0.05,0.03c0.12,0.06,0.23,0.12,0.36,0.17
				c0,0.01,2.9,1.31,2.98,1.34c1.99-3.22,4.1-6.35,6.32-9.39h-0.01c-1.8-0.92-3.5-1.99-5.1-3.19c-0.71-0.53-1.39-1.09-2.06-1.67
				c-0.26-0.23-0.52-0.47-0.77-0.71c-0.12-0.11-0.23-0.21-0.34-0.32c-1.45-1.39-2.8-2.9-3.99-4.53c-3.14-4.24-5.35-9.23-6.32-14.66
				c-0.03,0.03-0.06,0.07-0.09,0.1c0.03-0.04,0.05-0.09,0.08-0.13c-0.29-1.6-0.46-3.24-0.52-4.91c0-0.14-0.01-0.28-0.02-0.43
				c-0.04-1.5,0.02-2.97,0.17-4.42c0.04-0.43,0.09-0.86,0.15-1.28c0.14-1.01,0.33-2,0.56-2.98c-2.3,0.31-4.61,0.56-6.94,0.77
				C7137.47,7336.7,7137.28,7337.1,7137.11,7337.51z M7143.08,7351.32c0,0.01,0,0.02,0.01,0.03c-0.03,0.03-0.06,0.07-0.09,0.1
				C7143.03,7351.41,7143.05,7351.37,7143.08,7351.32z"/>
			<path class="st2" d="M7151.88,7338.38c0.01-0.21,0.02-0.41,0.03-0.62c0.01-0.12,0.02-0.22,0.02-0.34c0-0.1,0.02-0.2,0.02-0.3
				c0.01-0.12,0.02-0.25,0.03-0.37c0.01-0.16,0.03-0.31,0.04-0.47c0.01-0.09,0.02-0.2,0.03-0.29c0-0.08,0.02-0.16,0.02-0.25
				c0.02-0.12,0.03-0.24,0.05-0.37c0.01-0.09,0.02-0.18,0.03-0.27c0.01-0.1,0.02-0.2,0.04-0.29c0.01-0.13,0.03-0.24,0.05-0.37
				c0-0.01,0.01-0.01,0.01-0.01c0.01-0.04,0.01-0.08,0.02-0.12c-2.33,0.44-4.69,0.83-7.06,1.16c-0.23,1.01-0.43,2.03-0.57,3.07
				c-0.06,0.42-0.11,0.85-0.15,1.28c-0.15,1.45-0.21,2.92-0.17,4.42c0,0.14,0.01,0.28,0.02,0.43c0.06,1.67,0.24,3.31,0.52,4.91
				c0,0.01,0,0.02,0.01,0.03c0.96,5.43,3.18,10.42,6.32,14.66c1.2,1.62,2.54,3.14,3.99,4.53c0.11,0.11,0.22,0.21,0.34,0.32
				c0.26,0.24,0.51,0.48,0.77,0.71c0.67,0.58,1.35,1.14,2.06,1.67c1.6,1.21,3.3,2.28,5.1,3.19h0.01c0,0,0,0,0.01-0.01
				c0.31-0.42,0.62-0.83,0.92-1.25c0.22-0.3,0.45-0.6,0.68-0.9c0.55-0.72,1.1-1.44,1.67-2.15c0.16-0.21,0.31-0.41,0.47-0.61h0.01
				c0.2-0.26,0.4-0.51,0.6-0.76c-0.01-0.01-0.03-0.03-0.06-0.04c-0.14-0.1-0.29-0.19-0.43-0.29c-0.13-0.09-0.27-0.19-0.41-0.28
				c-0.16-0.11-0.32-0.22-0.48-0.34c-0.13-0.09-0.26-0.19-0.39-0.29c-0.14-0.1-0.28-0.21-0.42-0.31c-0.16-0.12-0.32-0.25-0.48-0.37
				c-0.06-0.05-0.12-0.1-0.17-0.15c-0.12-0.09-0.23-0.18-0.35-0.28c-0.28-0.23-0.56-0.47-0.84-0.71c-0.12-0.1-0.24-0.2-0.35-0.31
				c-0.13-0.12-0.26-0.24-0.39-0.37c-0.17-0.15-0.33-0.3-0.48-0.46c-0.17-0.15-0.33-0.31-0.48-0.47c-0.26-0.26-0.51-0.52-0.75-0.77
				c-0.1-0.11-0.2-0.22-0.3-0.32c-0.1-0.11-0.2-0.22-0.29-0.33c-0.08-0.09-0.16-0.17-0.24-0.26c-0.08-0.09-0.15-0.17-0.22-0.26
				c-0.08-0.09-0.15-0.18-0.24-0.28c-0.08-0.09-0.15-0.19-0.23-0.28c-0.1-0.12-0.2-0.25-0.29-0.37c-0.08-0.11-0.17-0.21-0.25-0.31
				c-0.08-0.11-0.17-0.21-0.24-0.32c-0.02-0.03-0.04-0.05-0.06-0.08c-0.06-0.08-0.13-0.16-0.18-0.24c-0.08-0.11-0.16-0.22-0.24-0.33
				c-0.05-0.07-0.1-0.13-0.14-0.19c-0.04-0.05-0.07-0.09-0.11-0.15c-0.03-0.04-0.06-0.08-0.08-0.13c-0.04-0.05-0.08-0.1-0.11-0.15
				c-0.11-0.16-0.22-0.33-0.34-0.49c-0.11-0.16-0.22-0.33-0.32-0.49c-0.26-0.4-0.51-0.81-0.75-1.22c-0.09-0.15-0.18-0.31-0.27-0.47
				c-0.1-0.18-0.2-0.36-0.3-0.54c-0.01-0.02-0.02-0.04-0.04-0.06c-0.08-0.15-0.16-0.31-0.25-0.46c-0.01-0.03-0.02-0.05-0.03-0.07
				c-0.01-0.02-0.02-0.03-0.03-0.05c-0.1-0.19-0.2-0.37-0.29-0.57c-0.1-0.21-0.2-0.41-0.3-0.63c-0.01-0.01-0.01-0.02-0.02-0.03
				c-0.06-0.13-0.12-0.26-0.18-0.39c-0.04-0.11-0.09-0.21-0.14-0.31c0,0-0.01,0-0.01-0.01c-0.04-0.11-0.09-0.21-0.14-0.32
				c-0.06-0.15-0.13-0.3-0.19-0.46s-0.12-0.3-0.19-0.46c-0.14-0.36-0.28-0.73-0.41-1.1c-0.05-0.15-0.11-0.29-0.15-0.44
				c-0.09-0.25-0.17-0.51-0.26-0.77l-0.11-0.34c-0.05-0.16-0.1-0.32-0.15-0.48c0-0.01,0-0.01,0-0.01c-0.03-0.1-0.06-0.19-0.08-0.3
				c-0.04-0.11-0.07-0.24-0.1-0.36c-0.01-0.03-0.02-0.05-0.02-0.08c-0.03-0.09-0.05-0.17-0.07-0.26c-0.01-0.03-0.02-0.06-0.02-0.09
				c-0.04-0.17-0.09-0.35-0.13-0.52c-0.01-0.01-0.01-0.03-0.01-0.04c-0.05-0.2-0.09-0.39-0.13-0.59c-0.03-0.13-0.05-0.26-0.08-0.38
				c-0.02-0.12-0.05-0.25-0.08-0.38l0-0.02c-0.05-0.22-0.08-0.44-0.12-0.65c-0.02-0.09-0.03-0.2-0.05-0.29
				c-0.01-0.06-0.02-0.13-0.03-0.19c-0.03-0.2-0.06-0.38-0.09-0.58c-0.06-0.42-0.12-0.86-0.16-1.29c-0.02-0.11-0.03-0.23-0.04-0.34
				c-0.03-0.3-0.06-0.6-0.08-0.91c-0.01-0.13-0.02-0.26-0.03-0.39v-0.01c-0.01-0.11-0.01-0.22-0.01-0.32
				c-0.01-0.16-0.02-0.31-0.02-0.47l-0.02-0.68c0-0.01,0-0.01,0-0.01l-0.01-0.37c0-0.12,0-0.24,0-0.37c0-0.11-0.01-0.22,0-0.34
				c0-0.15,0.01-0.29,0.01-0.44C7151.88,7338.59,7151.88,7338.48,7151.88,7338.38z M7165.43,7371.51L7165.43,7371.51
				c-0.16,0.2-0.32,0.4-0.47,0.61C7165.11,7371.91,7165.27,7371.71,7165.43,7371.51z M7151.4,7350.82c-0.04-0.11-0.07-0.24-0.1-0.36
				c-0.01-0.03-0.02-0.05-0.02-0.08c-0.03-0.09-0.05-0.17-0.07-0.26c-0.01-0.03-0.02-0.06-0.02-0.09c-0.04-0.17-0.09-0.35-0.13-0.52
				c-0.01-0.01-0.01-0.03-0.01-0.04c-0.05-0.2-0.09-0.39-0.13-0.59c-0.03-0.13-0.05-0.26-0.08-0.38c-0.02-0.12-0.05-0.25-0.08-0.38
				c0.26,0.99,0.5,1.99,0.73,3C7151.46,7351.02,7151.43,7350.93,7151.4,7350.82z"/>
			<path class="st2" d="M7165.43,7371.51c-0.16,0.2-0.32,0.4-0.47,0.61C7165.11,7371.91,7165.27,7371.71,7165.43,7371.51
				L7165.43,7371.51z"/>
			<path class="st2" d="M7111.95,7341.19c0.08,3.31-0.3,6.51-1.08,9.56c-2.02,7.91-6.74,14.78-13.13,19.52
				c0,0.01,0.01,0.01,0.01,0.01c1.49,1.68,2.93,3.39,4.34,5.14c0.16,0.2,0.32,0.4,0.48,0.6c0.08,0.09,0.15,0.19,0.22,0.28
				c0.07-0.04,0.15-0.07,0.23-0.11c0.64-0.32,1.27-0.66,1.89-1.02c1.11-0.66,2.19-1.37,3.23-2.14c5.47-4.05,9.7-9.66,12.08-16.14
				c1.48-4.02,2.23-8.39,2.12-12.93c-0.06-2.45-0.37-4.83-0.9-7.13c-3.35-0.07-6.67-0.27-9.96-0.56
				C7111.75,7337.88,7111.91,7339.52,7111.95,7341.19z"/>
			<path class="st2" d="M7143.08,7351.32c-0.03,0.04-0.05,0.09-0.08,0.13c0.03-0.03,0.06-0.06,0.09-0.1
				C7143.08,7351.34,7143.08,7351.33,7143.08,7351.32z"/>
			<path class="st2" d="M7150.83,7348.5c0.03,0.13,0.05,0.26,0.08,0.38c0.04,0.2,0.08,0.39,0.13,0.59c0.01,0.01,0.01,0.03,0.01,0.04
				c0.04,0.17,0.08,0.35,0.13,0.52c0.01,0.03,0.02,0.06,0.02,0.09c0.02,0.09,0.04,0.18,0.07,0.26c0.01,0.03,0.02,0.05,0.02,0.08
				c0.03,0.12,0.06,0.24,0.1,0.36c0.02,0.1,0.05,0.19,0.08,0.3c-0.23-1.01-0.47-2.01-0.73-3
				C7150.78,7348.25,7150.81,7348.38,7150.83,7348.5z"/>
			<path class="st2" d="M7129.56,7337.54c0.06,0.13,0.13,0.25,0.19,0.38c0.01,0.01,0.01,0.02,0.01,0.03
				c0.07,0.15,0.14,0.29,0.21,0.44c0.06,0.14,0.13,0.28,0.19,0.42c0.02,0.03,0.04,0.06,0.04,0.09c0.05,0.11,0.1,0.21,0.14,0.32
				c0.03,0.06,0.05,0.12,0.08,0.18c0.04,0.1,0.09,0.21,0.13,0.31c0.01,0.04,0.03,0.08,0.04,0.12c0.06,0.13,0.11,0.26,0.16,0.39
				c0.05,0.12,0.09,0.24,0.14,0.36c0.06,0.15,0.11,0.3,0.17,0.46c0.03,0.07,0.06,0.15,0.09,0.23c0.04,0.12,0.09,0.24,0.12,0.36
				c0.28,0.8,0.53,1.6,0.74,2.42c0.04,0.15,0.08,0.3,0.11,0.46c0.01,0.01,0.01,0.03,0.01,0.05c0.04,0.16,0.08,0.32,0.11,0.48
				c0.02,0.09,0.05,0.19,0.07,0.28c0.03,0.12,0.05,0.25,0.08,0.37c0.04,0.18,0.08,0.35,0.11,0.53c0.03,0.16,0.06,0.33,0.09,0.5
				c0.01,0.03,0.02,0.06,0.02,0.09c0.03,0.14,0.05,0.28,0.08,0.42c0,0.03,0.01,0.07,0.02,0.11c0.02,0.16,0.06,0.32,0.08,0.48
				c0.02,0.14,0.03,0.27,0.06,0.4c0.01,0.09,0.02,0.19,0.03,0.28c0.02,0.15,0.04,0.32,0.06,0.47c0.02,0.14,0.03,0.26,0.04,0.4
				c0.01,0.04,0.01,0.08,0.02,0.12c0.02,0.17,0.03,0.34,0.05,0.51c0.01,0.11,0.02,0.23,0.03,0.35c0.01,0.09,0.01,0.2,0.02,0.29
				c0.01,0.18,0.02,0.35,0.03,0.53c0.02,0.34,0.03,0.7,0.04,1.06c-0.07-2.9,0.21-5.73,0.82-8.45c0.48-2.16,1.16-4.26,2.01-6.26
				c0.16-0.38,0.33-0.76,0.51-1.13c-2.43,0.19-4.87,0.32-7.33,0.4c0.02,0.05,0.05,0.09,0.07,0.14
				C7129.36,7337.14,7129.46,7337.34,7129.56,7337.54z"/>
			<path class="st2" d="M7146.99,7329.76c0.89-1.86,1.95-3.62,3.14-5.29c-0.65,0.11-1.3,0.22-1.95,0.32
				c-1.17,0.88-2.29,1.83-3.34,2.85c-0.22,0.22-0.44,0.43-0.65,0.65c-1.37,1.4-2.63,2.92-3.75,4.54c1.86-0.21,3.7-0.44,5.54-0.72
				c0.02-0.04,0.03-0.09,0.05-0.14C7146.32,7331.22,7146.65,7330.48,7146.99,7329.76z"/>
			<path class="st2" d="M7150.5,7324.41c-1.11,1.58-2.09,3.25-2.93,5c-0.35,0.73-0.67,1.46-0.97,2.22c-0.05,0.14-0.1,0.28-0.16,0.42
				c2.24-0.34,4.47-0.74,6.68-1.19c0.78-2.67,1.87-5.2,3.23-7.57C7154.41,7323.7,7152.46,7324.07,7150.5,7324.41z"/>
			<path class="st2" d="M7143.7,7327.98c0.21-0.21,0.43-0.43,0.65-0.65c0.87-0.84,1.78-1.63,2.74-2.38
				c-7.03,1.03-14.21,1.57-21.53,1.57c-1.89,0-3.77-0.05-5.64-0.12c0.06,0.05,0.13,0.1,0.19,0.15c0.12,0.08,0.23,0.18,0.35,0.27
				c0.11,0.09,0.22,0.18,0.32,0.27c0.63,0.51,1.24,1.05,1.83,1.61c0.1,0.1,0.21,0.19,0.31,0.29c0.31,0.3,0.61,0.6,0.9,0.91
				c0.1,0.1,0.19,0.2,0.29,0.3c0.3,0.31,0.58,0.63,0.87,0.95c0.1,0.11,0.19,0.22,0.28,0.32c0.1,0.11,0.19,0.22,0.28,0.33
				c0.09,0.11,0.18,0.22,0.27,0.32c0.18,0.23,0.36,0.45,0.53,0.68c0.17,0.23,0.35,0.45,0.52,0.68c0.05,0.06,0.09,0.13,0.14,0.2
				c4.27-0.09,8.49-0.35,12.67-0.79"/>
			<path class="st2" d="M7125.21,7332.78c-0.17-0.23-0.35-0.45-0.53-0.68c-0.09-0.11-0.18-0.22-0.27-0.33
				c-0.09-0.11-0.18-0.22-0.28-0.33c-0.09-0.11-0.18-0.22-0.28-0.32c-0.29-0.32-0.57-0.64-0.87-0.95c-0.1-0.11-0.19-0.21-0.29-0.3
				c-0.29-0.31-0.6-0.61-0.9-0.91c-0.1-0.1-0.21-0.19-0.31-0.29c-0.59-0.56-1.2-1.09-1.83-1.61c-0.1-0.09-0.21-0.18-0.32-0.27
				c-0.12-0.09-0.23-0.18-0.35-0.27c-0.06-0.05-0.13-0.1-0.2-0.16c-0.89-0.04-1.78-0.09-2.66-0.15c0.91,1.26,1.74,2.58,2.47,3.96
				c0.61,1.14,1.15,2.31,1.63,3.52c1.27,0.03,2.54,0.05,3.81,0.05c0.63,0,1.26-0.02,1.88-0.02c-0.06-0.08-0.12-0.17-0.18-0.25
				C7125.56,7333.23,7125.39,7333.01,7125.21,7332.78z"/>
			<path class="st2" d="M7115.5,7326.17c-3.07-0.21-6.12-0.5-9.13-0.9c1.52,2.41,2.75,5.03,3.65,7.8c3.17,0.3,6.37,0.5,9.6,0.6
				c-0.48-1.2-1.02-2.37-1.62-3.5C7117.25,7328.78,7116.41,7327.45,7115.5,7326.17z"/>
			<path class="st2" d="M7106.09,7321.38c3.12,0.34,6.26,0.59,9.43,0.74c-2.37-2.08-4.84-4.04-7.42-5.87
				C7107.46,7317.98,7106.79,7319.69,7106.09,7321.38z"/>
			<path class="st2" d="M7106.73,7319.34c-0.22,0.68-0.46,1.36-0.7,2.04c0.02,0,0.04,0,0.06,0.01c0.7-1.7,1.37-3.4,2.01-5.13
				c-0.11-0.08-0.21-0.15-0.31-0.23C7107.45,7317.13,7107.1,7318.24,7106.73,7319.34z"/>
			<path class="st2" d="M7146.43,7259.46c-4.85-6.62-10.57-12.56-16.98-17.66c-5.02-4-10.46-7.47-16.25-10.36
				c2.49,10.54,3.84,21.52,3.93,32.8c0.66,0.42,1.31,0.85,1.95,1.29c18.1,12.31,31.61,30.93,37.31,52.78
				c0.09-0.02,0.18-0.04,0.27-0.06c2.44-7.92,4.23-16.12,5.32-24.53C7159.17,7281.12,7153.79,7269.5,7146.43,7259.46z"/>
			<path class="st2" d="M7118.49,7266.12c-0.45-0.3-0.9-0.6-1.35-0.9c0,0.05,0,0.1,0,0.16c0,9.18-0.85,18.17-2.46,26.88
				c10.87,7.53,20.05,17.34,26.83,28.78c4.8-0.62,9.53-1.48,14.18-2.55C7149.93,7296.82,7136.48,7278.35,7118.49,7266.12z"/>
			<path class="st2" d="M7114.51,7293.14c-1.46,7.66-3.52,15.11-6.12,22.3c2.95,2.07,5.77,4.32,8.45,6.72
				c1.83,0.07,3.67,0.11,5.52,0.11c6.19,0,12.29-0.39,18.28-1.13C7133.97,7310.07,7125.04,7300.53,7114.51,7293.14z"/>
			<path class="st2" d="M7130.04,7240.63c6.4,5.1,12.13,11.04,16.98,17.66c7.36,10.04,12.74,21.66,15.54,34.26
				c0.96-7.46,1.38-15.07,1.19-22.83c-0.07-2.87-0.22-5.71-0.45-8.53c-0.25-0.88-0.52-1.76-0.79-2.63
				c-2.54-8-6.14-15.52-10.64-22.39c-3.89-5.95-8.45-11.41-13.56-16.28c-1.49-1.42-3.02-2.79-4.6-4.11
				c-0.16-0.13-0.32-0.26-0.48-0.39c-3.28-2.7-6.76-5.18-10.4-7.41c-3.58-2.19-7.32-4.15-11.21-5.85c-3.45-1.51-7.01-2.8-10.66-3.88
				c5.09,9.91,9.09,20.48,11.83,31.54C7118.95,7232.77,7124.74,7236.41,7130.04,7240.63z"/>
			<path class="st2" d="M7112.21,7200.95c3.89,1.69,7.63,3.65,11.21,5.85c3.64,2.23,7.12,4.71,10.4,7.41
				c0.16,0.12,0.32,0.26,0.48,0.39c1.58,1.32,3.11,2.69,4.6,4.11c5.11,4.87,9.67,10.33,13.56,16.28c4.5,6.87,8.11,14.39,10.64,22.39
				c0.28,0.87,0.54,1.75,0.79,2.63c-0.07-0.86-0.14-1.72-0.23-2.57c-0.76-7.78-2.13-15.38-4.04-22.75
				c-1.81-7.01-4.13-13.81-6.9-20.37c-0.04-0.08-0.06-0.16-0.1-0.24c-0.58-1.37-1.18-2.73-1.8-4.08c-0.36-0.79-0.74-1.58-1.11-2.37
				c-4.48-3.12-9.11-5.98-13.87-8.56c-3.95-2.15-7.99-4.11-12.1-5.89c-0.53-0.23-1.05-0.46-1.59-0.68c-0.01,0-0.01,0-0.01-0.01
				c-1.99-0.74-3.98-1.51-5.93-2.33c0-0.01,0-0.01-0.01-0.01c-4.49-1.65-9.04-3.09-13.66-4.31c-3.39-0.89-6.81-1.65-10.25-2.3
				c2.83,4.23,5.45,8.61,7.84,13.13C7104.28,7197.83,7108.31,7199.25,7112.21,7200.95z M7105.26,7187.06L7105.26,7187.06
				L7105.26,7187.06c0.02,0.01,0.05,0.03,0.07,0.04s0.05,0.03,0.07,0.04l0,0l0,0c-0.03-0.01-0.06-0.02-0.09-0.03
				c-0.03-0.01-0.06-0.02-0.09-0.03C7105.24,7187.07,7105.25,7187.06,7105.26,7187.06z"/>
			<path class="st2" d="M7105.41,7187.14c-0.02-0.01-0.05-0.03-0.07-0.04C7105.36,7187.11,7105.38,7187.12,7105.41,7187.14
				L7105.41,7187.14z"/>
			<path class="st2" d="M7105.23,7187.08c0.01-0.01,0.02-0.02,0.03-0.03l0,0C7105.25,7187.06,7105.24,7187.07,7105.23,7187.08
				c0.03,0.01,0.06,0.02,0.09,0.03C7105.29,7187.1,7105.26,7187.09,7105.23,7187.08z"/>
			<path class="st2" d="M7105.26,7187.06L7105.26,7187.06c0.02,0.01,0.05,0.03,0.07,0.04
				C7105.31,7187.08,7105.28,7187.07,7105.26,7187.06z"/>
			<path class="st2" d="M7105.41,7187.14L7105.41,7187.14c-0.03-0.01-0.06-0.02-0.09-0.03
				C7105.35,7187.12,7105.38,7187.13,7105.41,7187.14z"/>
			<path class="st2" d="M7105.32,7187.11c0.03,0.01,0.06,0.02,0.09,0.03c-0.02-0.01-0.05-0.03-0.07-0.04s-0.05-0.03-0.07-0.04
				c-0.01,0.01-0.02,0.02-0.03,0.03C7105.26,7187.09,7105.29,7187.1,7105.32,7187.11z"/>
		</g>
		<g>
			<path class="st1" d="M7129.17,7163.89c0.07-0.09,0.14-0.17,0.21-0.26c0.04-0.05,0.08-0.1,0.12-0.15
				c0.01-0.02,0.03-0.04,0.04-0.05c0.09-0.12,0.18-0.23,0.27-0.34c0.19-0.24,0.37-0.47,0.55-0.71c0.13-0.16,0.25-0.32,0.38-0.49
				c0.2-0.26,0.4-0.52,0.59-0.78c0.01-0.02,0.02-0.03,0.03-0.04c0.02-0.02,0.02-0.03,0.03-0.05c0.02-0.02,0.03-0.03,0.04-0.05
				c0.2-0.27,0.4-0.53,0.59-0.79c0.12-0.16,0.24-0.32,0.36-0.48c0.12-0.16,0.24-0.32,0.35-0.48c0.09-0.13,0.19-0.26,0.28-0.39
				c0.14-0.19,0.27-0.38,0.41-0.57c0.2-0.28,0.4-0.57,0.6-0.85c0.03-0.04,0.05-0.08,0.08-0.11c0.34-0.49,0.68-0.97,1.01-1.46
				c0.17-0.25,0.33-0.49,0.5-0.74c0.1-0.16,0.21-0.31,0.31-0.46c0.11-0.17,0.22-0.33,0.33-0.5c0.18-0.27,0.35-0.53,0.52-0.79
				c0.43-0.66,0.85-1.32,1.27-1.99c0.19-0.31,0.37-0.61,0.56-0.91c0.01-0.02,0.03-0.05,0.04-0.07c0.15-0.25,0.3-0.5,0.45-0.76
				c0.01-0.01,0.01-0.02,0.02-0.03c0.05-0.09,0.11-0.18,0.16-0.28c0.03-0.06,0.06-0.1,0.09-0.16c0.13-0.21,0.25-0.42,0.37-0.62
				c0.19-0.32,0.37-0.63,0.55-0.96c0.18-0.32,0.37-0.63,0.55-0.96c0.21-0.37,0.41-0.75,0.62-1.12c0.13-0.24,0.26-0.48,0.39-0.72
				c0.02-0.04,0.05-0.08,0.07-0.12c0.16-0.31,0.32-0.61,0.48-0.92c0.01-0.01,0.02-0.03,0.02-0.05c0.01-0.02,0.02-0.03,0.03-0.05
				c0,0,0,0,0.01-0.01c0.01-0.02,0.02-0.03,0.03-0.05c0.12-0.24,0.25-0.47,0.37-0.71c0.01-0.02,0.02-0.04,0.03-0.06
				c0.09-0.18,0.19-0.37,0.28-0.55c0.35-0.7,0.7-1.39,1.04-2.09c0.11-0.23,0.22-0.46,0.33-0.69c0.01-0.01,0.02-0.02,0.02-0.03
				c0.19-0.41,0.38-0.81,0.57-1.22c0-0.01,0.01-0.02,0.01-0.03c0.09-0.2,0.18-0.4,0.28-0.6c0.26-0.57,0.52-1.15,0.77-1.73
				c0.07-0.15,0.13-0.3,0.2-0.45c0.01-0.02,0.02-0.04,0.03-0.06s0.02-0.05,0.03-0.07c0.17-0.4,0.34-0.8,0.51-1.21
				c0.01-0.01,0.01-0.02,0.02-0.03c0.11-0.26,0.22-0.52,0.33-0.78c-9.16-16.85-14.57-36.07-15.06-56.57
				c-0.43-17.93,2.93-35.08,9.37-50.65c-0.07-0.12-0.14-0.24-0.2-0.36c0-0.01-0.01-0.01-0.01-0.01c-0.03-0.06-0.06-0.11-0.09-0.17
				c-0.02-0.02-0.03-0.05-0.05-0.07c-0.1-0.19-0.2-0.38-0.3-0.56c-0.11-0.19-0.22-0.39-0.33-0.58c-0.08-0.16-0.17-0.31-0.26-0.47
				c-0.01-0.02-0.03-0.04-0.04-0.07c-0.02-0.04-0.04-0.08-0.07-0.12c-0.1-0.17-0.2-0.34-0.3-0.51c-0.11-0.19-0.23-0.39-0.34-0.58
				c-0.09-0.17-0.2-0.33-0.29-0.5c-0.05-0.07-0.09-0.15-0.14-0.22c-0.01-0.02-0.02-0.03-0.04-0.06c-0.17-0.29-0.34-0.58-0.52-0.87
				c-0.02-0.04-0.05-0.1-0.08-0.14c-0.05-0.08-0.09-0.15-0.14-0.23l-0.14-0.23c-0.01-0.02-0.02-0.03-0.03-0.05
				c-0.15-0.23-0.29-0.46-0.44-0.7c-0.21-0.34-0.42-0.67-0.63-1c-0.17-0.26-0.34-0.53-0.51-0.79c-0.19-0.3-0.39-0.59-0.58-0.89
				c-0.17-0.25-0.33-0.5-0.5-0.75c-0.15-0.23-0.31-0.46-0.47-0.69c-0.02-0.03-0.05-0.07-0.08-0.11c-0.12-0.17-0.24-0.34-0.35-0.51
				c-0.21-0.3-0.41-0.6-0.62-0.89c-0.01-0.01-0.01-0.02-0.02-0.03c-0.18-0.25-0.35-0.49-0.52-0.74c-0.18-0.25-0.36-0.51-0.55-0.76
				c-0.18-0.25-0.35-0.49-0.54-0.74c-0.03-0.04-0.05-0.07-0.08-0.11c-0.17-0.23-0.35-0.47-0.53-0.71c-0.09-0.12-0.18-0.23-0.26-0.36
				c-0.09-0.12-0.18-0.23-0.27-0.35c-0.19-0.25-0.38-0.5-0.57-0.74c-0.17-0.23-0.35-0.45-0.53-0.68c-0.06-0.08-0.12-0.16-0.18-0.23
				c-0.15-0.19-0.3-0.38-0.45-0.57c-0.18-0.23-0.36-0.45-0.54-0.68c-0.17-0.21-0.35-0.42-0.52-0.64c-0.16-0.2-0.33-0.4-0.49-0.6
				c-0.49-0.6-1-1.19-1.5-1.78c-0.18-0.21-0.37-0.42-0.55-0.63c-0.2-0.23-0.42-0.47-0.62-0.7c-0.2-0.23-0.41-0.47-0.62-0.7
				c-0.19-0.21-0.37-0.41-0.57-0.62c-0.01-0.01-0.02-0.02-0.03-0.04c-0.25-0.27-0.49-0.53-0.74-0.8c-0.05-0.06-0.1-0.11-0.15-0.16
				c-0.27-0.29-0.54-0.58-0.82-0.87c-0.25-0.27-0.51-0.53-0.76-0.8l-0.21-0.22c-0.26-0.28-0.53-0.54-0.8-0.82
				c-0.19-0.19-0.38-0.38-0.57-0.57c-0.2-0.2-0.4-0.39-0.59-0.59c-0.2-0.2-0.4-0.39-0.61-0.59c-0.2-0.21-0.41-0.41-0.62-0.6
				c-0.2-0.19-0.4-0.38-0.59-0.57c-0.2-0.19-0.41-0.38-0.61-0.58c-0.01-0.01-0.01-0.01-0.02-0.01c-0.35-0.33-0.7-0.65-1.06-0.98
				c-0.07-0.07-0.15-0.13-0.21-0.19c-0.19-0.18-0.38-0.35-0.58-0.52c-0.21-0.19-0.42-0.38-0.63-0.56c-0.18-0.16-0.37-0.33-0.55-0.48
				c-0.96-0.85-1.94-1.68-2.93-2.49c-0.23-0.19-0.46-0.38-0.7-0.57c-0.15-0.12-0.28-0.23-0.42-0.34c-0.19-0.15-0.38-0.3-0.56-0.45
				c-0.42-0.34-0.85-0.67-1.28-1c-0.2-0.16-0.41-0.31-0.62-0.47c-0.51-0.39-1.02-0.77-1.53-1.16c-0.2-0.14-0.4-0.29-0.6-0.43
				c-0.23-0.17-0.46-0.33-0.68-0.5c-0.16-0.12-0.32-0.23-0.47-0.34c-9.55,6.9-18.08,15.11-25.33,24.36
				c0.13,0.16,0.26,0.32,0.38,0.47c0.29,0.35,0.57,0.71,0.85,1.06c8.95,11.37,15.97,24.34,20.56,38.43
				c3.68,11.28,5.8,23.28,6.1,35.75c0.03,1.28,0.04,2.56,0.03,3.83l0,0.04c-0.01,1.1-0.03,2.2-0.06,3.29l0,0.02
				c-0.21,6.53-0.93,12.94-2.11,19.19c-0.65,3.46-1.45,6.86-2.38,10.22c-1.95,7-4.49,13.76-7.58,20.22
				c-2.54,5.3-5.43,10.4-8.66,15.27c-0.88,1.32-1.77,2.61-2.7,3.9c-0.78,1.08-1.58,2.15-2.39,3.21c-0.22,0.28-0.44,0.56-0.66,0.85
				c0.27,0.34,0.57,0.66,0.85,0.99c9.17-1.36,18.56-2.08,28.11-2.08C7115.96,7162.84,7122.62,7163.2,7129.17,7163.89z"/>
			<path class="st1" d="M7146.76,7019.88L7146.76,7019.88c-0.01,0.01-0.03,0.01-0.04,0.02
				C7146.74,7019.89,7146.75,7019.88,7146.76,7019.88z"/>
			<path class="st1" d="M7184.81,7169.9c0.59-0.01,1.18-0.02,1.77-0.02c1.21,0,2.42,0.02,3.62,0.08c0.6,0.02,1.2,0.06,1.79,0.1
				c11.61,0.79,22.54,4.16,32.2,9.54c6,3.34,11.51,7.46,16.39,12.22c1.08,1.05,2.13,2.14,3.15,3.26c0.14,0.16,0.29,0.31,0.43,0.47
				c0.2-0.09,0.39-0.18,0.59-0.27l0.01,0c3.18-1.45,6.29-3.04,9.32-4.74c0.01,0,0.01-0.01,0.02-0.01c0.47-0.29,0.93-0.58,1.39-0.88
				c-2.49-1.46-4.92-3-7.29-4.62c-6.29-4.3-12.19-9.17-17.59-14.53c-3.56-3.53-6.9-7.28-10.02-11.22c-11.71,6-24.98,9.39-39.04,9.39
				c-13.85,0-26.93-3.29-38.51-9.13c-0.09,0.12-0.18,0.24-0.27,0.36c-0.01,0.01-0.02,0.03-0.04,0.05c-0.01,0.02-0.02,0.03-0.03,0.05
				c-0.01,0.01-0.02,0.03-0.03,0.04l-0.01,0c-0.19,0.26-0.39,0.52-0.59,0.78c-0.13,0.16-0.25,0.32-0.38,0.49
				c-0.18,0.24-0.36,0.47-0.55,0.71c-0.09,0.11-0.18,0.22-0.27,0.34c-0.01,0.02-0.03,0.03-0.04,0.05c-0.04,0.05-0.08,0.1-0.12,0.15
				c-0.17,0.21-0.33,0.42-0.5,0.62c-0.01,0.01-0.01,0.02-0.02,0.03c-0.25,0.3-0.5,0.61-0.75,0.91c0.42,0.46,0.85,0.91,1.27,1.36
				c9.35,1.56,18.46,3.81,27.29,6.69C7173.4,7170.82,7179.02,7170.04,7184.81,7169.9z"/>
			<path class="st1" d="M7284.23,7125.95c-11.8,8.4-25.15,14.81-39.54,18.72c-1.65,0.45-3.31,0.86-4.98,1.24
				c-4.91,4.54-10.35,8.51-16.23,11.81c2.95,3.66,6.09,7.16,9.42,10.47c5.4,5.36,11.29,10.23,17.59,14.53
				c2.37,1.62,4.8,3.16,7.29,4.62c0.02,0.01,0.04,0.03,0.06,0.04c35.27-20.48,59.49-57.69,62.05-100.49c-1.47,2.53-3.03,5-4.67,7.41
				C7306.86,7106.58,7296.36,7117.31,7284.23,7125.95z"/>
			<path class="st1" d="M7320.08,7074.26c-0.6-24.91-8.45-47.94-21.5-67.12c0.74,3.98,1.3,8.04,1.65,12.16
				c0.22,2.59,0.37,5.2,0.43,7.83c0.49,20.38-3.93,39.75-12.18,56.96c-7.85,16.37-19.17,30.78-33.03,42.27
				c-3.63,6.18-8.02,11.86-13.03,16.92c0.75-0.19,1.51-0.39,2.26-0.59c14.4-3.91,27.74-10.32,39.54-18.72
				c12.13-8.63,22.63-19.37,30.99-31.66c1.64-2.41,3.2-4.88,4.67-7.41C7320.1,7081.39,7320.17,7077.84,7320.08,7074.26z"/>
			<path class="st1" d="M7241.09,6965.76c0.25,0.41,0.5,0.83,0.75,1.25c1.6,2.71,3.11,5.48,4.5,8.31
				c5.34,10.8,9.17,22.49,11.2,34.81c0.94,5.7,1.5,11.53,1.64,17.46c0.14,5.9-0.13,11.71-0.79,17.41
				c5.66,11.44,8.85,24.33,8.85,37.96c0,14.11-3.41,27.42-9.45,39.16c11.9-10.82,21.69-23.89,28.71-38.52
				c8.25-17.21,12.67-36.57,12.18-56.96c-0.06-2.64-0.21-5.25-0.43-7.83c-0.36-4.12-0.91-8.18-1.65-12.16
				c-10.46-15.4-24.27-28.31-40.34-37.73c-2.46-1.44-4.97-2.8-7.53-4.07c-2.69-1.34-5.43-2.59-8.23-3.73
				c-1.07-0.44-2.15-0.86-3.24-1.27c0.31,0.45,0.61,0.89,0.91,1.34C7239.18,6962.69,7240.15,6964.22,7241.09,6965.76z"/>
			<path class="st1" d="M7155.78,6964.95c4.9-0.12,9.74,0.05,14.51,0.48c6.45,0.59,12.77,1.67,18.9,3.2
				c1.39,0.35,2.77,0.72,4.14,1.11c7.38,2.12,14.49,4.91,21.25,8.29c5.08,2.54,9.97,5.41,14.62,8.6c9.48,6.48,18.02,14.22,25.39,23
				c-2.03-12.32-5.86-24.01-11.2-34.81c-1.4-2.83-2.9-5.6-4.5-8.31c-0.25-0.41-0.5-0.83-0.75-1.25c-0.94-1.54-1.91-3.06-2.92-4.57
				c-0.3-0.45-0.6-0.9-0.91-1.34c-6.53-2.47-13.33-4.4-20.32-5.74c-2.3-0.44-4.62-0.82-6.96-1.13c-6.46-0.87-13.07-1.24-19.79-1.08
				c-22.59,0.55-43.64,7.06-61.67,18c0.05-0.01,0.1-0.02,0.15-0.04C7135.3,6966.72,7145.37,6965.21,7155.78,6964.95z"/>
			<path class="st1" d="M7151.12,6978.65c5.82,1.46,11.48,3.32,16.96,5.56c1.03,0.42,2.06,0.86,3.08,1.31
				c7.02,3.1,13.71,6.83,19.98,11.12c0.67,0.46,1.33,0.93,1.99,1.4c25.73,3.47,47.83,18.36,61.04,39.4
				c0.12-2.77,0.15-5.56,0.08-8.36c-0.14-5.94-0.7-11.77-1.64-17.46c-7.36-8.78-15.91-16.53-25.39-23
				c-4.66-3.18-9.54-6.06-14.62-8.6c-6.76-3.38-13.87-6.16-21.25-8.29c-1.37-0.39-2.75-0.76-4.14-1.11
				c-6.14-1.53-12.46-2.61-18.9-3.2c-4.77-0.43-9.61-0.6-14.51-0.48c-10.4,0.25-20.47,1.77-30.08,4.4c-0.05,0.01-0.1,0.02-0.15,0.04
				c-0.26,0.15-0.51,0.31-0.76,0.47c-1.78,1-3.54,2.05-5.27,3.13l0.45-0.01C7129.42,6974.71,7140.53,6976,7151.12,6978.65z"/>
			<path class="st1" d="M7137.12,6991.29c4.51,2.33,8.86,4.94,13.04,7.79c1.29,0.88,2.56,1.79,3.81,2.72
				c8.66-2.94,17.94-4.54,27.59-4.54c2.45,0,4.87,0.11,7.27,0.31c-6.04-4.05-12.44-7.6-19.15-10.56c-1.02-0.45-2.04-0.89-3.08-1.31
				c-5.47-2.24-11.13-4.11-16.96-5.56c-10.59-2.65-21.7-3.94-33.13-3.69l-0.45,0.01c-2.26,1.42-4.46,2.9-6.62,4.46
				c0.23,0.06,0.46,0.11,0.69,0.17C7119.6,6983.46,7128.64,6986.9,7137.12,6991.29z"/>
			<path class="st1" d="M7107.94,6982.88c0.52,0.39,1.02,0.77,1.53,1.16c0.21,0.16,0.42,0.31,0.62,0.47c0.43,0.33,0.86,0.67,1.28,1
				c0.19,0.15,0.38,0.3,0.56,0.45c0.14,0.11,0.28,0.22,0.42,0.34c0.23,0.19,0.46,0.38,0.7,0.57c0.99,0.82,1.97,1.65,2.93,2.49
				c0.19,0.15,0.37,0.32,0.55,0.48c0.21,0.18,0.42,0.37,0.63,0.56c0.19,0.17,0.38,0.34,0.58,0.52c0.07,0.06,0.15,0.13,0.22,0.19
				c0.35,0.33,0.71,0.65,1.06,0.98c0.01,0,0.01,0.01,0.02,0.01c0.2,0.19,0.41,0.38,0.61,0.58c0.2,0.19,0.4,0.38,0.59,0.57
				c0.21,0.2,0.42,0.4,0.62,0.6c0.2,0.19,0.4,0.39,0.61,0.59c0.2,0.2,0.4,0.39,0.59,0.59c0.19,0.19,0.38,0.38,0.57,0.57
				c0.27,0.27,0.54,0.54,0.8,0.82l0.21,0.22c0.26,0.27,0.51,0.53,0.76,0.8c0.27,0.28,0.55,0.58,0.82,0.87
				c0.05,0.06,0.1,0.11,0.15,0.16c0.25,0.26,0.49,0.53,0.73,0.79c0.01,0.02,0.02,0.03,0.03,0.04c0.19,0.21,0.38,0.42,0.57,0.62
				c0.21,0.23,0.42,0.47,0.63,0.7s0.42,0.47,0.62,0.7c0.18,0.21,0.37,0.42,0.55,0.63c0.5,0.59,1.01,1.18,1.5,1.78
				c0.16,0.2,0.33,0.4,0.49,0.6c0.18,0.21,0.35,0.42,0.52,0.64c0.18,0.23,0.36,0.45,0.54,0.68c0.15,0.19,0.3,0.38,0.45,0.57
				c0.06,0.08,0.12,0.16,0.18,0.23c0.18,0.22,0.36,0.45,0.53,0.67c0.19,0.25,0.38,0.5,0.57,0.74c0.09,0.12,0.18,0.23,0.27,0.35
				c0.09,0.12,0.18,0.24,0.26,0.36c0.18,0.23,0.36,0.47,0.53,0.71c0.03,0.04,0.05,0.07,0.08,0.11c0.18,0.25,0.36,0.49,0.54,0.74
				c0.15,0.2,0.29,0.4,0.43,0.6c4.93-3.16,10.21-5.82,15.76-7.93c-1.4-1.04-2.81-2.06-4.25-3.04c-4.17-2.85-8.52-5.46-13.04-7.79
				c-8.48-4.39-17.52-7.84-26.98-10.2l-0.22,0.17c0.23,0.17,0.46,0.33,0.68,0.5C7107.54,6982.59,7107.74,6982.74,7107.94,6982.88z"
				/>
			<path class="st1" d="M7243,7197.18c-0.14-0.16-0.29-0.32-0.43-0.47c-1.02-1.12-2.07-2.21-3.15-3.26
				c-4.88-4.76-10.39-8.88-16.39-12.22c-9.66-5.38-20.59-8.75-32.2-9.54c-0.59-0.04-1.19-0.07-1.79-0.1
				c-1.2-0.06-2.41-0.08-3.62-0.08c-0.59,0-1.18,0.01-1.77,0.02c-4.49,0.11-8.87,0.6-13.13,1.44c20.37,6.96,39.18,17.28,55.76,30.32
				C7232.03,7201.64,7237.62,7199.6,7243,7197.18z"/>
		</g>
		<g>
			<path class="st3" d="M7219.62,7194.64c-8.12-7.51-17.95-13.36-29.04-16.86c-0.57-0.18-1.14-0.35-1.71-0.52
				c-1.15-0.34-2.33-0.64-3.5-0.93c-0.58-0.14-1.15-0.27-1.73-0.4c-4.39-0.95-8.76-1.5-13.1-1.69c16.29,7.7,30.71,18.66,42.49,32.03
				c5.05-0.57,10.01-1.46,14.85-2.63C7225.36,7200.44,7222.62,7197.41,7219.62,7194.64z"/>
		</g>
	</g>
	<g>
		<g>
			<path class="st2" d="M7134.27,7445.21c7.87-5.88,16.17-11.19,24.74-16.01c8.58-4.79,17.5-9.06,26.82-12.26
				c4.66-1.59,9.43-2.91,14.3-3.77c2.44-0.42,4.89-0.74,7.36-0.91c2.47-0.15,4.96-0.15,7.44,0.03c4.95,0.37,9.89,1.62,14.36,3.93
				c4.43,2.35,8.33,5.72,11.29,9.76c1.52,1.99,2.79,4.16,3.92,6.39c1.15,2.21,2,4.6,2.98,6.8l1.43,3.36l1.64,3.26l0.82,1.63
				c0.28,0.54,0.61,1.05,0.91,1.58l1.85,3.14c2.64,4.08,5.45,8.06,8.73,11.64c1.56,1.86,3.32,3.54,5.04,5.25
				c0.84,0.88,1.8,1.62,2.7,2.44c0.93,0.78,1.79,1.64,2.77,2.36l2.88,2.23c0.94,0.77,1.99,1.39,2.98,2.09
				c1.97,1.42,4.08,2.62,6.16,3.86c4.24,2.34,8.6,4.49,13.16,6.13c9.06,3.46,18.67,5.33,28.32,5.88c9.66,0.51,19.38-0.53,28.75-2.85
				c9.35-2.44,18.32-6.22,26.6-11.18c8.28-5.01,15.58-11.32,22.66-18.1c7.08-6.73,13.89-13.76,20.6-20.91
				c6.7-7.15,13.29-14.43,19.96-21.67c6.67-7.23,13.39-14.46,20.57-21.34c3.6-3.43,7.31-6.78,11.34-9.86
				c4.04-3.04,8.33-5.97,13.56-7.73c1.3-0.45,2.69-0.74,4.12-0.94c1.45-0.14,2.94-0.19,4.45,0.06c3.02,0.46,5.92,1.99,8,4.01
				c2.12,2.01,3.66,4.35,4.9,6.71c1.24,2.38,2.18,4.81,3,7.26c0.53,1.57-0.32,3.27-1.89,3.8s-3.27-0.32-3.8-1.89
				c0-0.01,0-0.01-0.01-0.02l-0.02-0.06c-0.71-2.22-1.53-4.38-2.53-6.38c-1-1.99-2.22-3.81-3.65-5.2c-0.34-0.38-0.75-0.63-1.11-0.96
				c-0.41-0.24-0.77-0.56-1.2-0.74c-0.81-0.47-1.7-0.71-2.61-0.89c-0.92-0.17-1.9-0.15-2.89-0.07c-1,0.14-2.03,0.32-3.06,0.67
				c-4.15,1.31-8.18,3.89-11.99,6.71c-3.82,2.84-7.46,6.04-11.01,9.34c-7.1,6.63-13.86,13.72-20.6,20.84
				c-6.73,7.14-13.43,14.34-20.26,21.44c-6.83,7.1-13.79,14.1-21.04,20.82c-3.65,3.35-7.27,6.67-11.23,9.77c-1.9,1.63-4,3-6.02,4.48
				c-1,0.76-2.08,1.38-3.14,2.06l-3.18,2c-8.65,5.04-18,8.84-27.71,11.24c-9.73,2.28-19.78,3.22-29.73,2.57
				c-9.95-0.69-19.82-2.75-29.09-6.43c-4.67-1.75-9.12-4.01-13.44-6.47c-2.12-1.3-4.27-2.56-6.27-4.04c-1-0.73-2.07-1.38-3.02-2.18
				l-2.92-2.32c-1-0.75-1.87-1.64-2.81-2.45c-0.91-0.85-1.88-1.63-2.73-2.54c-1.74-1.78-3.52-3.52-5.09-5.45
				c-3.31-3.71-6.14-7.82-8.78-12.02l-1.84-3.23c-0.3-0.54-0.63-1.07-0.91-1.62l-0.82-1.67l-1.63-3.35l-1.41-3.44
				c-0.98-2.3-1.76-4.56-2.85-6.73c-1.07-2.16-2.26-4.27-3.7-6.21c-2.79-3.93-6.47-7.19-10.69-9.49c-4.25-2.26-9.01-3.54-13.84-3.97
				c-2.42-0.21-4.85-0.24-7.29-0.13c-2.43,0.14-4.86,0.42-7.27,0.8c-4.82,0.79-9.57,2.04-14.22,3.56
				c-9.31,3.06-18.25,7.2-26.88,11.87C7150.58,7434.23,7142.21,7439.43,7134.27,7445.21z"/>
			<g>
				<path class="st2" d="M7137,7448.8c-1.98,1.51-4.81,1.12-6.32-0.86c-1.51-1.98-1.12-4.81,0.86-6.32
					c1.98-1.51,4.81-1.12,6.32,0.86C7139.37,7444.46,7138.98,7447.29,7137,7448.8z"/>
			</g>
		</g>
	</g>
</g>
</svg>
