<?xml version="1.0" encoding="utf-8"?>
<!-- Generator: Adobe Illustrator 25.3.0, SVG Export Plug-In . SVG Version: 6.00 Build 0)  -->
<svg version="1.1" id="Layer_1" xmlns="http://www.w3.org/2000/svg" xmlns:xlink="http://www.w3.org/1999/xlink" x="0px" y="0px"
	 viewBox="0 0 638 638" style="enable-background:new 0 0 638 638;" xml:space="preserve">
<style type="text/css">
	.st0{fill:none;stroke:#F48420;stroke-width:6;stroke-linecap:round;stroke-miterlimit:10;}
	.st1{fill:#010101;}
	.st2{fill:#F48420;}
</style>
<g>
	<path class="st0" d="M120.59,632C57.3,632,6,580.7,6,517.41V120.59C6,57.3,57.3,6,120.59,6h396.83C580.7,6,632,57.3,632,120.59
		v396.83"/>
	<g>
		<g>
			<path class="st1" d="M205.83,295.75c-0.02-0.02-0.03-0.03-0.05-0.05l0,0C205.79,295.71,205.81,295.73,205.83,295.75z"/>
			<polygon class="st1" points="205.88,295.8 205.88,295.8 205.89,295.8 205.83,295.75 205.89,295.8 			"/>
			<path class="st1" d="M214.48,300.64c1.76,0.24,3.53,0.51,5.28,0.82c4.64,0.82,9.24,1.91,13.77,3.25
				c0.01-0.01,0.02-0.02,0.03-0.02c5.82-5.58,12.52-10.27,19.87-13.82c0.1-0.05,0.19-0.09,0.29-0.14c1.55-0.74,3.13-1.44,4.74-2.07
				c-2.81-0.6-5.64-1.1-8.48-1.51c-0.18-0.03-0.36-0.05-0.54-0.08c-4.22-0.59-8.47-0.96-12.74-1.11c-1.52-0.05-3.05-0.08-4.57-0.08
				c-3.71,3.74-7.65,7.24-11.81,10.49C218.42,297.84,216.47,299.27,214.48,300.64z"/>
			<path class="st1" d="M219.29,296.19c4.15-3.25,8.1-6.75,11.81-10.49c-1,0-1.99,0.01-2.99,0.04c-0.26,0.01-0.52,0.01-0.78,0.02
				c-0.26,0.01-0.52,0.02-0.78,0.03l-0.01,0c-0.23,0.01-0.45,0.02-0.68,0.03c-0.26,0.01-0.52,0.02-0.77,0.03
				c-0.34,0.02-0.69,0.03-1.03,0.05c-0.22,0.01-0.44,0.03-0.67,0.04c-0.24,0.01-0.49,0.03-0.73,0.05c-0.21,0.01-0.42,0.03-0.63,0.04
				l0,0c-0.14,0.01-0.29,0.02-0.43,0.03c-0.02,0-0.05,0-0.07,0c-0.17,0.01-0.33,0.03-0.5,0.04c-0.15,0.01-0.31,0.02-0.46,0.04
				c-0.03,0-0.07,0.01-0.1,0.01c-0.21,0.02-0.42,0.04-0.63,0.06c-0.27,0.02-0.53,0.05-0.8,0.08c-0.38,0.04-0.76,0.08-1.14,0.12
				c-0.52,0.06-1.05,0.12-1.57,0.18c0,0-0.01,0-0.01,0c-0.17,0.02-0.35,0.04-0.52,0.06c-0.01,0-0.02,0-0.03,0
				c-0.12,0.01-0.24,0.03-0.35,0.05c-0.4,0.05-0.81,0.1-1.21,0.16c-0.18,0.02-0.36,0.05-0.55,0.07c-0.05,0.01-0.09,0.01-0.14,0.02
				c-0.17,0.03-0.35,0.05-0.52,0.08c-0.41,0.06-0.82,0.12-1.23,0.19c-0.19,0.03-0.38,0.06-0.58,0.09c-0.2,0.03-0.4,0.07-0.6,0.1
				c-0.3,0.05-0.6,0.1-0.9,0.15c-0.3,0.05-0.6,0.11-0.9,0.16c-0.24,0.04-0.48,0.09-0.71,0.13c-0.24,0.05-0.48,0.09-0.71,0.14
				c-0.01,0-0.02,0-0.03,0c-0.23,0.05-0.47,0.09-0.7,0.14c-0.28,0.06-0.56,0.11-0.84,0.17c-0.19,0.04-0.39,0.08-0.58,0.12
				c-0.25,0.05-0.49,0.11-0.74,0.16c-0.48,0.11-0.96,0.21-1.43,0.32l0,0c0,0,0,0-0.01,0c3.71,3.63,7.2,7.49,10.44,11.56
				C215.44,299.1,217.39,297.67,219.29,296.19z"/>
			<path class="st1" d="M331.71,489.8L331.71,489.8c5.99-7.38,11.05-15.35,15.15-23.73c1.59-3.25,3.03-6.57,4.33-9.94l0,0
				c2.08-5.39,3.78-10.92,5.09-16.54c0.8-3.41,1.45-6.86,1.96-10.33c-0.49,2.09-1.07,4.14-1.73,6.16c-1.41,4.32-3.19,8.48-5.3,12.43
				c-7.86,14.69-20.34,26.57-35.55,33.65c-4.52,9.47-10.2,18.29-16.84,26.27C311.32,504.54,322.55,498.27,331.71,489.8z"/>
			<path class="st1" d="M276.45,529.85c3.61-1.28,7.19-2.74,10.71-4.38c6.41-2.97,12.64-6.54,18.65-10.7
				c9.97-6.91,18.63-15.01,25.91-23.99c-9.43,8.71-21.04,15.1-33.95,18.26c-1.12,1.31-2.27,2.6-3.44,3.86
				C289.02,519.03,283.06,524.72,276.45,529.85z"/>
			<path class="st1" d="M343.91,416.79c3.1-3.22,5.93-6.7,8.44-10.41c-7.1-22.02-23.79-39.64-45.05-48.08
				c6.08,9.26,10.98,19.37,14.47,30.12C331.2,395.96,338.84,405.65,343.91,416.79z"/>
			<path class="st1" d="M327.87,429.73c5.71-3.4,10.93-7.53,15.52-12.28c-4.82-10.59-12.06-19.83-20.99-27.04
				c3.58,11.67,5.5,24.07,5.5,36.91C327.9,428.13,327.89,428.93,327.87,429.73z"/>
			<path class="st1" d="M349.26,432.97c-6.46,8.75-14.74,16.09-24.29,21.47c-1.98,9-4.92,17.65-8.71,25.81
				c14.94-7.12,27.2-18.88,34.96-33.38c2.11-3.95,3.89-8.11,5.3-12.43c0.66-2.02,1.23-4.07,1.73-6.16c0,0,0,0,0,0
				c0.19-1.28,0.36-2.56,0.51-3.85c0-0.01,0-0.01,0-0.02c0.22-3.06,0.33-6.14,0.32-9.22c-0.94,2.4-1.99,4.73-3.15,7
				C354,425.97,351.76,429.57,349.26,432.97z"/>
			<path class="st1" d="M349.41,431.97c2.51-3.39,4.74-7,6.67-10.78c1.16-2.27,2.21-4.61,3.15-7l0-0.01
				c-0.01-5.25-0.35-10.51-1.03-15.75c-1.54,3.1-3.28,6.08-5.2,8.93c-2.51,3.71-5.34,7.2-8.44,10.41
				c-4.92,5.1-10.54,9.52-16.71,13.12c-0.21,7.69-1.12,15.22-2.66,22.51C334.71,448.02,342.97,440.7,349.41,431.97z"/>
			<path class="st1" d="M244.86,280.03c-0.01,0.01-0.02,0.02-0.03,0.04l0.01,0C244.85,280.06,244.86,280.04,244.86,280.03z"/>
			<polygon class="st1" points="205.78,295.7 205.78,295.7 205.83,295.75 			"/>
			<path class="st1" d="M205.88,295.8L205.88,295.8c-0.02-0.02-0.04-0.03-0.05-0.05C205.85,295.77,205.86,295.78,205.88,295.8z"/>
			<path class="st1" d="M205.88,295.8C205.88,295.8,205.88,295.8,205.88,295.8l-0.05-0.05l-0.06-0.05c0.02,0.02,0.04,0.03,0.05,0.05
				C205.85,295.77,205.86,295.78,205.88,295.8z"/>
			<path class="st1" d="M306.69,357.38c21.78,8.26,38.93,26.11,46.15,48.51c1.93-2.85,3.67-5.83,5.2-8.93
				c-0.88-6.8-2.32-13.56-4.34-20.22c-0.01-0.01-0.01-0.01-0.01-0.01c-0.23-0.52-0.47-1.05-0.71-1.56
				c-0.04-0.08-0.07-0.16-0.11-0.23c-0.23-0.5-0.48-1-0.72-1.49c-0.27-0.54-0.55-1.08-0.83-1.61c-0.28-0.53-0.57-1.06-0.87-1.59
				c-0.39-0.7-0.8-1.4-1.21-2.08c-0.56-0.93-1.14-1.85-1.74-2.75c-0.23-0.35-0.47-0.7-0.7-1.04c-0.28-0.41-0.57-0.82-0.86-1.23
				c-0.37-0.51-0.74-1.02-1.12-1.52c-0.37-0.5-0.75-0.99-1.14-1.47c-0.35-0.45-0.72-0.9-1.08-1.34c-0.04-0.06-0.09-0.11-0.13-0.16
				c-0.32-0.38-0.64-0.76-0.97-1.14c-0.13-0.16-0.27-0.31-0.4-0.46c-0.33-0.38-0.68-0.77-1.02-1.14c-0.41-0.46-0.84-0.91-1.27-1.36
				c-0.43-0.44-0.86-0.89-1.3-1.32c-0.03-0.03-0.06-0.06-0.09-0.09c-0.37-0.37-0.75-0.74-1.14-1.1c-0.07-0.07-0.15-0.14-0.22-0.21
				c-0.41-0.39-0.83-0.77-1.25-1.15c-0.44-0.4-0.89-0.8-1.35-1.18c-0.45-0.39-0.91-0.77-1.37-1.15c-0.61-0.51-1.24-1-1.87-1.49
				c-0.52-0.4-1.04-0.79-1.56-1.17c-0.44-0.32-0.89-0.64-1.33-0.96c-0.41-0.29-0.83-0.57-1.24-0.85c-0.2-0.14-0.4-0.27-0.6-0.4
				c-0.38-0.25-0.76-0.5-1.15-0.75c-0.68-0.43-1.36-0.84-2.05-1.25c-0.35-0.2-0.69-0.4-1.04-0.6c-0.27-0.16-0.54-0.31-0.81-0.45
				c-0.24-0.14-0.48-0.27-0.73-0.4c-0.3-0.16-0.6-0.33-0.91-0.48c-0.31-0.16-0.63-0.33-0.94-0.48c-0.25-0.13-0.5-0.26-0.75-0.37
				c-0.31-0.16-0.63-0.31-0.94-0.45c-0.28-0.14-0.56-0.27-0.83-0.39c-0.91-0.42-1.83-0.83-2.75-1.21c-0.75-0.31-1.5-0.61-2.26-0.89
				c-0.42-0.16-0.85-0.32-1.28-0.47c-0.41-0.15-0.83-0.29-1.24-0.44c-0.3-0.1-0.61-0.2-0.92-0.3c-0.26-0.08-0.52-0.17-0.78-0.25
				c-0.29-0.1-0.58-0.18-0.87-0.27c-1.79-0.54-3.61-1-5.45-1.41c-0.81-0.18-1.61-0.34-2.42-0.49c-0.82-0.15-1.63-0.29-2.45-0.42
				c-3.92-0.6-7.95-0.9-12.03-0.89C291.99,338.49,300.03,347.43,306.69,357.38z"/>
			<path class="st1" d="M282.33,329.34L282.33,329.34c4.1-0.01,8.12,0.29,12.05,0.89c0.82,0.13,1.64,0.27,2.45,0.42
				c0.81,0.15,1.62,0.31,2.42,0.49c1.84,0.4,3.65,0.87,5.45,1.41c0.29,0.09,0.58,0.17,0.87,0.27c0.26,0.08,0.53,0.16,0.78,0.25
				c0.31,0.1,0.62,0.2,0.92,0.3c0.42,0.14,0.83,0.29,1.24,0.44c0.43,0.15,0.86,0.31,1.28,0.47c0.76,0.28,1.51,0.58,2.26,0.89
				c0.92,0.38,1.84,0.79,2.75,1.21c0.28,0.12,0.56,0.25,0.83,0.39c0.32,0.15,0.63,0.3,0.94,0.45c0.25,0.12,0.5,0.24,0.75,0.37
				c0.32,0.16,0.63,0.32,0.94,0.48c0.31,0.16,0.61,0.32,0.91,0.48c0.24,0.12,0.48,0.26,0.73,0.4c0.27,0.15,0.54,0.29,0.81,0.45
				c0.35,0.2,0.7,0.4,1.04,0.6c0.69,0.41,1.37,0.83,2.05,1.25c0.39,0.25,0.77,0.49,1.15,0.75c0.2,0.13,0.4,0.26,0.6,0.4
				c0.42,0.28,0.83,0.56,1.24,0.85c0.45,0.31,0.89,0.63,1.33,0.96c0.53,0.38,1.05,0.77,1.56,1.17c0.63,0.48,1.26,0.98,1.87,1.49
				c0.46,0.38,0.92,0.76,1.37,1.15c0.45,0.39,0.91,0.78,1.35,1.18c0.42,0.38,0.84,0.76,1.25,1.15c0.08,0.07,0.15,0.14,0.22,0.21
				c0.38,0.36,0.76,0.73,1.14,1.1c0.03,0.03,0.06,0.06,0.09,0.09c0.44,0.43,0.87,0.88,1.3,1.32c0.43,0.44,0.86,0.9,1.27,1.36
				c0.35,0.38,0.69,0.76,1.02,1.14c0.13,0.15,0.27,0.3,0.4,0.46c0.33,0.38,0.65,0.76,0.97,1.14c0.04,0.06,0.09,0.11,0.13,0.16
				c0.37,0.44,0.73,0.89,1.08,1.34c0.39,0.49,0.77,0.98,1.14,1.47c0.38,0.5,0.75,1.01,1.12,1.52c0.29,0.41,0.58,0.82,0.86,1.23
				c0.24,0.34,0.47,0.69,0.7,1.04c0.6,0.9,1.18,1.82,1.74,2.75c0.41,0.68,0.82,1.38,1.21,2.08c0.3,0.53,0.59,1.05,0.87,1.59
				c0.29,0.53,0.56,1.07,0.83,1.61c0.24,0.49,0.49,0.99,0.72,1.49c0.04,0.07,0.08,0.15,0.11,0.23c0.25,0.52,0.48,1.04,0.71,1.56
				c-3.68-12.11-9.28-23.86-16.87-34.81c-2.89-4.18-5.99-8.11-9.28-11.82c-2.43-2.74-4.96-5.36-7.59-7.84
				c-0.3-0.29-0.61-0.57-0.91-0.85c-0.49-0.45-0.98-0.9-1.46-1.34c-0.03-0.03-0.06-0.06-0.09-0.08c-2.66-2.38-5.4-4.64-8.22-6.76
				c-1.86-1.4-3.74-2.74-5.67-4.02c-5.9-1.28-12.06-1.9-18.36-1.74c-2.26,0.05-4.49,0.21-6.69,0.45c-0.79,0.09-1.57,0.19-2.35,0.3
				c-0.94,0.13-1.87,0.28-2.8,0.45c-3.27,0.59-6.47,1.38-9.58,2.36c-3.01,0.95-5.93,2.08-8.76,3.38
				c9.53,4.38,18.42,9.92,26.49,16.44C281.48,329.35,281.9,329.34,282.33,329.34z"/>
			<path class="st1" d="M254.15,291.06c-7.36,3.55-14.05,8.24-19.87,13.82c0.04,0.03,0.08,0.05,0.13,0.07
				c3.3,0.98,6.55,2.1,9.76,3.35c3.21,1.25,6.37,2.63,9.48,4.15c2.92-1.35,5.95-2.53,9.06-3.51c3.11-0.98,6.31-1.77,9.58-2.36
				c0.93-0.16,1.86-0.32,2.8-0.45c0.78-0.11,1.56-0.21,2.35-0.3c2.21-0.25,4.44-0.4,6.69-0.45c6.31-0.15,12.46,0.46,18.36,1.74
				c-6.02-4.03-12.35-7.49-18.9-10.38c-3.94-1.74-7.95-3.27-12.02-4.59c-4.08-1.32-8.22-2.43-12.4-3.33
				c-1.61,0.64-3.19,1.33-4.74,2.08C254.34,290.96,254.25,291.01,254.15,291.06z"/>
		</g>
		<g>
			<path class="st2" d="M248.86,457.19c0.01,0.01,0.01,0.02,0.01,0.03c0.07,0.15,0.14,0.29,0.21,0.44c0.06,0.14,0.13,0.28,0.19,0.42
				c0.02,0.03,0.04,0.06,0.04,0.09c0.05,0.11,0.1,0.21,0.14,0.32c0.03,0.06,0.05,0.12,0.08,0.18c0.04,0.1,0.09,0.21,0.13,0.31
				c0.01,0.04,0.03,0.08,0.04,0.12c0.06,0.13,0.11,0.26,0.16,0.39c0.05,0.12,0.09,0.24,0.14,0.36c0.06,0.15,0.11,0.3,0.17,0.46
				c0.03,0.07,0.06,0.15,0.09,0.23c0.04,0.12,0.09,0.24,0.12,0.36c0.28,0.8,0.53,1.61,0.74,2.42c0.04,0.15,0.07,0.3,0.11,0.46
				c0.01,0.01,0.01,0.03,0.01,0.05c0.04,0.16,0.08,0.32,0.11,0.48c0.02,0.09,0.05,0.19,0.07,0.28c0.03,0.12,0.05,0.25,0.08,0.37
				c0.04,0.18,0.08,0.35,0.11,0.53c0.03,0.16,0.06,0.33,0.09,0.5c0.01,0.03,0.01,0.06,0.02,0.09c0.03,0.14,0.05,0.28,0.08,0.42
				c0,0.03,0.01,0.07,0.02,0.11c0.02,0.16,0.06,0.32,0.08,0.48c0.02,0.14,0.03,0.27,0.06,0.4c0.01,0.09,0.02,0.19,0.03,0.28
				c0.02,0.16,0.04,0.32,0.06,0.47c0.02,0.13,0.03,0.26,0.04,0.4c0.01,0.04,0.01,0.08,0.02,0.12c0.02,0.17,0.03,0.34,0.05,0.51
				c0.01,0.11,0.02,0.23,0.03,0.35c0.01,0.09,0.01,0.2,0.02,0.29c0.01,0.18,0.02,0.35,0.03,0.53c0.02,0.34,0.03,0.7,0.04,1.05
				l0.01,0.45c0,0.07,0,0.14,0,0.2c0,0.14,0.01,0.28,0,0.41c0,0.12,0,0.25,0,0.37c0,0.03,0,0.07,0,0.1
				c-0.01,0.34-0.02,0.68-0.04,1.02c0,0.04,0,0.09,0,0.13c0,0.09-0.01,0.2-0.01,0.29c-0.01,0.03-0.01,0.07-0.01,0.1
				c0,0.16-0.02,0.33-0.03,0.49c-0.02,0.17-0.03,0.34-0.05,0.5c0,0.11-0.02,0.22-0.03,0.33c0,0.07-0.02,0.15-0.03,0.22
				c-0.01,0.12-0.02,0.25-0.04,0.37c-0.01,0.05-0.01,0.09-0.02,0.14c-0.01,0.12-0.03,0.24-0.05,0.36c0,0.02-0.01,0.04-0.01,0.06
				c-0.01,0.08-0.02,0.16-0.03,0.24c-0.08,0.56-0.17,1.13-0.28,1.69c0.21-0.01,0.42-0.03,0.63-0.03c0.11,0,0.21,0.01,0.32,0.02
				c0.09-0.48,0.17-0.96,0.24-1.45c0.01-0.08,0.02-0.16,0.03-0.24c0-0.02,0.01-0.04,0.01-0.06c0.02-0.12,0.03-0.24,0.05-0.36
				c0.01-0.05,0.01-0.09,0.02-0.14c0.02-0.12,0.03-0.24,0.04-0.37c0.01-0.07,0.02-0.15,0.03-0.22c0.01-0.11,0.02-0.22,0.03-0.33
				c0.02-0.16,0.03-0.33,0.05-0.5c0.01-0.16,0.03-0.33,0.03-0.49c0.01-0.03,0.01-0.06,0.01-0.1c0-0.09,0.01-0.2,0.01-0.29
				c0.01-0.04,0-0.09,0-0.13c0.02-0.35,0.03-0.68,0.04-1.02c0.01-0.03,0.01-0.07,0-0.1c0-0.12,0-0.25,0-0.37c0-0.14,0-0.28,0-0.41
				c0.01-0.07,0-0.14,0-0.2l-0.01-0.45c0,0.2,0.02,0.41,0.02,0.62c0,0.13,0.01,0.25,0.02,0.37c0.01,0.1,0.01,0.2,0.02,0.3
				c0.01,0.2,0.02,0.39,0.03,0.57c0.03,0.3,0.06,0.6,0.08,0.9c0,0.01,0,0.03,0.01,0.04c0.01,0.13,0.03,0.26,0.04,0.38
				c0.05,0.45,0.11,0.88,0.18,1.33c0.02,0.1,0.03,0.2,0.05,0.3c0.02,0.09,0.02,0.18,0.04,0.26c0.08,0.44,0.16,0.88,0.25,1.31
				c0.02,0.11,0.05,0.22,0.08,0.32c0,0.01,0,0.01,0,0.01c0.03,0.15,0.06,0.3,0.1,0.44c0.02,0.08,0.04,0.15,0.06,0.23
				c0.21,0.04,0.42,0.09,0.63,0.15c-0.03-0.13-0.06-0.27-0.1-0.41c-0.04-0.15-0.07-0.3-0.1-0.44c0-0.01,0-0.01,0-0.01
				c-0.03-0.11-0.05-0.22-0.08-0.32c-0.09-0.44-0.17-0.87-0.25-1.31c-0.02-0.09-0.02-0.18-0.04-0.26c-0.02-0.09-0.03-0.2-0.05-0.3
				c-0.07-0.45-0.13-0.88-0.18-1.33c-0.01-0.13-0.03-0.26-0.04-0.38c-0.01-0.01-0.01-0.03-0.01-0.04c-0.03-0.3-0.05-0.59-0.08-0.9
				c-0.01-0.19-0.02-0.38-0.03-0.57c-0.01-0.1-0.01-0.2-0.02-0.3c0-0.12-0.01-0.24-0.02-0.37c0-0.2-0.02-0.41-0.02-0.62
				c-0.07-2.9,0.21-5.73,0.82-8.45c0.48-2.16,1.16-4.26,2.01-6.26c0.17-0.41,0.35-0.8,0.54-1.2c-0.38,0.03-0.76,0.07-1.14,0.1
				c-0.18,0.37-0.35,0.75-0.51,1.13c-0.86,2-1.54,4.09-2.01,6.26c-0.6,2.72-0.89,5.54-0.82,8.45c-0.01-0.36-0.02-0.71-0.04-1.05
				c-0.01-0.18-0.02-0.35-0.03-0.53c-0.01-0.09-0.01-0.2-0.02-0.29c-0.01-0.12-0.02-0.24-0.03-0.35c-0.02-0.18-0.03-0.34-0.05-0.51
				c-0.01-0.04-0.01-0.08-0.02-0.12c-0.01-0.14-0.03-0.26-0.04-0.4c-0.02-0.16-0.03-0.32-0.06-0.47c-0.01-0.09-0.02-0.18-0.03-0.28
				c-0.02-0.13-0.04-0.27-0.06-0.4c-0.02-0.16-0.06-0.32-0.08-0.48c-0.01-0.04-0.02-0.08-0.02-0.11c-0.02-0.14-0.05-0.28-0.08-0.42
				c0-0.03-0.01-0.06-0.02-0.09c-0.03-0.17-0.06-0.34-0.09-0.5c-0.03-0.18-0.07-0.36-0.11-0.53c-0.03-0.12-0.05-0.25-0.08-0.37
				c-0.02-0.09-0.05-0.19-0.07-0.28c-0.03-0.16-0.08-0.32-0.11-0.48c-0.01-0.01-0.01-0.03-0.01-0.05c-0.04-0.15-0.07-0.3-0.11-0.46
				c-0.22-0.81-0.47-1.62-0.74-2.42c-0.04-0.12-0.08-0.24-0.12-0.36c-0.03-0.08-0.06-0.16-0.09-0.23c-0.06-0.15-0.11-0.31-0.17-0.46
				c-0.05-0.12-0.09-0.24-0.14-0.36c-0.05-0.13-0.1-0.26-0.16-0.39c-0.01-0.04-0.03-0.08-0.04-0.12c-0.04-0.1-0.09-0.21-0.13-0.31
				c-0.03-0.06-0.05-0.12-0.08-0.18c-0.04-0.11-0.09-0.21-0.14-0.32c-0.01-0.03-0.02-0.06-0.04-0.09c-0.06-0.14-0.12-0.28-0.19-0.42
				c-0.07-0.15-0.14-0.29-0.21-0.44c-0.01-0.01-0.01-0.02-0.01-0.03c-0.06-0.13-0.12-0.25-0.19-0.38c-0.1-0.19-0.2-0.39-0.3-0.59
				c-0.02-0.05-0.05-0.09-0.07-0.14c-0.09,0-0.17,0.01-0.26,0.01c0.08,0.16,0.17,0.33,0.25,0.49
				C248.74,456.94,248.8,457.06,248.86,457.19z"/>
			<path class="st2" d="M254,478.47c0-0.01,0-0.01,0-0.01c-0.03-0.11-0.05-0.22-0.08-0.32c-0.09-0.44-0.17-0.87-0.25-1.31
				c-0.02-0.09-0.02-0.18-0.04-0.26c-0.02-0.09-0.03-0.2-0.05-0.3c-0.07-0.45-0.13-0.88-0.18-1.33c-0.01-0.13-0.03-0.26-0.04-0.38
				c-0.01-0.01-0.01-0.03-0.01-0.04c-0.03-0.3-0.05-0.59-0.08-0.9c-0.01-0.19-0.02-0.38-0.03-0.57c-0.01-0.1-0.01-0.2-0.02-0.3
				c0-0.12-0.01-0.24-0.02-0.37c0-0.2-0.02-0.41-0.02-0.62l0.01,0.45c0,0.07,0,0.14,0,0.2c0,0.14,0.01,0.28,0,0.41
				c0,0.12,0,0.25,0,0.37c0,0.03,0,0.07,0,0.1c-0.01,0.34-0.02,0.68-0.04,1.02c0,0.04,0,0.09,0,0.13c0,0.09-0.01,0.2-0.01,0.29
				c-0.01,0.03-0.01,0.07-0.01,0.1c0,0.16-0.02,0.33-0.03,0.49c-0.02,0.17-0.03,0.34-0.05,0.5c0,0.11-0.02,0.22-0.03,0.33
				c0,0.07-0.02,0.15-0.03,0.22c-0.01,0.12-0.02,0.25-0.04,0.37c-0.01,0.05-0.01,0.09-0.02,0.14c-0.01,0.12-0.03,0.24-0.05,0.36
				c0,0.02-0.01,0.04-0.01,0.06c-0.01,0.08-0.02,0.16-0.03,0.24c-0.07,0.48-0.15,0.96-0.24,1.45c0.52,0.02,1.04,0.07,1.54,0.16
				c-0.02-0.08-0.04-0.15-0.06-0.23C254.07,478.76,254.04,478.62,254,478.47z"/>
			<path class="st2" d="M252.3,549.31c-0.56-2.82-1.04-5.68-1.43-8.57c-0.44-3.18-0.77-6.38-1-9.63c-0.03-0.43-0.06-0.86-0.09-1.28
				c-0.03-0.43-0.05-0.87-0.08-1.3c-0.02-0.42-0.04-0.84-0.06-1.25c-0.02-0.43-0.04-0.86-0.06-1.29l0.01,0.36
				c0.04,1.79-0.05,3.55-0.26,5.29c-0.35,2.77-1.03,5.45-1.98,7.98c-0.16,0.42-0.33,0.84-0.5,1.25c1.26,3.56,2.4,7.18,3.39,10.86
				c0.95,3.5,1.77,7.05,2.46,10.65c0.17,0.9,0.33,1.8,0.49,2.7c0.12,0.68,0.24,1.37,0.35,2.06c0.07-0.65,0.14-1.3,0.22-1.95
				c0.24-1.98,0.53-3.95,0.85-5.91c-0.01-0.01-0.01-0.02-0.01-0.03C253.73,555.98,252.96,552.67,252.3,549.31z"/>
			<path class="st2" d="M252.7,498.93c-0.09,0.6-0.17,1.21-0.25,1.81c-0.03,0.24-0.06,0.48-0.09,0.73
				c-0.09,0.64-0.16,1.28-0.23,1.93c-0.07,0.59-0.13,1.19-0.19,1.78l0,0.03c-0.03,0.33-0.07,0.66-0.1,1
				c-0.04,0.37-0.07,0.73-0.1,1.1c-0.03,0.37-0.06,0.73-0.09,1.1l0,0.01c-0.03,0.35-0.06,0.71-0.08,1.07
				c-0.01,0.23-0.03,0.47-0.04,0.7c-0.02,0.31-0.04,0.6-0.06,0.9c-0.01,0.03-0.01,0.07,0,0.1c-0.02,0.27-0.03,0.55-0.05,0.83
				c0,0.11-0.01,0.22-0.02,0.34c0,0.12-0.01,0.22-0.02,0.34l-0.01,0.26c-0.01,0.29-0.03,0.59-0.04,0.89l0,0.06
				c-0.01,0.16-0.01,0.32-0.02,0.47c-0.01,0.28-0.02,0.56-0.03,0.83c-0.01,0.33-0.02,0.66-0.03,0.98c-0.01,0.31-0.01,0.62-0.02,0.93
				c-0.01,0.18-0.01,0.35-0.01,0.53c0,0.42-0.01,0.84-0.02,1.26c0,0.42,0,0.84,0,1.26c0,0.19,0,0.39,0,0.58l0,0.05
				c0,0.32,0,0.64,0.01,0.96c0,0.08,0,0.16,0,0.25l0.01,0.37c0,0.08,0,0.16,0,0.24l0.05,2.17c0.01,0.26,0.02,0.51,0.03,0.77
				c0.01,0.26,0.02,0.51,0.03,0.77c0.02,0.41,0.03,0.83,0.06,1.24c0.02,0.42,0.04,0.83,0.06,1.25c0.01,0.26,0.03,0.52,0.05,0.78
				c0.03,0.44,0.05,0.87,0.09,1.31c0.08,1.08,0.17,2.16,0.27,3.23c0.01,0.12,0.02,0.24,0.04,0.35c0.04,0.44,0.08,0.88,0.13,1.32
				c0.03,0.28,0.06,0.56,0.09,0.84c0.05,0.51,0.11,1.03,0.17,1.55c0.03,0.26,0.07,0.52,0.1,0.78c0.03,0.26,0.07,0.51,0.1,0.78
				c0.03,0.26,0.07,0.51,0.1,0.77c0.03,0.26,0.07,0.51,0.11,0.77c0.03,0.22,0.06,0.45,0.1,0.67c0.06,0.42,0.12,0.83,0.19,1.24
				c0.03,0.21,0.06,0.41,0.1,0.62c0.03,0.2,0.06,0.4,0.1,0.61c0.02,0.18,0.06,0.36,0.09,0.53c0.05,0.3,0.1,0.61,0.16,0.91
				c0.05,0.31,0.1,0.61,0.16,0.92c0.01,0.02,0.01,0.04,0.01,0.05c0.01,0.05,0.02,0.1,0.02,0.15c0.04,0.2,0.08,0.4,0.11,0.61
				c0.05,0.25,0.1,0.5,0.15,0.75c0.04,0.21,0.08,0.42,0.12,0.63c0.01,0.04,0.02,0.08,0.02,0.12c0.04,0.2,0.08,0.4,0.12,0.61
				c0.05,0.22,0.08,0.43,0.13,0.65c0.24,1.16,0.49,2.32,0.76,3.47c0.15-0.71,0.29-1.44,0.45-2.15c0.05-0.24,0.1-0.48,0.16-0.71
				c0.04-0.19,0.08-0.37,0.12-0.56c0.04-0.18,0.09-0.37,0.13-0.56c0.06-0.27,0.12-0.52,0.18-0.79c0.08-0.33,0.15-0.65,0.23-0.98
				c0.17-0.69,0.35-1.39,0.52-2.08c0.06-0.23,0.12-0.47,0.19-0.7c0.12-0.47,0.25-0.94,0.38-1.4c0.06-0.24,0.12-0.47,0.19-0.7
				c0.06-0.23,0.13-0.46,0.2-0.7c0.12-0.42,0.24-0.83,0.36-1.25c-0.09-0.16-0.17-0.32-0.25-0.48c-2.27-4.48-3.61-9.52-3.75-14.87
				l0-0.11c-0.09-3.69,0.39-7.27,1.37-10.64c1.73-5.96,5-11.29,9.37-15.5c-0.17-0.14-0.35-0.3-0.53-0.44l-0.02-0.02
				c-0.13-0.11-0.26-0.22-0.38-0.34c-0.01-0.01-0.03-0.02-0.04-0.03c-0.06-0.05-0.12-0.11-0.19-0.16l-0.06-0.06
				c-0.12-0.11-0.24-0.21-0.35-0.32c-0.17-0.16-0.33-0.31-0.5-0.47c-0.01-0.01-0.01-0.01-0.01-0.01c-0.16-0.16-0.32-0.31-0.48-0.47
				c-0.01-0.01-0.03-0.03-0.04-0.05c-0.02-0.02-0.03-0.03-0.06-0.05c-0.12-0.12-0.24-0.24-0.35-0.36c-0.03-0.03-0.05-0.05-0.08-0.07
				c-0.31-0.32-0.61-0.66-0.91-0.99c-0.21-0.23-0.41-0.46-0.61-0.7c-0.01-0.02-0.03-0.03-0.04-0.05
				C258.45,497.33,255.76,498.81,252.7,498.93z M252.52,505.31c0,0.01,0,0.02,0,0.03C252.52,505.33,252.52,505.32,252.52,505.31
				L252.52,505.31c0.06-0.6,0.12-1.19,0.19-1.78C252.65,504.12,252.58,504.71,252.52,505.31z"/>
			<path class="st2" d="M248.97,530.49c0.21-1.7,0.3-3.44,0.26-5.2l-0.01-0.58c-0.21-4.94-1.44-9.61-3.49-13.79
				c-0.13-0.24-0.24-0.49-0.37-0.73c-1.69-3.23-3.87-6.17-6.45-8.7l-0.07-0.07c-1.6,1.24-3.31,2.35-5.13,3.3
				c0.07,0.06,0.13,0.12,0.19,0.19c0.25,0.25,0.5,0.51,0.75,0.77c2.25,2.38,4.17,5.08,5.67,8.03c2.28,4.47,3.62,9.5,3.75,14.85
				c0.03,1.43-0.02,2.84-0.16,4.22c0.23,0.55,0.45,1.1,0.67,1.65c0.47,1.17,0.92,2.36,1.36,3.55c0.2,0.53,0.39,1.07,0.58,1.6
				c0.17-0.4,0.34-0.81,0.5-1.23C247.97,535.85,248.63,533.21,248.97,530.49z"/>
			<path class="st2" d="M273.49,505.28c0,0-0.01,0-0.01-0.01c-0.05-0.02-0.09-0.04-0.14-0.06c-0.01,0-0.01,0-0.01,0
				c-0.02-0.01-0.03-0.01-0.05-0.02c-0.01-0.01-0.02-0.01-0.03-0.01c-0.15-0.07-0.3-0.12-0.45-0.2c-0.03-0.01-0.06-0.03-0.1-0.04
				c-0.03-0.02-0.08-0.03-0.12-0.05c-0.1-0.05-0.21-0.09-0.31-0.15c-0.01,0-0.01,0-0.01-0.01c0,0,0,0-0.01,0
				c-0.01,0-0.01-0.01-0.01-0.01c-0.01-0.01-0.02-0.01-0.03-0.02c0,0-0.01,0-0.01-0.01l-0.01,0l-0.01-0.01
				c-0.02-0.01-0.04-0.02-0.06-0.02c-0.06-0.03-0.13-0.07-0.2-0.09c-0.01-0.01-0.02-0.01-0.02-0.02c-0.08-0.03-0.15-0.07-0.23-0.11
				c-0.01-0.01-0.03-0.01-0.05-0.02c-0.05-0.02-0.09-0.04-0.14-0.07c-0.05-0.03-0.1-0.05-0.15-0.08c0,0-0.01,0-0.01-0.01
				c-0.1-0.05-0.2-0.1-0.3-0.15c-0.02-0.01-0.03-0.02-0.04-0.02c-0.01-0.01-0.02-0.01-0.02-0.02c-0.06-0.03-0.11-0.05-0.16-0.08
				c-0.04-0.02-0.08-0.04-0.12-0.07c-0.03-0.02-0.06-0.03-0.09-0.05c-0.03-0.02-0.06-0.03-0.09-0.05c-0.02-0.01-0.03-0.02-0.06-0.03
				c-0.02-0.01-0.04-0.02-0.06-0.03c-0.09-0.04-0.17-0.09-0.26-0.14c-0.58,0.57-1.13,1.17-1.66,1.79c-0.5,0.58-0.98,1.19-1.43,1.81
				c-1.7,2.33-3.07,4.91-4.03,7.67c-0.03,0.07-0.05,0.14-0.07,0.21c-1.11,3.24-1.67,6.73-1.59,10.36c0.04,1.73,0.23,3.43,0.55,5.08
				c0.28-0.8,0.56-1.6,0.85-2.39c0.03-0.09,0.06-0.17,0.09-0.25c0.04-0.12,0.09-0.23,0.13-0.35c0.01-0.02,0.02-0.05,0.02-0.06
				c0.01-0.02,0.02-0.05,0.03-0.07c0.01-0.01,0.01-0.02,0.01-0.03c0.01-0.03,0.02-0.06,0.03-0.08c0.01-0.02,0.02-0.05,0.03-0.08
				c0.02-0.06,0.04-0.12,0.06-0.17c0.03-0.08,0.07-0.16,0.1-0.25c0.12-0.32,0.24-0.64,0.37-0.96c0.01-0.02,0.02-0.05,0.03-0.08
				c0.1-0.25,0.19-0.5,0.3-0.75c0.1-0.25,0.21-0.52,0.31-0.78c0.11-0.26,0.21-0.52,0.32-0.77c0.08-0.19,0.15-0.37,0.23-0.56
				c0.02-0.04,0.03-0.08,0.05-0.12c0.02-0.03,0.03-0.07,0.05-0.11c0.01-0.02,0.01-0.03,0.02-0.05c0.01-0.01,0.01-0.01,0.01-0.02
				c0.01-0.01,0.01-0.02,0.01-0.02c0.04-0.09,0.08-0.18,0.11-0.27c0.09-0.2,0.17-0.4,0.26-0.6c0.08-0.18,0.16-0.36,0.24-0.54
				c0.06-0.14,0.12-0.28,0.18-0.42c0.02-0.05,0.05-0.1,0.07-0.15c0.05-0.13,0.11-0.25,0.16-0.37c0.04-0.1,0.09-0.19,0.13-0.28
				c0.04-0.09,0.08-0.18,0.12-0.27c0.01-0.03,0.03-0.06,0.04-0.09c0.05-0.1,0.09-0.21,0.14-0.31c0.04-0.08,0.07-0.16,0.1-0.23
				c0.01-0.02,0.02-0.03,0.02-0.05c0.06-0.13,0.12-0.25,0.17-0.38c0.08-0.17,0.16-0.34,0.25-0.52c0.02-0.03,0.03-0.08,0.05-0.11
				c0.13-0.27,0.26-0.55,0.39-0.81c0.03-0.08,0.07-0.16,0.11-0.23c0.15-0.32,0.31-0.64,0.46-0.96c0.03-0.07,0.07-0.14,0.1-0.21
				c0.08-0.16,0.16-0.33,0.25-0.49c0.04-0.08,0.08-0.17,0.13-0.25c0.1-0.2,0.2-0.4,0.31-0.6c0.07-0.13,0.14-0.27,0.21-0.41
				c0.03-0.06,0.06-0.12,0.09-0.18c0.09-0.18,0.19-0.37,0.29-0.55c0.03-0.05,0.05-0.1,0.08-0.16c0.1-0.19,0.2-0.38,0.3-0.56
				c0.1-0.19,0.2-0.38,0.3-0.56c0.1-0.19,0.2-0.37,0.3-0.56c0.01,0,0.01-0.01,0.01-0.01c0.01,0,0.01,0,0.01-0.01
				c0.01-0.01,0.01-0.02,0.02-0.03c0.14-0.26,0.29-0.52,0.43-0.79c0.14-0.26,0.29-0.52,0.43-0.77c0.14-0.26,0.28-0.51,0.43-0.76
				c0.14-0.25,0.29-0.5,0.43-0.75c0.07-0.11,0.13-0.23,0.2-0.34c0.11-0.19,0.22-0.38,0.34-0.56c0.15-0.26,0.31-0.52,0.47-0.79
				c0.07-0.12,0.14-0.23,0.22-0.36c0.08-0.13,0.16-0.26,0.24-0.4c0.1-0.18,0.22-0.36,0.33-0.53c-0.07-0.03-0.14-0.05-0.2-0.08
				C273.61,505.33,273.55,505.31,273.49,505.28z"/>
			<path class="st2" d="M234.32,505.76c-0.24-0.25-0.49-0.5-0.73-0.75c-0.06-0.06-0.12-0.12-0.19-0.18
				c-0.02,0.01-0.04,0.03-0.06,0.03c-1.22,0.64-2.48,1.2-3.79,1.69c0.5,0.73,0.99,1.48,1.47,2.22c1.59,2.43,3.1,4.91,4.54,7.44
				c2.92,5.14,5.53,10.48,7.8,15.99c0.14-1.35,0.19-2.72,0.15-4.11c-0.13-5.22-1.43-10.13-3.66-14.49
				C238.39,510.72,236.51,508.09,234.32,505.76z M233.76,505.46c0.02-0.01,0.04-0.02,0.06-0.04c0.07,0.07,0.13,0.13,0.19,0.19
				C233.92,505.56,233.84,505.51,233.76,505.46z"/>
			<path class="st2" d="M233.76,505.46c0.08,0.05,0.16,0.1,0.25,0.16c-0.06-0.07-0.12-0.13-0.19-0.19
				C233.8,505.44,233.78,505.45,233.76,505.46z"/>
			<path class="st2" d="M252.52,505.34c0-0.01,0-0.02,0-0.03l0,0C252.52,505.32,252.52,505.33,252.52,505.34z"/>
			<path class="st2" d="M262.1,515.57c0.02-0.08,0.05-0.15,0.08-0.23c1.05-3,2.53-5.8,4.37-8.32c0.49-0.68,1.01-1.34,1.55-1.97
				c0.57-0.67,1.17-1.32,1.79-1.94c-0.23-0.13-0.47-0.27-0.7-0.41c-0.15-0.09-0.29-0.17-0.43-0.26c-0.13-0.08-0.25-0.16-0.37-0.23
				c-0.11-0.07-0.23-0.15-0.35-0.23c-0.08-0.05-0.16-0.1-0.23-0.16c-0.11-0.07-0.21-0.14-0.31-0.2c-0.17-0.12-0.34-0.24-0.51-0.36
				c-0.03-0.02-0.06-0.05-0.09-0.07c-0.01-0.01-0.03-0.02-0.04-0.03c-0.01-0.01-0.01-0.01-0.02-0.01c-0.05-0.04-0.1-0.08-0.15-0.11
				c-0.05-0.04-0.1-0.08-0.16-0.11c-0.02-0.01-0.04-0.03-0.06-0.04c-0.04-0.04-0.08-0.07-0.13-0.1c-0.02-0.02-0.04-0.03-0.06-0.04
				c-0.11-0.09-0.23-0.18-0.35-0.27c-0.01-0.01-0.03-0.02-0.04-0.03c-0.04-0.04-0.09-0.07-0.14-0.11c-0.01-0.01-0.02-0.01-0.03-0.02
				c-0.03-0.02-0.04-0.04-0.07-0.05c-0.01-0.01-0.03-0.02-0.04-0.04c-0.01-0.01-0.02-0.01-0.03-0.02l-0.03-0.02
				c-0.09-0.07-0.18-0.14-0.27-0.22c-4.01,3.87-7.02,8.76-8.61,14.24c-0.9,3.09-1.34,6.38-1.26,9.78l0,0.11
				c0.13,4.92,1.36,9.55,3.45,13.66c0.07,0.15,0.15,0.29,0.23,0.44c0.15-0.5,0.3-1.01,0.45-1.52c0.28-0.92,0.57-1.83,0.88-2.75
				c0.06-0.18,0.12-0.36,0.18-0.55c0.12-0.36,0.25-0.73,0.37-1.09c-0.35-1.79-0.55-3.63-0.6-5.5
				C260.29,522.87,260.9,519.09,262.1,515.57z"/>
			<path class="st2" d="M244.66,495.39c-1.49,1.82-3.15,3.49-4.96,4.97c-0.22,0.18-0.45,0.36-0.66,0.53l0.08,0.07
				c2.62,2.58,4.84,5.56,6.56,8.85c0.13,0.25,0.25,0.49,0.38,0.74c2.09,4.25,3.34,9,3.55,14.03c-0.02-0.58-0.04-1.17-0.06-1.76
				c-0.09-3.64-0.04-7.26,0.13-10.84c0.09-1.9,0.21-3.78,0.38-5.67c0.21-2.51,0.49-5,0.83-7.48
				C248.39,498.48,246.2,497.22,244.66,495.39z"/>
			<path class="st2" d="M270.69,512.5c0-0.01,0-0.01,0.01-0.02C270.69,512.48,270.69,512.49,270.69,512.5L270.69,512.5z"/>
			<path class="st2" d="M251.67,478.99c0.11-0.56,0.2-1.12,0.28-1.69c0.01-0.08,0.02-0.16,0.03-0.24c0-0.02,0.01-0.04,0.01-0.06
				c0.02-0.12,0.03-0.24,0.05-0.36c0.01-0.05,0.01-0.09,0.02-0.14c0.02-0.12,0.03-0.24,0.04-0.37c0.01-0.07,0.02-0.15,0.03-0.22
				c0.01-0.11,0.02-0.22,0.03-0.33c0.02-0.16,0.03-0.33,0.05-0.5c0.01-0.16,0.03-0.33,0.03-0.49c0.01-0.03,0.01-0.06,0.01-0.1
				c0-0.09,0.01-0.2,0.01-0.29c0.01-0.04,0-0.09,0-0.13c0.02-0.35,0.03-0.68,0.04-1.02c0.01-0.03,0.01-0.07,0-0.1
				c0-0.12,0-0.25,0-0.37c0-0.14,0-0.28,0-0.41c0.01-0.07,0-0.14,0-0.2l-0.01-0.45c-0.01-0.36-0.02-0.71-0.04-1.05
				c-0.01-0.18-0.02-0.35-0.03-0.53c-0.01-0.09-0.01-0.2-0.02-0.29c-0.01-0.12-0.02-0.24-0.03-0.35c-0.02-0.18-0.03-0.34-0.05-0.51
				c-0.01-0.04-0.01-0.08-0.02-0.12c-0.01-0.14-0.03-0.26-0.04-0.4c-0.02-0.16-0.03-0.32-0.06-0.47c-0.01-0.09-0.02-0.18-0.03-0.28
				c-0.02-0.13-0.04-0.27-0.06-0.4c-0.02-0.16-0.06-0.32-0.08-0.48c-0.01-0.04-0.02-0.08-0.02-0.11c-0.02-0.14-0.05-0.28-0.08-0.42
				c0-0.03-0.01-0.06-0.02-0.09c-0.03-0.17-0.06-0.34-0.09-0.5c-0.03-0.18-0.07-0.36-0.11-0.53c-0.03-0.12-0.05-0.25-0.08-0.37
				c-0.02-0.09-0.05-0.19-0.07-0.28c-0.03-0.16-0.08-0.32-0.11-0.48c-0.01-0.01-0.01-0.03-0.01-0.05c-0.04-0.15-0.07-0.3-0.11-0.46
				c-0.22-0.81-0.47-1.62-0.74-2.42c-0.04-0.12-0.08-0.24-0.12-0.36c-0.03-0.08-0.06-0.16-0.09-0.23c-0.06-0.15-0.11-0.31-0.17-0.46
				c-0.05-0.12-0.09-0.24-0.14-0.36c-0.05-0.13-0.1-0.26-0.16-0.39c-0.01-0.04-0.03-0.08-0.04-0.12c-0.04-0.1-0.09-0.21-0.13-0.31
				c-0.03-0.06-0.05-0.12-0.08-0.18c-0.04-0.11-0.09-0.21-0.14-0.32c-0.01-0.03-0.02-0.06-0.04-0.09c-0.06-0.14-0.12-0.28-0.19-0.42
				c-0.07-0.15-0.14-0.29-0.21-0.44c-0.01-0.01-0.01-0.02-0.01-0.03c-0.06-0.13-0.12-0.25-0.19-0.38c-0.08-0.16-0.17-0.33-0.25-0.49
				c-1.38,0.04-2.77,0.06-4.17,0.06c-0.94,0-1.87-0.02-2.81-0.04c0.61,2.46,0.97,5.02,1.03,7.66c0.11,4.55-0.64,8.91-2.12,12.93
				c-2.37,6.48-6.61,12.09-12.08,16.14c-1.04,0.77-2.12,1.48-3.23,2.14c-0.62,0.36-1.25,0.7-1.89,1.02
				c-0.07,0.04-0.15,0.08-0.23,0.11c0,0.01,0.01,0.01,0.01,0.01c2.29,2.89,4.47,5.86,6.55,8.92c1.36-0.51,2.68-1.09,3.95-1.76
				c0.02-0.01,0.04-0.02,0.06-0.04c1.84-0.97,3.58-2.09,5.21-3.35c0.22-0.17,0.45-0.35,0.66-0.53c1.76-1.44,3.37-3.05,4.82-4.79
				c-1.18-1.64-1.89-3.65-1.89-5.83C242.3,483.65,246.44,479.32,251.67,478.99z"/>
			<path class="st2" d="M256.61,457.01c-0.86,2-1.54,4.09-2.01,6.26c-0.6,2.72-0.89,5.54-0.82,8.45c0,0.2,0.02,0.41,0.02,0.62
				c0,0.13,0.01,0.25,0.02,0.37c0.01,0.1,0.01,0.2,0.02,0.3c0.01,0.2,0.02,0.39,0.03,0.57c0.03,0.3,0.06,0.6,0.08,0.9
				c0,0.01,0,0.03,0.01,0.04c0.01,0.13,0.03,0.26,0.04,0.38c0.05,0.45,0.11,0.88,0.18,1.33c0.02,0.1,0.03,0.2,0.05,0.3
				c0.02,0.09,0.02,0.18,0.04,0.26c0.08,0.44,0.16,0.88,0.25,1.31c0.02,0.11,0.05,0.22,0.08,0.32c0,0.01,0,0.01,0,0.01
				c0.03,0.15,0.06,0.3,0.1,0.44c0.04,0.14,0.06,0.28,0.1,0.41c4.31,1.11,7.5,5.01,7.5,9.67c0,1.38-0.28,2.69-0.78,3.89
				c0.01,0.01,0.02,0.02,0.02,0.03c0.09,0.12,0.18,0.23,0.28,0.35c0.06,0.08,0.13,0.16,0.2,0.24c0.2,0.24,0.4,0.47,0.61,0.7
				c0.3,0.34,0.61,0.67,0.91,0.99c0.03,0.03,0.05,0.05,0.08,0.07c0.12,0.12,0.24,0.24,0.35,0.36c0.02,0.02,0.03,0.03,0.06,0.05
				c0.01,0.01,0.03,0.03,0.04,0.05c0.16,0.16,0.32,0.31,0.48,0.47c0.01,0.01,0.01,0.01,0.01,0.01c0.17,0.16,0.33,0.31,0.5,0.47
				c0.12,0.11,0.24,0.21,0.35,0.32l0.06,0.06c0.06,0.06,0.12,0.11,0.19,0.16c0.01,0.01,0.03,0.03,0.04,0.03
				c0.12,0.12,0.25,0.22,0.38,0.34l0.02,0.02c0.17,0.14,0.35,0.3,0.53,0.44c0.1,0.08,0.2,0.16,0.3,0.24l0.03,0.03
				c0.01,0.01,0.02,0.01,0.03,0.02c0.01,0.01,0.03,0.03,0.05,0.04c0.03,0.02,0.05,0.04,0.08,0.06c0.01,0.01,0.02,0.01,0.03,0.02
				c0.06,0.05,0.1,0.09,0.15,0.12c0.01,0.01,0.03,0.02,0.05,0.03c0.12,0.1,0.26,0.2,0.38,0.3c0.02,0.01,0.04,0.03,0.06,0.05
				c0.05,0.03,0.09,0.07,0.14,0.1c0.02,0.01,0.04,0.03,0.06,0.05c0.06,0.04,0.12,0.09,0.17,0.12c0.06,0.04,0.11,0.09,0.17,0.12
				c0.01,0.01,0.01,0.01,0.02,0.01c0.02,0.01,0.03,0.02,0.05,0.03c0.03,0.03,0.07,0.05,0.1,0.08c0.19,0.13,0.37,0.26,0.56,0.39
				c0.11,0.07,0.22,0.15,0.34,0.22c0.08,0.06,0.17,0.12,0.25,0.17c0.12,0.08,0.25,0.17,0.38,0.25c0.14,0.08,0.27,0.17,0.41,0.25
				c0.15,0.1,0.31,0.19,0.47,0.29c0.25,0.15,0.51,0.3,0.76,0.44c0.1,0.06,0.2,0.12,0.3,0.17c0.03,0.01,0.05,0.03,0.08,0.04
				c0.03,0.02,0.05,0.03,0.07,0.04c0.03,0.02,0.08,0.04,0.11,0.06c0.03,0.02,0.07,0.04,0.1,0.06c0.05,0.03,0.1,0.05,0.14,0.08
				c0.06,0.03,0.12,0.06,0.19,0.1c0.01,0.01,0.02,0.01,0.03,0.02c0.01,0.01,0.03,0.01,0.05,0.03c0.12,0.06,0.23,0.12,0.36,0.17
				c0,0.01,2.89,1.31,2.98,1.34c1.99-3.22,4.1-6.35,6.32-9.39l-0.01,0c-1.8-0.92-3.5-1.99-5.1-3.19c-0.71-0.53-1.39-1.09-2.06-1.67
				c-0.26-0.23-0.52-0.47-0.78-0.71c-0.12-0.11-0.23-0.21-0.34-0.32c-1.45-1.39-2.8-2.9-3.99-4.53c-3.14-4.24-5.35-9.23-6.32-14.66
				c-0.03,0.03-0.06,0.07-0.09,0.1c0.03-0.04,0.05-0.09,0.08-0.13c-0.29-1.6-0.46-3.24-0.53-4.91c0-0.14-0.01-0.28-0.02-0.43
				c-0.04-1.5,0.02-2.97,0.17-4.42c0.04-0.43,0.09-0.86,0.15-1.28c0.14-1.01,0.33-2,0.56-2.98c-2.3,0.31-4.61,0.56-6.94,0.77
				C256.97,456.2,256.78,456.6,256.61,457.01z M262.58,470.82c0,0.01,0,0.02,0.01,0.03c-0.03,0.03-0.06,0.07-0.09,0.1
				C262.53,470.91,262.55,470.87,262.58,470.82z"/>
			<path class="st2" d="M271.38,457.88c0.01-0.21,0.02-0.41,0.03-0.62c0.01-0.12,0.01-0.22,0.02-0.34c0-0.1,0.02-0.2,0.02-0.31
				c0.01-0.12,0.02-0.25,0.03-0.37c0.01-0.16,0.03-0.31,0.04-0.47c0.01-0.1,0.02-0.2,0.03-0.29c0-0.08,0.02-0.16,0.02-0.25
				c0.02-0.12,0.03-0.24,0.05-0.37c0.01-0.09,0.02-0.18,0.03-0.27c0.01-0.1,0.02-0.2,0.04-0.29c0.01-0.13,0.03-0.24,0.05-0.37
				c0-0.01,0.01-0.01,0.01-0.01c0.01-0.04,0.01-0.08,0.02-0.12c-2.33,0.44-4.69,0.83-7.06,1.16c-0.23,1.01-0.43,2.03-0.57,3.07
				c-0.06,0.42-0.11,0.85-0.15,1.28c-0.15,1.45-0.21,2.92-0.17,4.42c0,0.14,0.01,0.28,0.02,0.43c0.06,1.67,0.24,3.31,0.53,4.91
				c0,0.01,0,0.02,0.01,0.03c0.96,5.43,3.18,10.41,6.32,14.66c1.2,1.62,2.54,3.14,3.99,4.53c0.11,0.11,0.22,0.21,0.34,0.32
				c0.26,0.24,0.51,0.47,0.78,0.71c0.67,0.58,1.35,1.14,2.06,1.67c1.6,1.21,3.3,2.28,5.1,3.19l0.01,0c0,0,0,0,0.01-0.01
				c0.31-0.42,0.62-0.83,0.92-1.25c0.22-0.3,0.45-0.6,0.68-0.9c0.55-0.72,1.1-1.44,1.67-2.15c0.16-0.21,0.32-0.41,0.47-0.61l0.01,0
				c0.2-0.26,0.4-0.51,0.6-0.76c-0.01-0.01-0.03-0.03-0.06-0.04c-0.14-0.1-0.29-0.19-0.43-0.29c-0.13-0.09-0.27-0.19-0.41-0.28
				c-0.16-0.11-0.32-0.22-0.48-0.34c-0.13-0.09-0.26-0.19-0.39-0.29c-0.14-0.1-0.28-0.21-0.42-0.31c-0.16-0.12-0.32-0.25-0.48-0.37
				c-0.06-0.05-0.12-0.1-0.17-0.14c-0.12-0.09-0.23-0.18-0.35-0.28c-0.28-0.23-0.56-0.47-0.84-0.71c-0.12-0.1-0.24-0.2-0.35-0.31
				c-0.13-0.12-0.26-0.24-0.39-0.37c-0.17-0.15-0.33-0.3-0.48-0.46c-0.17-0.15-0.33-0.31-0.48-0.47c-0.26-0.26-0.51-0.52-0.75-0.77
				c-0.1-0.11-0.2-0.22-0.3-0.32c-0.1-0.11-0.2-0.22-0.29-0.33c-0.08-0.09-0.16-0.17-0.24-0.26c-0.08-0.09-0.15-0.17-0.22-0.26
				s-0.15-0.18-0.24-0.28c-0.08-0.09-0.15-0.19-0.23-0.28c-0.1-0.12-0.2-0.25-0.29-0.37c-0.08-0.11-0.17-0.21-0.25-0.31
				c-0.08-0.11-0.17-0.21-0.24-0.32c-0.02-0.03-0.04-0.05-0.06-0.08c-0.06-0.08-0.13-0.16-0.18-0.24c-0.08-0.11-0.16-0.22-0.24-0.33
				c-0.05-0.07-0.1-0.13-0.14-0.19c-0.04-0.05-0.07-0.09-0.11-0.15c-0.03-0.04-0.06-0.08-0.08-0.13c-0.04-0.05-0.08-0.1-0.11-0.15
				c-0.11-0.16-0.22-0.33-0.34-0.49c-0.11-0.16-0.22-0.33-0.32-0.49c-0.26-0.4-0.51-0.81-0.75-1.22c-0.09-0.15-0.18-0.31-0.27-0.47
				c-0.1-0.18-0.2-0.36-0.3-0.54c-0.01-0.02-0.02-0.04-0.04-0.06c-0.08-0.15-0.16-0.31-0.25-0.46c-0.01-0.03-0.02-0.05-0.03-0.07
				c-0.01-0.02-0.02-0.03-0.03-0.05c-0.1-0.19-0.2-0.37-0.29-0.57c-0.1-0.21-0.2-0.41-0.3-0.63c-0.01-0.01-0.01-0.02-0.02-0.03
				c-0.06-0.13-0.12-0.26-0.18-0.39c-0.04-0.11-0.09-0.21-0.14-0.31c0,0-0.01,0-0.01-0.01c-0.04-0.11-0.09-0.21-0.14-0.32
				c-0.06-0.15-0.13-0.3-0.19-0.46c-0.06-0.15-0.12-0.3-0.19-0.46c-0.14-0.36-0.28-0.73-0.41-1.1c-0.05-0.15-0.11-0.3-0.15-0.44
				c-0.09-0.25-0.17-0.51-0.26-0.77l-0.11-0.34c-0.05-0.16-0.1-0.32-0.15-0.48c0-0.01,0-0.01,0-0.01c-0.03-0.1-0.06-0.19-0.08-0.3
				c-0.04-0.11-0.07-0.24-0.1-0.36c-0.01-0.03-0.01-0.05-0.02-0.08c-0.03-0.09-0.05-0.17-0.07-0.26c-0.01-0.03-0.02-0.06-0.02-0.09
				c-0.04-0.17-0.09-0.35-0.13-0.52c-0.01-0.01-0.01-0.03-0.01-0.04c-0.05-0.2-0.09-0.39-0.13-0.59c-0.03-0.13-0.05-0.26-0.08-0.38
				c-0.02-0.12-0.05-0.25-0.08-0.38l0-0.02c-0.05-0.22-0.09-0.44-0.12-0.65c-0.02-0.09-0.03-0.2-0.05-0.29
				c-0.01-0.06-0.02-0.13-0.03-0.19c-0.03-0.2-0.06-0.38-0.09-0.58c-0.06-0.42-0.12-0.86-0.16-1.29c-0.02-0.11-0.03-0.23-0.04-0.34
				c-0.03-0.3-0.06-0.6-0.08-0.91c-0.01-0.13-0.02-0.26-0.03-0.39l0-0.01c-0.01-0.11-0.01-0.22-0.01-0.32
				c-0.01-0.16-0.02-0.31-0.02-0.47l-0.02-0.68c0-0.01,0-0.01,0-0.01l-0.01-0.37c0-0.12,0-0.24,0-0.37c0-0.11-0.01-0.22,0-0.34
				c0-0.15,0.01-0.29,0.01-0.44C271.38,458.09,271.38,457.98,271.38,457.88z M284.93,491.01L284.93,491.01
				c-0.16,0.2-0.32,0.4-0.47,0.61C284.61,491.41,284.77,491.21,284.93,491.01z M270.9,470.32c-0.04-0.11-0.07-0.24-0.1-0.36
				c-0.01-0.03-0.01-0.05-0.02-0.08c-0.03-0.09-0.05-0.17-0.07-0.26c-0.01-0.03-0.02-0.06-0.02-0.09c-0.04-0.17-0.09-0.35-0.13-0.52
				c-0.01-0.01-0.01-0.03-0.01-0.04c-0.05-0.2-0.09-0.39-0.13-0.59c-0.03-0.13-0.05-0.26-0.08-0.38c-0.02-0.12-0.05-0.25-0.08-0.38
				c0.26,0.99,0.5,1.99,0.73,3C270.96,470.52,270.93,470.43,270.9,470.32z"/>
			<path class="st2" d="M284.93,491.01c-0.16,0.2-0.32,0.4-0.47,0.61C284.61,491.41,284.77,491.21,284.93,491.01L284.93,491.01z"/>
			<path class="st2" d="M231.45,460.69c0.08,3.31-0.3,6.51-1.08,9.56c-2.02,7.91-6.74,14.78-13.13,19.52c0,0.01,0.01,0.01,0.01,0.01
				c1.49,1.68,2.93,3.39,4.34,5.14c0.16,0.2,0.32,0.4,0.48,0.6c0.08,0.09,0.15,0.19,0.22,0.28c0.07-0.04,0.15-0.07,0.23-0.11
				c0.64-0.32,1.27-0.66,1.89-1.02c1.11-0.66,2.19-1.37,3.23-2.14c5.47-4.05,9.7-9.66,12.08-16.14c1.48-4.02,2.23-8.39,2.12-12.93
				c-0.06-2.45-0.37-4.83-0.9-7.13c-3.35-0.07-6.67-0.27-9.96-0.56C231.25,457.38,231.41,459.02,231.45,460.69z"/>
			<path class="st2" d="M262.58,470.82c-0.03,0.04-0.05,0.09-0.08,0.13c0.03-0.03,0.06-0.06,0.09-0.1
				C262.58,470.84,262.58,470.83,262.58,470.82z"/>
			<path class="st2" d="M270.33,468c0.03,0.13,0.05,0.26,0.08,0.38c0.04,0.2,0.08,0.39,0.13,0.59c0.01,0.01,0.01,0.03,0.01,0.04
				c0.04,0.18,0.08,0.35,0.13,0.52c0.01,0.03,0.01,0.06,0.02,0.09c0.02,0.09,0.04,0.17,0.07,0.26c0.01,0.03,0.01,0.05,0.02,0.08
				c0.03,0.12,0.06,0.24,0.1,0.36c0.02,0.1,0.05,0.2,0.08,0.3c-0.23-1.01-0.47-2.01-0.73-3C270.28,467.75,270.31,467.88,270.33,468z
				"/>
			<path class="st2" d="M249.06,457.04c0.06,0.13,0.13,0.25,0.19,0.38c0.01,0.01,0.01,0.02,0.01,0.03c0.07,0.15,0.14,0.29,0.21,0.44
				c0.06,0.14,0.13,0.28,0.19,0.42c0.02,0.03,0.04,0.06,0.04,0.09c0.05,0.11,0.1,0.21,0.14,0.32c0.03,0.06,0.05,0.12,0.08,0.18
				c0.04,0.1,0.09,0.21,0.13,0.31c0.01,0.04,0.03,0.08,0.04,0.12c0.06,0.13,0.11,0.26,0.16,0.39c0.05,0.12,0.09,0.24,0.14,0.36
				c0.06,0.15,0.11,0.3,0.17,0.46c0.03,0.07,0.06,0.15,0.09,0.23c0.04,0.12,0.09,0.24,0.12,0.36c0.28,0.8,0.53,1.61,0.74,2.42
				c0.04,0.15,0.07,0.3,0.11,0.46c0.01,0.01,0.01,0.03,0.01,0.05c0.04,0.16,0.08,0.32,0.11,0.48c0.02,0.09,0.05,0.19,0.07,0.28
				c0.03,0.12,0.05,0.25,0.08,0.37c0.04,0.18,0.08,0.35,0.11,0.53c0.03,0.16,0.06,0.33,0.09,0.5c0.01,0.03,0.01,0.06,0.02,0.09
				c0.03,0.14,0.05,0.28,0.08,0.42c0,0.03,0.01,0.07,0.02,0.11c0.02,0.16,0.06,0.32,0.08,0.48c0.02,0.13,0.03,0.27,0.06,0.4
				c0.01,0.09,0.02,0.19,0.03,0.28c0.02,0.16,0.04,0.32,0.06,0.47c0.02,0.13,0.03,0.26,0.04,0.4c0.01,0.04,0.01,0.08,0.02,0.12
				c0.02,0.17,0.03,0.34,0.05,0.51c0.01,0.11,0.02,0.23,0.03,0.35c0.01,0.09,0.01,0.2,0.02,0.29c0.01,0.18,0.02,0.35,0.03,0.53
				c0.02,0.34,0.03,0.7,0.04,1.05c-0.07-2.9,0.21-5.73,0.82-8.45c0.48-2.16,1.16-4.26,2.01-6.26c0.16-0.38,0.33-0.76,0.51-1.13
				c-2.43,0.19-4.87,0.32-7.33,0.4c0.02,0.05,0.05,0.09,0.07,0.14C248.86,456.64,248.96,456.84,249.06,457.04z"/>
			<path class="st2" d="M266.49,449.26c0.89-1.86,1.95-3.62,3.14-5.29c-0.65,0.11-1.3,0.22-1.95,0.32
				c-1.17,0.88-2.29,1.83-3.34,2.85c-0.22,0.22-0.44,0.43-0.65,0.65c-1.37,1.4-2.63,2.92-3.75,4.54c1.86-0.21,3.7-0.44,5.54-0.72
				c0.02-0.04,0.03-0.09,0.05-0.14C265.82,450.72,266.15,449.98,266.49,449.26z"/>
			<path class="st2" d="M270,443.91c-1.11,1.58-2.09,3.25-2.93,5c-0.35,0.73-0.67,1.46-0.97,2.22c-0.05,0.14-0.1,0.28-0.16,0.42
				c2.24-0.34,4.47-0.74,6.68-1.19c0.78-2.67,1.87-5.2,3.23-7.57C273.91,443.2,271.96,443.57,270,443.91z"/>
			<path class="st2" d="M263.2,447.48c0.21-0.21,0.43-0.43,0.65-0.65c0.87-0.84,1.78-1.63,2.74-2.38
				c-7.03,1.03-14.21,1.57-21.53,1.57c-1.89,0-3.77-0.05-5.64-0.12c0.06,0.05,0.13,0.1,0.19,0.15c0.12,0.09,0.23,0.18,0.35,0.27
				c0.11,0.09,0.22,0.18,0.32,0.27c0.63,0.51,1.24,1.05,1.83,1.61c0.1,0.1,0.21,0.19,0.31,0.29c0.31,0.3,0.61,0.6,0.9,0.91
				c0.1,0.1,0.19,0.2,0.29,0.3c0.3,0.31,0.58,0.63,0.87,0.95c0.1,0.11,0.19,0.22,0.28,0.32c0.1,0.11,0.19,0.22,0.28,0.33
				c0.09,0.11,0.18,0.22,0.27,0.33c0.18,0.23,0.36,0.45,0.53,0.68c0.17,0.23,0.35,0.45,0.52,0.68c0.05,0.07,0.09,0.13,0.14,0.2
				c4.27-0.09,8.49-0.35,12.67-0.79"/>
			<path class="st2" d="M244.71,452.28c-0.17-0.23-0.35-0.45-0.53-0.68c-0.09-0.11-0.18-0.22-0.27-0.33
				c-0.09-0.11-0.18-0.22-0.28-0.33c-0.09-0.11-0.18-0.22-0.28-0.32c-0.29-0.32-0.57-0.64-0.87-0.95c-0.1-0.11-0.19-0.21-0.29-0.3
				c-0.29-0.31-0.6-0.61-0.9-0.91c-0.1-0.1-0.21-0.19-0.31-0.29c-0.59-0.56-1.2-1.09-1.83-1.61c-0.1-0.09-0.21-0.18-0.32-0.27
				c-0.12-0.09-0.23-0.18-0.35-0.27c-0.06-0.05-0.13-0.1-0.2-0.16c-0.89-0.04-1.78-0.09-2.66-0.15c0.91,1.26,1.74,2.58,2.47,3.96
				c0.61,1.14,1.14,2.31,1.63,3.52c1.27,0.03,2.54,0.05,3.81,0.05c0.63,0,1.26-0.02,1.89-0.02c-0.06-0.08-0.12-0.17-0.18-0.25
				C245.06,452.73,244.89,452.51,244.71,452.28z"/>
			<path class="st2" d="M235,445.67c-3.07-0.21-6.12-0.5-9.13-0.9c1.52,2.41,2.75,5.03,3.65,7.8c3.17,0.3,6.37,0.5,9.6,0.6
				c-0.48-1.2-1.02-2.37-1.62-3.5C236.75,448.28,235.91,446.95,235,445.67z"/>
			<path class="st2" d="M225.59,440.88c3.12,0.34,6.26,0.59,9.43,0.74c-2.37-2.08-4.84-4.04-7.42-5.87
				C226.97,437.48,226.29,439.18,225.59,440.88z"/>
			<path class="st2" d="M226.23,438.84c-0.22,0.68-0.46,1.36-0.7,2.04c0.02,0,0.04,0,0.06,0.01c0.7-1.7,1.37-3.4,2.01-5.13
				c-0.11-0.08-0.21-0.15-0.32-0.23C226.95,436.63,226.6,437.74,226.23,438.84z"/>
			<path class="st2" d="M265.93,378.96c-4.85-6.62-10.57-12.56-16.98-17.66c-5.02-4-10.46-7.47-16.25-10.36
				c2.49,10.54,3.84,21.52,3.93,32.8c0.66,0.42,1.31,0.85,1.95,1.29c18.1,12.31,31.61,30.93,37.31,52.78
				c0.09-0.02,0.18-0.04,0.27-0.07c2.44-7.92,4.23-16.12,5.32-24.53C278.67,400.62,273.29,389.01,265.93,378.96z"/>
			<path class="st2" d="M237.99,385.62c-0.45-0.3-0.9-0.6-1.35-0.9c0,0.05,0,0.1,0,0.16c0,9.18-0.85,18.17-2.46,26.88
				c10.87,7.53,20.05,17.34,26.83,28.78c4.8-0.62,9.53-1.48,14.18-2.55C269.43,416.32,255.98,397.85,237.99,385.62z"/>
			<path class="st2" d="M234.01,412.64c-1.46,7.66-3.52,15.11-6.12,22.3c2.95,2.07,5.77,4.32,8.45,6.72
				c1.83,0.07,3.67,0.11,5.52,0.11c6.19,0,12.29-0.39,18.28-1.13C253.47,429.57,244.54,420.03,234.01,412.64z"/>
			<path class="st2" d="M249.54,360.13c6.41,5.1,12.13,11.04,16.98,17.65c7.36,10.04,12.74,21.66,15.54,34.26
				c0.96-7.46,1.37-15.07,1.19-22.83c-0.07-2.87-0.22-5.71-0.45-8.53c-0.25-0.88-0.52-1.76-0.79-2.63
				c-2.54-8-6.14-15.52-10.64-22.39c-3.89-5.95-8.45-11.41-13.56-16.28c-1.49-1.42-3.02-2.79-4.6-4.11
				c-0.16-0.13-0.32-0.26-0.48-0.39c-3.28-2.7-6.76-5.18-10.4-7.41c-3.58-2.19-7.32-4.15-11.21-5.85c-3.45-1.51-7.01-2.8-10.66-3.88
				c5.09,9.91,9.09,20.48,11.83,31.54C238.45,352.27,244.24,355.91,249.54,360.13z"/>
			<path class="st2" d="M231.71,320.45c3.89,1.69,7.63,3.65,11.21,5.85c3.64,2.23,7.12,4.71,10.4,7.41
				c0.16,0.12,0.32,0.26,0.48,0.39c1.58,1.32,3.11,2.69,4.6,4.11c5.11,4.87,9.67,10.33,13.56,16.28c4.5,6.87,8.11,14.39,10.64,22.39
				c0.28,0.87,0.54,1.75,0.79,2.63c-0.07-0.86-0.14-1.72-0.23-2.57c-0.76-7.78-2.13-15.38-4.04-22.75
				c-1.81-7.01-4.13-13.81-6.9-20.37c-0.04-0.08-0.06-0.16-0.1-0.24c-0.58-1.37-1.18-2.73-1.8-4.08c-0.36-0.79-0.74-1.58-1.11-2.37
				c-4.48-3.12-9.11-5.98-13.87-8.57c-3.95-2.15-7.99-4.11-12.1-5.89c-0.53-0.23-1.05-0.46-1.59-0.68c-0.01,0-0.01,0-0.01-0.01
				c-1.99-0.74-3.98-1.51-5.93-2.33c0-0.01,0-0.01-0.01-0.01c-4.49-1.65-9.04-3.09-13.66-4.31c-3.39-0.89-6.81-1.65-10.25-2.3
				c2.83,4.23,5.45,8.61,7.84,13.13C223.78,317.33,227.81,318.75,231.71,320.45z M224.76,306.56L224.76,306.56L224.76,306.56
				c0.02,0.01,0.05,0.03,0.07,0.04c0.02,0.01,0.05,0.03,0.07,0.04v0v0c-0.03-0.01-0.06-0.02-0.09-0.03
				c-0.03-0.01-0.06-0.02-0.09-0.03C224.74,306.57,224.75,306.56,224.76,306.56z"/>
			<path class="st2" d="M224.91,306.64c-0.02-0.01-0.05-0.03-0.07-0.04C224.86,306.61,224.88,306.62,224.91,306.64L224.91,306.64z"
				/>
			<path class="st2" d="M224.73,306.58c0.01-0.01,0.02-0.02,0.03-0.03l0,0C224.75,306.56,224.74,306.57,224.73,306.58
				c0.03,0.01,0.06,0.02,0.09,0.03C224.79,306.6,224.76,306.59,224.73,306.58z"/>
			<path class="st2" d="M224.76,306.56L224.76,306.56c0.02,0.01,0.05,0.03,0.07,0.04C224.81,306.58,224.78,306.57,224.76,306.56z"/>
			<path class="st2" d="M224.91,306.64L224.91,306.64c-0.03-0.01-0.06-0.02-0.09-0.03C224.85,306.62,224.88,306.63,224.91,306.64z"
				/>
			<path class="st2" d="M224.82,306.61c0.03,0.01,0.06,0.02,0.09,0.03c-0.02-0.01-0.05-0.03-0.07-0.04
				c-0.02-0.01-0.05-0.03-0.07-0.04c-0.01,0.01-0.02,0.02-0.03,0.03C224.76,306.59,224.79,306.6,224.82,306.61z"/>
		</g>
		<g>
			<path class="st1" d="M248.67,283.39c0.07-0.09,0.14-0.17,0.21-0.26c0.04-0.05,0.08-0.1,0.12-0.15c0.01-0.02,0.03-0.03,0.04-0.05
				c0.09-0.12,0.18-0.23,0.27-0.34c0.19-0.24,0.37-0.47,0.55-0.71c0.13-0.16,0.25-0.32,0.38-0.49c0.2-0.26,0.4-0.52,0.59-0.78
				c0.01-0.02,0.02-0.03,0.03-0.04c0.02-0.02,0.02-0.03,0.03-0.05c0.02-0.02,0.03-0.03,0.04-0.05c0.2-0.27,0.4-0.53,0.59-0.79
				c0.12-0.16,0.24-0.32,0.36-0.48c0.12-0.16,0.24-0.32,0.35-0.48c0.09-0.13,0.19-0.26,0.28-0.39c0.14-0.19,0.28-0.38,0.41-0.57
				c0.2-0.28,0.4-0.57,0.6-0.85c0.03-0.04,0.05-0.08,0.08-0.11c0.34-0.49,0.68-0.97,1.01-1.46c0.17-0.25,0.33-0.49,0.5-0.74
				c0.1-0.16,0.21-0.31,0.31-0.46c0.11-0.17,0.22-0.34,0.33-0.5c0.18-0.27,0.35-0.53,0.52-0.79c0.43-0.66,0.85-1.32,1.27-1.99
				c0.19-0.31,0.37-0.61,0.56-0.91c0.01-0.02,0.03-0.05,0.04-0.07c0.15-0.25,0.3-0.5,0.45-0.76c0.01-0.01,0.01-0.02,0.02-0.03
				c0.05-0.09,0.11-0.18,0.16-0.28c0.03-0.06,0.06-0.1,0.09-0.16c0.13-0.21,0.25-0.42,0.37-0.62c0.19-0.32,0.37-0.63,0.55-0.96
				c0.18-0.32,0.37-0.63,0.55-0.96c0.21-0.37,0.41-0.75,0.62-1.12c0.13-0.24,0.26-0.48,0.39-0.72c0.02-0.04,0.05-0.08,0.07-0.12
				c0.16-0.31,0.32-0.61,0.48-0.92c0.01-0.01,0.02-0.03,0.02-0.05c0.01-0.02,0.02-0.03,0.03-0.05c0,0,0,0,0.01-0.01
				c0.01-0.02,0.02-0.03,0.03-0.05c0.12-0.24,0.25-0.47,0.37-0.71c0.01-0.02,0.02-0.04,0.03-0.06c0.09-0.18,0.19-0.37,0.28-0.55
				c0.35-0.7,0.7-1.39,1.04-2.09c0.11-0.23,0.22-0.46,0.33-0.69c0.01-0.01,0.02-0.02,0.02-0.03c0.19-0.41,0.38-0.81,0.57-1.22
				c0-0.01,0.01-0.02,0.01-0.03c0.09-0.2,0.18-0.4,0.28-0.6c0.26-0.57,0.52-1.15,0.77-1.73c0.07-0.15,0.13-0.3,0.2-0.45
				c0.01-0.02,0.02-0.04,0.03-0.06c0.01-0.02,0.02-0.05,0.03-0.07c0.17-0.4,0.34-0.8,0.51-1.21c0.01-0.01,0.01-0.02,0.02-0.03
				c0.11-0.26,0.22-0.52,0.33-0.78c-9.16-16.85-14.57-36.07-15.06-56.57c-0.43-17.93,2.93-35.08,9.37-50.65
				c-0.07-0.12-0.14-0.24-0.2-0.36c0-0.01-0.01-0.01-0.01-0.01c-0.03-0.06-0.06-0.11-0.09-0.17c-0.02-0.02-0.03-0.05-0.05-0.07
				c-0.1-0.19-0.2-0.38-0.3-0.56c-0.11-0.19-0.22-0.39-0.33-0.58c-0.08-0.16-0.17-0.31-0.26-0.47c-0.01-0.02-0.03-0.04-0.04-0.07
				c-0.02-0.04-0.04-0.08-0.07-0.12c-0.1-0.17-0.2-0.34-0.3-0.51c-0.11-0.19-0.23-0.39-0.34-0.58c-0.09-0.17-0.2-0.33-0.29-0.5
				c-0.05-0.07-0.09-0.15-0.14-0.22c-0.01-0.02-0.02-0.03-0.04-0.06c-0.17-0.29-0.34-0.58-0.52-0.87c-0.02-0.04-0.05-0.1-0.08-0.14
				c-0.05-0.08-0.09-0.15-0.14-0.23l-0.14-0.23c-0.01-0.02-0.02-0.03-0.03-0.05c-0.15-0.24-0.29-0.46-0.44-0.7
				c-0.21-0.34-0.42-0.67-0.63-1c-0.17-0.26-0.34-0.53-0.51-0.79c-0.19-0.3-0.39-0.59-0.58-0.89c-0.17-0.25-0.33-0.5-0.5-0.75
				c-0.15-0.23-0.31-0.46-0.47-0.69c-0.02-0.03-0.05-0.07-0.08-0.11c-0.12-0.17-0.24-0.34-0.35-0.51c-0.21-0.3-0.41-0.6-0.62-0.89
				c-0.01-0.01-0.01-0.02-0.02-0.03c-0.18-0.25-0.35-0.49-0.52-0.74c-0.18-0.25-0.36-0.51-0.55-0.76c-0.18-0.25-0.35-0.49-0.54-0.74
				c-0.03-0.04-0.05-0.07-0.08-0.11c-0.17-0.23-0.35-0.47-0.53-0.71c-0.09-0.12-0.18-0.23-0.26-0.36c-0.09-0.12-0.18-0.23-0.27-0.35
				c-0.19-0.25-0.38-0.5-0.57-0.74c-0.17-0.23-0.35-0.45-0.53-0.68c-0.06-0.08-0.12-0.16-0.18-0.23c-0.15-0.19-0.3-0.38-0.45-0.57
				c-0.18-0.23-0.36-0.45-0.55-0.68c-0.17-0.21-0.35-0.42-0.52-0.64c-0.16-0.2-0.33-0.4-0.49-0.6c-0.49-0.6-1-1.19-1.5-1.78
				c-0.18-0.21-0.37-0.42-0.55-0.63c-0.2-0.23-0.42-0.47-0.62-0.7c-0.2-0.23-0.41-0.47-0.62-0.7c-0.19-0.21-0.37-0.41-0.57-0.62
				c-0.01-0.01-0.02-0.02-0.03-0.04c-0.25-0.27-0.49-0.53-0.74-0.8c-0.05-0.06-0.1-0.11-0.15-0.16c-0.27-0.29-0.54-0.58-0.82-0.87
				c-0.25-0.27-0.51-0.53-0.76-0.8l-0.21-0.22c-0.26-0.28-0.53-0.54-0.8-0.82c-0.19-0.19-0.38-0.38-0.57-0.57
				c-0.2-0.2-0.4-0.39-0.59-0.59c-0.2-0.2-0.4-0.39-0.61-0.59c-0.2-0.21-0.41-0.4-0.62-0.6c-0.2-0.19-0.4-0.38-0.59-0.57
				c-0.2-0.19-0.41-0.38-0.61-0.58c-0.01-0.01-0.01-0.01-0.02-0.01c-0.35-0.33-0.7-0.65-1.06-0.98c-0.07-0.07-0.15-0.13-0.22-0.19
				c-0.19-0.18-0.38-0.35-0.58-0.52c-0.21-0.19-0.42-0.38-0.63-0.56c-0.18-0.16-0.37-0.33-0.55-0.48c-0.96-0.85-1.94-1.68-2.93-2.49
				c-0.23-0.19-0.46-0.38-0.7-0.57c-0.14-0.12-0.28-0.23-0.42-0.34c-0.19-0.15-0.38-0.3-0.56-0.45c-0.42-0.34-0.85-0.67-1.28-1
				c-0.2-0.16-0.41-0.31-0.62-0.47c-0.51-0.39-1.02-0.77-1.53-1.16c-0.2-0.14-0.4-0.29-0.6-0.43c-0.23-0.17-0.46-0.33-0.68-0.5
				c-0.16-0.12-0.32-0.23-0.47-0.34c-9.55,6.9-18.08,15.11-25.33,24.36c0.13,0.16,0.26,0.32,0.38,0.47
				c0.29,0.35,0.57,0.71,0.85,1.07c8.95,11.37,15.97,24.34,20.56,38.43c3.68,11.28,5.8,23.28,6.1,35.75
				c0.03,1.28,0.04,2.56,0.03,3.82l0,0.04c-0.01,1.1-0.03,2.19-0.06,3.29l0,0.02c-0.21,6.53-0.93,12.94-2.11,19.19
				c-0.65,3.45-1.45,6.86-2.38,10.22c-1.95,7-4.49,13.76-7.58,20.22c-2.54,5.3-5.43,10.4-8.66,15.27c-0.88,1.32-1.77,2.61-2.7,3.9
				c-0.78,1.08-1.58,2.15-2.39,3.21c-0.22,0.28-0.44,0.56-0.66,0.85c0.28,0.34,0.57,0.66,0.85,0.99c9.17-1.36,18.56-2.08,28.11-2.08
				C235.46,282.34,242.12,282.7,248.67,283.39z"/>
			<path class="st1" d="M266.26,139.37L266.26,139.37c-0.01,0.01-0.03,0.01-0.04,0.02C266.24,139.39,266.25,139.38,266.26,139.37z"
				/>
			<path class="st1" d="M304.31,289.4c0.59-0.01,1.18-0.02,1.77-0.02c1.21,0,2.42,0.02,3.62,0.08c0.6,0.03,1.2,0.06,1.79,0.1
				c11.61,0.79,22.54,4.16,32.2,9.54c6,3.34,11.51,7.46,16.39,12.22c1.08,1.05,2.13,2.14,3.15,3.26c0.14,0.16,0.29,0.31,0.43,0.47
				c0.2-0.09,0.39-0.18,0.59-0.27l0.01,0c3.18-1.45,6.29-3.04,9.32-4.74c0.01,0,0.01-0.01,0.02-0.01c0.47-0.29,0.93-0.58,1.39-0.88
				c-2.49-1.46-4.92-3-7.29-4.62c-6.29-4.3-12.19-9.17-17.59-14.53c-3.56-3.53-6.9-7.28-10.02-11.22c-11.71,6-24.98,9.39-39.04,9.39
				c-13.85,0-26.93-3.29-38.51-9.13c-0.09,0.12-0.18,0.24-0.27,0.36c-0.01,0.01-0.02,0.03-0.04,0.05c-0.01,0.02-0.02,0.03-0.03,0.05
				c-0.01,0.01-0.02,0.03-0.03,0.04l-0.01,0c-0.19,0.26-0.39,0.52-0.59,0.78c-0.13,0.16-0.25,0.32-0.38,0.49
				c-0.18,0.24-0.36,0.47-0.55,0.71c-0.09,0.11-0.18,0.22-0.27,0.34c-0.01,0.02-0.03,0.03-0.04,0.05c-0.04,0.05-0.08,0.1-0.12,0.15
				c-0.17,0.21-0.33,0.42-0.5,0.62c-0.01,0.01-0.01,0.02-0.02,0.03c-0.25,0.3-0.5,0.61-0.75,0.91c0.42,0.46,0.85,0.91,1.27,1.36
				c9.35,1.56,18.46,3.81,27.29,6.69C292.9,290.32,298.52,289.54,304.31,289.4z"/>
			<path class="st1" d="M403.73,245.45c-11.8,8.4-25.15,14.81-39.54,18.72c-1.65,0.45-3.31,0.86-4.98,1.24
				c-4.91,4.54-10.35,8.51-16.23,11.81c2.95,3.66,6.09,7.16,9.42,10.47c5.4,5.36,11.29,10.23,17.59,14.53
				c2.37,1.62,4.8,3.16,7.29,4.62c0.02,0.01,0.04,0.03,0.06,0.04c35.27-20.48,59.49-57.69,62.05-100.49c-1.47,2.53-3.03,5-4.67,7.41
				C426.36,226.08,415.86,236.81,403.73,245.45z"/>
			<path class="st1" d="M439.58,193.76c-0.6-24.91-8.45-47.94-21.5-67.12c0.74,3.98,1.3,8.04,1.65,12.16
				c0.22,2.59,0.37,5.2,0.43,7.83c0.49,20.38-3.93,39.75-12.18,56.96c-7.85,16.37-19.17,30.78-33.03,42.27
				c-3.63,6.18-8.02,11.86-13.03,16.92c0.75-0.19,1.51-0.39,2.26-0.59c14.4-3.91,27.74-10.32,39.54-18.72
				c12.13-8.63,22.63-19.37,30.99-31.66c1.64-2.41,3.2-4.88,4.67-7.41C439.6,200.89,439.67,197.34,439.58,193.76z"/>
			<path class="st1" d="M360.59,85.26c0.25,0.41,0.5,0.83,0.75,1.25c1.6,2.71,3.11,5.48,4.5,8.31c5.34,10.8,9.17,22.49,11.2,34.81
				c0.94,5.7,1.5,11.53,1.64,17.46c0.14,5.9-0.13,11.71-0.79,17.41c5.66,11.44,8.85,24.33,8.85,37.96c0,14.11-3.41,27.42-9.45,39.16
				c11.9-10.82,21.69-23.89,28.71-38.52c8.25-17.21,12.67-36.57,12.18-56.96c-0.06-2.64-0.21-5.25-0.43-7.83
				c-0.36-4.12-0.91-8.18-1.65-12.16c-10.46-15.4-24.27-28.31-40.34-37.73c-2.46-1.44-4.97-2.8-7.53-4.07
				c-2.69-1.34-5.43-2.59-8.23-3.73c-1.07-0.44-2.15-0.86-3.24-1.27c0.31,0.45,0.61,0.89,0.91,1.34
				C358.68,82.19,359.65,83.72,360.59,85.26z"/>
			<path class="st1" d="M275.28,84.45c4.9-0.12,9.74,0.05,14.51,0.48c6.45,0.59,12.77,1.67,18.9,3.2c1.39,0.35,2.77,0.72,4.14,1.11
				c7.38,2.12,14.49,4.91,21.25,8.29c5.08,2.54,9.97,5.41,14.62,8.6c9.48,6.48,18.02,14.22,25.39,23
				c-2.03-12.32-5.86-24.01-11.2-34.81c-1.4-2.83-2.9-5.6-4.5-8.31c-0.25-0.41-0.5-0.84-0.75-1.25c-0.94-1.54-1.91-3.06-2.92-4.57
				c-0.3-0.45-0.6-0.9-0.91-1.34c-6.53-2.47-13.33-4.4-20.33-5.74c-2.3-0.44-4.62-0.82-6.96-1.13c-6.46-0.87-13.07-1.24-19.79-1.08
				c-22.59,0.55-43.64,7.06-61.67,18c0.05-0.01,0.1-0.03,0.15-0.04C254.8,86.22,264.87,84.71,275.28,84.45z"/>
			<path class="st1" d="M270.62,98.15c5.82,1.46,11.48,3.32,16.96,5.56c1.03,0.42,2.06,0.86,3.08,1.31
				c7.02,3.1,13.71,6.83,19.98,11.12c0.67,0.46,1.33,0.93,1.99,1.4c25.73,3.47,47.83,18.36,61.04,39.4
				c0.12-2.77,0.15-5.56,0.08-8.36c-0.14-5.94-0.7-11.77-1.64-17.46c-7.36-8.78-15.91-16.53-25.39-23
				c-4.66-3.18-9.54-6.06-14.62-8.6c-6.76-3.38-13.87-6.16-21.25-8.29c-1.37-0.39-2.75-0.76-4.14-1.11
				c-6.14-1.53-12.46-2.61-18.9-3.2c-4.77-0.43-9.61-0.6-14.51-0.48c-10.4,0.25-20.47,1.77-30.08,4.4c-0.05,0.01-0.1,0.03-0.15,0.04
				c-0.26,0.15-0.51,0.31-0.76,0.47c-1.78,1-3.54,2.05-5.27,3.13l0.45-0.01C248.92,94.21,260.03,95.5,270.62,98.15z"/>
			<path class="st1" d="M256.62,110.79c4.51,2.34,8.86,4.94,13.04,7.79c1.29,0.88,2.56,1.79,3.81,2.72
				c8.66-2.94,17.94-4.54,27.59-4.54c2.45,0,4.87,0.11,7.27,0.31c-6.04-4.05-12.44-7.6-19.15-10.56c-1.02-0.45-2.05-0.89-3.08-1.31
				c-5.47-2.24-11.13-4.11-16.96-5.56c-10.59-2.65-21.7-3.94-33.13-3.69l-0.45,0.01c-2.26,1.42-4.46,2.9-6.62,4.46
				c0.23,0.06,0.46,0.11,0.69,0.17C239.1,102.96,248.14,106.4,256.62,110.79z"/>
			<path class="st1" d="M227.44,102.38c0.52,0.39,1.02,0.77,1.53,1.16c0.21,0.16,0.42,0.31,0.62,0.47c0.43,0.33,0.86,0.67,1.28,1
				c0.19,0.15,0.38,0.3,0.56,0.45c0.14,0.11,0.28,0.22,0.42,0.34c0.23,0.19,0.46,0.38,0.7,0.57c0.99,0.82,1.97,1.65,2.93,2.49
				c0.19,0.15,0.37,0.32,0.55,0.48c0.21,0.18,0.42,0.37,0.63,0.56c0.19,0.17,0.38,0.34,0.58,0.52c0.07,0.06,0.14,0.13,0.22,0.19
				c0.35,0.33,0.71,0.65,1.06,0.98c0.01,0,0.01,0.01,0.02,0.01c0.2,0.19,0.41,0.38,0.61,0.58c0.2,0.19,0.4,0.38,0.59,0.57
				c0.21,0.2,0.42,0.4,0.62,0.6c0.2,0.19,0.4,0.39,0.61,0.59c0.2,0.2,0.4,0.39,0.59,0.59c0.19,0.19,0.38,0.38,0.57,0.57
				c0.27,0.27,0.54,0.54,0.8,0.82l0.21,0.22c0.26,0.27,0.51,0.53,0.76,0.8c0.27,0.28,0.55,0.58,0.82,0.87
				c0.05,0.06,0.1,0.11,0.15,0.16c0.25,0.26,0.49,0.53,0.74,0.8c0.01,0.02,0.02,0.03,0.03,0.04c0.19,0.21,0.38,0.42,0.57,0.62
				c0.21,0.23,0.42,0.47,0.63,0.7c0.2,0.23,0.42,0.47,0.62,0.7c0.18,0.21,0.37,0.42,0.55,0.63c0.5,0.59,1.01,1.18,1.5,1.78
				c0.16,0.19,0.33,0.4,0.49,0.6c0.18,0.21,0.35,0.42,0.52,0.64c0.18,0.23,0.36,0.45,0.54,0.68c0.15,0.19,0.3,0.38,0.45,0.57
				c0.06,0.08,0.12,0.16,0.18,0.23c0.18,0.22,0.36,0.45,0.53,0.68c0.19,0.25,0.38,0.5,0.57,0.74c0.09,0.12,0.18,0.23,0.27,0.35
				c0.09,0.12,0.18,0.24,0.26,0.36c0.18,0.23,0.36,0.47,0.53,0.71c0.03,0.04,0.05,0.07,0.08,0.11c0.18,0.25,0.36,0.49,0.54,0.74
				c0.15,0.2,0.29,0.4,0.43,0.6c4.93-3.16,10.21-5.82,15.76-7.92c-1.4-1.04-2.81-2.06-4.25-3.04c-4.17-2.85-8.52-5.46-13.04-7.79
				c-8.48-4.39-17.52-7.84-26.98-10.2l-0.22,0.17c0.23,0.17,0.46,0.33,0.68,0.5C227.04,102.09,227.24,102.24,227.44,102.38z"/>
			<path class="st1" d="M362.5,316.68c-0.14-0.16-0.29-0.32-0.43-0.47c-1.02-1.12-2.07-2.21-3.15-3.26
				c-4.88-4.76-10.39-8.88-16.39-12.22c-9.66-5.38-20.59-8.75-32.2-9.54c-0.59-0.04-1.19-0.07-1.79-0.1
				c-1.2-0.06-2.41-0.08-3.62-0.08c-0.59,0-1.18,0.01-1.77,0.02c-4.49,0.11-8.87,0.6-13.13,1.44c20.37,6.96,37.59,23.12,45.19,33.52
				C343.18,326,357.12,319.1,362.5,316.68z"/>
		</g>
	</g>
	<g>
		<g>
			<path class="st2" d="M253.77,564.71c7.87-5.88,16.17-11.19,24.74-16.01c8.58-4.79,17.5-9.06,26.82-12.26
				c4.66-1.59,9.43-2.91,14.3-3.77c2.44-0.42,4.89-0.74,7.36-0.91c2.47-0.15,4.96-0.15,7.44,0.03c4.95,0.37,9.89,1.62,14.36,3.93
				c4.43,2.34,8.33,5.72,11.29,9.76c1.52,1.99,2.79,4.16,3.92,6.39c1.15,2.21,2,4.6,2.98,6.8l1.43,3.36l1.64,3.26l0.82,1.63
				c0.28,0.54,0.61,1.05,0.91,1.58l1.85,3.14c2.64,4.08,5.45,8.06,8.73,11.64c1.56,1.86,3.32,3.54,5.04,5.25
				c0.84,0.88,1.8,1.62,2.7,2.44c0.93,0.78,1.79,1.64,2.77,2.36l2.88,2.23c0.94,0.77,1.99,1.39,2.98,2.09
				c1.97,1.42,4.08,2.62,6.16,3.86c4.24,2.34,8.6,4.49,13.16,6.13c9.06,3.46,18.67,5.33,28.32,5.88c9.66,0.51,19.38-0.53,28.75-2.85
				c9.35-2.44,18.32-6.22,26.6-11.18c8.28-5.01,15.57-11.32,22.66-18.1c7.08-6.73,13.89-13.76,20.6-20.91
				c6.7-7.15,13.29-14.43,19.96-21.67c6.67-7.23,13.39-14.46,20.57-21.34c3.6-3.43,7.31-6.78,11.34-9.86
				c4.04-3.04,8.33-5.97,13.56-7.73c1.3-0.45,2.69-0.74,4.12-0.94c1.45-0.14,2.94-0.19,4.45,0.06c3.02,0.46,5.92,1.99,8,4.01
				c2.12,2.01,3.66,4.35,4.91,6.71c1.24,2.38,2.18,4.81,3,7.26c0.53,1.57-0.32,3.27-1.89,3.8c-1.57,0.53-3.27-0.32-3.8-1.89
				c0-0.01,0-0.01-0.01-0.02l-0.02-0.06c-0.71-2.22-1.53-4.38-2.53-6.38c-1-1.99-2.22-3.81-3.65-5.2c-0.34-0.38-0.75-0.63-1.11-0.96
				c-0.41-0.24-0.77-0.56-1.2-0.74c-0.81-0.47-1.7-0.71-2.61-0.89c-0.92-0.17-1.9-0.15-2.89-0.07c-1.01,0.14-2.03,0.32-3.06,0.67
				c-4.15,1.31-8.18,3.89-11.99,6.71c-3.82,2.84-7.46,6.04-11.01,9.34c-7.1,6.63-13.86,13.72-20.6,20.84
				c-6.73,7.14-13.43,14.34-20.26,21.44c-6.83,7.1-13.79,14.1-21.04,20.82c-3.65,3.35-7.27,6.67-11.23,9.77c-1.9,1.63-4,3-6.02,4.48
				c-1,0.76-2.08,1.38-3.14,2.06l-3.18,2c-8.65,5.04-18,8.84-27.71,11.24c-9.73,2.28-19.78,3.22-29.73,2.57
				c-9.95-0.69-19.82-2.75-29.09-6.43c-4.67-1.75-9.12-4.01-13.44-6.47c-2.12-1.3-4.27-2.56-6.27-4.04
				c-1.01-0.73-2.07-1.38-3.02-2.18l-2.92-2.32c-1-0.75-1.87-1.64-2.81-2.45c-0.91-0.85-1.88-1.63-2.73-2.54
				c-1.74-1.78-3.52-3.52-5.09-5.45c-3.31-3.71-6.14-7.82-8.78-12.02l-1.84-3.23c-0.3-0.54-0.63-1.07-0.91-1.62l-0.82-1.67
				l-1.63-3.35l-1.41-3.44c-0.98-2.3-1.76-4.56-2.85-6.73c-1.07-2.16-2.26-4.27-3.7-6.21c-2.79-3.93-6.47-7.19-10.69-9.49
				c-4.25-2.26-9.01-3.54-13.84-3.97c-2.42-0.21-4.85-0.24-7.29-0.13c-2.43,0.14-4.86,0.42-7.27,0.8
				c-4.82,0.79-9.57,2.04-14.22,3.56c-9.31,3.06-18.25,7.2-26.88,11.87C270.08,553.73,261.71,558.93,253.77,564.71z"/>
			<g>
				<path class="st2" d="M256.5,568.3c-1.98,1.51-4.81,1.12-6.32-0.86s-1.12-4.81,0.86-6.32c1.98-1.51,4.81-1.12,6.32,0.86
					S258.48,566.79,256.5,568.3z"/>
			</g>
		</g>
	</g>
</g>
</svg>
