<svg xmlns="http://www.w3.org/2000/svg" viewBox="0 0 1080 1080"><defs><style>.cls-1,.cls-10,.cls-11,.cls-9{font-size:28px;font-family:GoldenRatioDemo-Regular, Golden Ratio Demo;}.cls-1,.cls-8{fill:#bb0029;}.cls-2{letter-spacing:-0.08em;}.cls-3{letter-spacing:-0.03em;}.cls-4{letter-spacing:-0.02em;}.cls-5{letter-spacing:-0.03em;}.cls-6,.cls-9{fill:#f5841a;}.cls-11,.cls-7{fill:#f2e8c6;}</style></defs><title>NavLogo</title><g id="Layer_7" data-name="Layer 7"><rect width="1080" height="1080"/><text class="cls-1" transform="translate(657.67 300.8)">01101111<tspan class="cls-2"><tspan x="0" y="48">00100000</tspan></tspan><tspan x="0" y="96">01110111</tspan><tspan x="0" y="364.8">01101111</tspan><tspan class="cls-3"><tspan x="0" y="398.4">01110010</tspan></tspan><tspan class="cls-4"><tspan x="0" y="432">01101100</tspan></tspan><tspan class="cls-5"><tspan x="0" y="465.6">01100100 </tspan></tspan></text><text class="cls-1" transform="translate(293.39 306.8)">01001000 01100101<tspan x="0" y="124" xml:space="preserve">01101100   01101100</tspan></text><path class="cls-6" d="M728.1,793.63H648.56V644.5a110.3,110.3,0,0,1,109.6-98.43H786V504.66H758.11c-21.52,0-54.27,8.45-73.1,18.86-18,10-41.78,31.94-53.36,49.3-10.49-21.19-28.74-44.78-60.46-61.76-.49-.6-.12-1.23.83-2.88q11.72-20.25,23.37-40.54a6.85,6.85,0,0,0,.85-3.43,5,5,0,0,0-4-4.68,5.29,5.29,0,0,0-6,2.76l-24.41,42.27c-.57,1-.79,1.35-1.27,1.31a201.8,201.8,0,0,0-47.79-14.19,221.71,221.71,0,0,0-42.14-4c-37.61-.9-67.19,5.43-90.46,15.86q-6.94-12.11-13.95-24.18c-3.3-5.71-6.58-11.42-9.9-17.11a5.29,5.29,0,0,0-7.73-1.92c-2.51,1.72-2.91,4.71-1.08,7.87q11.31,19.56,22.6,39.12c.17.3.35.6.52.91C297.09,547.67,294.47,630,294.47,630V835H450.68c0-.11,0-.23,0-.35H472.2V771.32h-64a16,16,0,0,0,0,2.11q1.41,10.1,2.83,20.2H344.52V630h254V793.63H541.84q1.54-11.13,3.11-22.31H481.06v63.37h6.3c0,.12,0,.24,0,.35H786.61V793.63Zm-351.26-207a12.36,12.36,0,0,1-12.51-12.53,12.52,12.52,0,1,1,12.51,12.53Zm189,0a12.34,12.34,0,0,1-12.42-12.61,12.56,12.56,0,0,1,12.55-12.44,12.71,12.71,0,0,1,12.5,12.56A12.56,12.56,0,0,1,565.8,586.68Z" transform="translate(0 0)"/><path class="cls-6" d="M332.6,218.69c0,6.85-5,14.95-11.19,18.08a24.27,24.27,0,0,1,6.76,7.19,23.68,23.68,0,0,1,2.56,9.78v3.73h-5.61v-3.72A14.85,14.85,0,0,0,310.19,239h-9.37v18.47h-5.61v-59.1H312A20.45,20.45,0,0,1,332.6,218.69Zm-5.6,0a14.85,14.85,0,0,0-14.94-14.76H300.82v29.55h11.26a17.16,17.16,0,0,0,10.53-4.33A16.87,16.87,0,0,0,327,218.67Z" transform="translate(0 0)"/><path class="cls-6" d="M388.66,220.53V235.3a22.43,22.43,0,0,1-44.86,0V220.53a22.43,22.43,0,0,1,44.86,0Zm-5.61,0v0a16.82,16.82,0,0,0-33.64,0v14.82a16.82,16.82,0,0,0,33.64,0v-14.8Z" transform="translate(0 0)"/><path class="cls-6" d="M405.47,248.06v9.41h-5.6v-59.1h5.6l8.41,11.08,8.42,11.08,8.41-11.08,8.41-11.08h5.61v59.1h-5.61V207.6L433,215.73l-6.17,8.12-2.24,3-2.24,2.95-2.25-2.95-2.24-3-6.17-8.12-6.17-8.13v40.46Z" transform="translate(0 0)"/><path class="cls-6" d="M464,249.16l-2.24,8.31h-5.8l7.94-29.55,7.95-29.55h5.61l7.94,29.55,7.94,29.55h-5.57l-2.24-8.31-2.23-8.32H466.2Zm7.19-26.75-3.47,12.89h14.09l-3.47-12.89-3.46-12.89-.06.21-.06.21-.05-.21-.06-.21Z" transform="translate(0 0)"/><path class="cls-6" d="M510.13,233.71v23.76h-5.61v-59.1h5.61l13.08,23.75,13.09,23.76V198.37h5.6v59.1h-5.6l-13.09-23.76L510.13,210Z" transform="translate(0 0)"/><path class="cls-6" d="M578,210.14l6.19-11.77h6.32l-7.77,14.77L575,227.92l-.18.34-.18.34v28.87H569V228.6l-.18-.34-.18-.34-7.77-14.78-7.76-14.77h6.32l6.18,11.77,6.19,11.76Z" transform="translate(0 0)"/><path class="cls-6" d="M300.82,379.69v9.41h-5.61V330h5.61l8.41,11.09,8.41,11.08,8.41-11.08L334.46,330h5.61V389.1h-5.61V339.23l-6.16,8.13-6.17,8.12-2.24,3-2.25,2.95-2.24-2.95-2.24-3L307,347.36l-6.17-8.13v40.46Z" transform="translate(0 0)"/><path class="cls-6" d="M402.35,352.16v14.77a22.43,22.43,0,0,1-44.86,0V352.16a22.43,22.43,0,0,1,44.86,0Zm-5.61,0v0a16.82,16.82,0,0,0-33.64,0V367a16.82,16.82,0,0,0,33.64,0v-14.8Z" transform="translate(0 0)"/><path class="cls-6" d="M419.77,370.63V330h5.61v40.64h0a13.09,13.09,0,0,0,26.17,0h0V330h5.6v40.64a18.69,18.69,0,0,1-37.38,0Z" transform="translate(0 0)"/><path class="cls-6" d="M480.18,365.34V389.1h-5.6V330h5.6l13.09,23.76,13.08,23.75V330H512V389.1h-5.61l-13.08-23.76-13.09-23.75Z" transform="translate(0 0)"/><path class="cls-6" d="M535,359.54V389.1h-5.61V330H535Z" transform="translate(0 0)"/><path class="cls-6" d="M590.78,350.31c0,6.86-5,15-11.19,18.08a24.3,24.3,0,0,1,6.76,7.2,23.67,23.67,0,0,1,2.55,9.78v3.73h-5.6v-3.72a14.84,14.84,0,0,0-14.93-14.75H559V389.1h-5.61V330h16.82A20.47,20.47,0,0,1,590.78,350.31Zm-5.6,0a14.85,14.85,0,0,0-14.94-14.76H559v29.55h11.25a17.19,17.19,0,0,0,10.54-4.33A16.9,16.9,0,0,0,585.18,350.3Z" transform="translate(0 0)"/><path class="cls-7" d="M311.4,881.63h-2.69l-2.15-8.1h-8.22l-2.15,8.1h-2.8l7.66-28.8h2.7Zm-5.56-10.8-3.29-12.4-.1-.37-.06.21,0,.08-.06.22-3.25,12.26Z" transform="translate(0 0)"/><path class="cls-7" d="M346.09,870.06v11.57h-2.7v-28.8h2.7l6.3,11.58L358.7,876V852.83h2.7v28.8h-2.7l-6.31-11.57-6.3-11.58Z" transform="translate(0 0)"/><path class="cls-7" d="M374.45,881.63H372.2v-28.8h18v2.7H374.9v8.1H383v2.7h-8.1v12.6h15.3v2.7H374.45Z" transform="translate(0 0)"/><path class="cls-7" d="M406.42,881.63h-1.35l-2-14.4-2-14.4h2.73l.19,1.35.19,1.35,1.53,10.78,1.52,10.78,2-3.77,2-3.77,1.19-2.2,1.19-2.2,1.18,2.2,1.19,2.2,2,3.77,2,3.77,1.53-10.78,1.52-10.78.19-1.35.19-1.35h2.73l-2,14.4-2,14.4h-2.7l-2.92-5.4-2.91-5.4-2.92,5.4-2.92,5.4Z" transform="translate(0 0)"/><path class="cls-7" d="M459.17,881.63v-28.8h3.6a14.4,14.4,0,1,1,0,28.8Zm2.7-2.7h.93a13.59,13.59,0,0,0,6.5-2,13.91,13.91,0,0,0,3.18-3.18,13.39,13.39,0,0,0,1.07-2,13.68,13.68,0,0,0,.69-2.23,11.92,11.92,0,0,0,0-4.66,13.27,13.27,0,0,0-.69-2.22,13.5,13.5,0,0,0-1.07-2,14.11,14.11,0,0,0-3.18-3.18,11.61,11.61,0,0,0-6.52-2h-.91Z" transform="translate(0 0)"/><path class="cls-7" d="M490.68,867.23v14.4H488v-28.8h2.7Z" transform="translate(0 0)"/><path class="cls-7" d="M501.48,870.83v-7.2a10.81,10.81,0,0,1,10.8-10.8,12.48,12.48,0,0,1,7.2,2.75l-.9,1-.9,1a9.38,9.38,0,0,0-5.41-2.07,8.1,8.1,0,0,0-8.09,8.1h0v7.2h0a8.1,8.1,0,0,0,16.2,0h-6.3v-2.7h9v2.7a10.8,10.8,0,0,1-21.6,0Z" transform="translate(0 0)"/><path class="cls-7" d="M536.58,867.23v14.4h-2.7v-28.8h2.7Z" transform="translate(0 0)"/><path class="cls-7" d="M555,868.58V855.53h-7.65v-2.7h18v2.7h-7.65v26.1H555Z" transform="translate(0 0)"/><path class="cls-7" d="M589.87,881.63h-2.68l-2.15-8.1h-8.22l-2.15,8.1h-2.8l7.65-28.8h2.7Zm-5.55-10.8-3.3-12.4-.09-.37-.06.21,0,.08-.06.22-3.25,12.26Z" transform="translate(0 0)"/><path class="cls-7" d="M602,881.63h-1.35v-28.8h2.7v26.1h11.7v2.7H602Z" transform="translate(0 0)"/><path class="cls-7" d="M652,881.63h-1.35l-2-14.4-2-14.4h2.73l.19,1.35.19,1.35,1.52,10.78,1.53,10.78,2-3.77,2-3.77,1.19-2.2,1.18-2.2,1.19,2.2,1.19,2.2,2,3.77,2,3.77,1.52-10.78,1.53-10.78.19-1.35.19-1.35h2.72l-2,14.4-2,14.4H665l-2.92-5.4-2.92-5.4-2.91,5.4-2.92,5.4Z" transform="translate(0 0)"/><path class="cls-7" d="M703.79,863.63v7.2a10.8,10.8,0,1,1-21.6,0v-7.2a10.8,10.8,0,1,1,21.6,0Zm-2.7,0h0a8.1,8.1,0,1,0-16.2,0h0v7.2h0a8.1,8.1,0,1,0,16.2,0h0Z" transform="translate(0 0)"/><path class="cls-7" d="M732.6,862.73a10.86,10.86,0,0,1-5.39,8.81,11.87,11.87,0,0,1,3.26,3.51,11.63,11.63,0,0,1,1.23,4.77h0v1.8H729v-1.8h0a7.19,7.19,0,0,0-7.19-7.19h-4.52v9h-2.7v-28.8h8.11A9.91,9.91,0,0,1,732.6,862.73Zm-2.7,0a7.19,7.19,0,0,0-7.19-7.2h-5.42v14.4h5.43a7.2,7.2,0,0,0,7.18-7.2Z" transform="translate(0 0)"/><path class="cls-7" d="M744.75,881.63H743.4v-28.8h2.7v26.1h11.7v2.7h-13Z" transform="translate(0 0)"/><path class="cls-7" d="M768.6,881.63v-28.8h3.6a14.4,14.4,0,1,1,0,28.8Zm2.7-2.7h.93a13.67,13.67,0,0,0,6.51-2,14.11,14.11,0,0,0,3.18-3.18,15.57,15.57,0,0,0,1.07-2,13.64,13.64,0,0,0,.68-2.23,11.43,11.43,0,0,0,0-4.66,13.24,13.24,0,0,0-.68-2.22,15.7,15.7,0,0,0-1.07-2,14.32,14.32,0,0,0-3.18-3.18,14,14,0,0,0-4.21-1.76,13.81,13.81,0,0,0-2.31-.23h-.92Z" transform="translate(0 0)"/><path class="cls-6" d="M741.44,419.82c24.27-2.66,47.8,18.23,44.93,39.29C765.13,461.8,742.87,442.55,741.44,419.82Z" transform="translate(0 0)"/><path class="cls-6" d="M395.23,674.78c3.89,28,7.83,56,11.65,84,.39,2.82,1.37,3.9,4.36,3.89,19.87-.12,39.74-.06,59.61-.08.44,0,.89,0,1.35-.06v-90.6h-77A22,22,0,0,0,395.23,674.78Z" transform="translate(0 0)"/><path class="cls-6" d="M546,758.91c2.44-18,5-35.9,7.52-53.85,1.53-10.89,3-21.78,4.58-33.06h-77v90.49c20.47,0,40.93,0,61.39.12C545.28,762.63,545.67,761.21,546,758.91Z" transform="translate(0 0)"/><path class="cls-6" d="M647.35,314.66V240H786V198.37H598.5V362s-2,48.46,60.07,106.36c.35.33.68.61,1,.86,8.46,7.41,17.27,13.92,25,18.22,18.92,10.46,51.8,18.94,73.41,18.94h28V464.84H758a110.73,110.73,0,0,1-110.69-110.7V314.66Z" transform="translate(0 0)"/><rect class="cls-8" width="1080" height="1080"/><text class="cls-9" transform="translate(657.67 300.8)">01101111<tspan class="cls-2"><tspan x="0" y="48">00100000</tspan></tspan><tspan x="0" y="96">01110111</tspan><tspan x="0" y="364.8">01101111</tspan><tspan class="cls-3"><tspan x="0" y="398.4">01110010</tspan></tspan><tspan class="cls-4"><tspan x="0" y="432">01101100</tspan></tspan><tspan class="cls-5"><tspan x="0" y="465.6">01100100 </tspan></tspan></text><text class="cls-9" transform="translate(293.39 306.8)">01001000 01100101<tspan x="0" y="124" xml:space="preserve">01101100   01101100</tspan></text><path class="cls-7" d="M728.1,793.63H648.56V644.5a110.3,110.3,0,0,1,109.6-98.43H786V504.66H758.11c-21.52,0-54.27,8.45-73.1,18.86-18,10-41.78,31.94-53.36,49.3-10.49-21.19-28.74-44.78-60.46-61.76-.49-.6-.12-1.23.83-2.88q11.72-20.25,23.37-40.54a6.85,6.85,0,0,0,.85-3.43,5,5,0,0,0-4-4.68,5.29,5.29,0,0,0-6,2.76l-24.41,42.27c-.57,1-.79,1.35-1.27,1.31a201.8,201.8,0,0,0-47.79-14.19,221.71,221.71,0,0,0-42.14-4c-37.61-.9-67.19,5.43-90.46,15.86q-6.94-12.11-13.95-24.18c-3.3-5.71-6.58-11.42-9.9-17.11a5.29,5.29,0,0,0-7.73-1.92c-2.51,1.72-2.91,4.71-1.08,7.87q11.31,19.56,22.6,39.12c.17.3.35.6.52.91C297.09,547.67,294.47,630,294.47,630V835H450.68c0-.11,0-.23,0-.35H472.2V771.32h-64a16,16,0,0,0,0,2.11q1.41,10.1,2.83,20.2H344.52V630h254V793.63H541.84q1.54-11.13,3.11-22.31H481.06v63.37h6.3c0,.12,0,.24,0,.35H786.61V793.63Zm-351.26-207a12.36,12.36,0,0,1-12.51-12.53,12.52,12.52,0,1,1,12.51,12.53Zm189,0a12.34,12.34,0,0,1-12.42-12.61,12.56,12.56,0,0,1,12.55-12.44,12.71,12.71,0,0,1,12.5,12.56A12.56,12.56,0,0,1,565.8,586.68Z" transform="translate(0 0)"/><path class="cls-7" d="M332.6,218.69c0,6.85-5,14.95-11.19,18.08a24.27,24.27,0,0,1,6.76,7.19,23.68,23.68,0,0,1,2.56,9.78v3.73h-5.61v-3.72A14.85,14.85,0,0,0,310.19,239h-9.37v18.47h-5.61v-59.1H312A20.45,20.45,0,0,1,332.6,218.69Zm-5.6,0a14.85,14.85,0,0,0-14.94-14.76H300.82v29.55h11.26a17.16,17.16,0,0,0,10.53-4.33A16.87,16.87,0,0,0,327,218.67Z" transform="translate(0 0)"/><path class="cls-7" d="M388.66,220.53V235.3a22.43,22.43,0,0,1-44.86,0V220.53a22.43,22.43,0,0,1,44.86,0Zm-5.61,0v0a16.82,16.82,0,0,0-33.64,0v14.82a16.82,16.82,0,0,0,33.64,0v-14.8Z" transform="translate(0 0)"/><path class="cls-7" d="M405.47,248.06v9.41h-5.6v-59.1h5.6l8.41,11.08,8.42,11.08,8.41-11.08,8.41-11.08h5.61v59.1h-5.61V207.6L433,215.73l-6.17,8.12-2.24,3-2.24,2.95-2.25-2.95-2.24-3-6.17-8.12-6.17-8.13v40.46Z" transform="translate(0 0)"/><path class="cls-7" d="M464,249.16l-2.24,8.31h-5.8l7.94-29.55,7.95-29.55h5.61l7.94,29.55,7.94,29.55h-5.57l-2.24-8.31-2.23-8.32H466.2Zm7.19-26.75-3.47,12.89h14.09l-3.47-12.89-3.46-12.89-.06.21-.06.21-.05-.21-.06-.21Z" transform="translate(0 0)"/><path class="cls-7" d="M510.13,233.71v23.76h-5.61v-59.1h5.61l13.08,23.75,13.09,23.76V198.37h5.6v59.1h-5.6l-13.09-23.76L510.13,210Z" transform="translate(0 0)"/><path class="cls-7" d="M578,210.14l6.19-11.77h6.32l-7.77,14.77L575,227.92l-.18.34-.18.34v28.87H569V228.6l-.18-.34-.18-.34-7.77-14.78-7.76-14.77h6.32l6.18,11.77,6.19,11.76Z" transform="translate(0 0)"/><path class="cls-7" d="M300.82,379.69v9.41h-5.61V330h5.61l8.41,11.09,8.41,11.08,8.41-11.08L334.46,330h5.61V389.1h-5.61V339.23l-6.16,8.13-6.17,8.12-2.24,3-2.25,2.95-2.24-2.95-2.24-3L307,347.36l-6.17-8.13v40.46Z" transform="translate(0 0)"/><path class="cls-7" d="M402.35,352.16v14.77a22.43,22.43,0,0,1-44.86,0V352.16a22.43,22.43,0,0,1,44.86,0Zm-5.61,0v0a16.82,16.82,0,0,0-33.64,0V367a16.82,16.82,0,0,0,33.64,0v-14.8Z" transform="translate(0 0)"/><path class="cls-7" d="M419.77,370.63V330h5.61v40.64h0a13.09,13.09,0,0,0,26.17,0h0V330h5.6v40.64a18.69,18.69,0,0,1-37.38,0Z" transform="translate(0 0)"/><path class="cls-7" d="M480.18,365.34V389.1h-5.6V330h5.6l13.09,23.76,13.08,23.75V330H512V389.1h-5.61l-13.08-23.76-13.09-23.75Z" transform="translate(0 0)"/><path class="cls-7" d="M535,359.54V389.1h-5.61V330H535Z" transform="translate(0 0)"/><path class="cls-7" d="M590.78,350.31c0,6.86-5,15-11.19,18.08a24.3,24.3,0,0,1,6.76,7.2,23.67,23.67,0,0,1,2.55,9.78v3.73h-5.6v-3.72a14.84,14.84,0,0,0-14.93-14.75H559V389.1h-5.61V330h16.82A20.47,20.47,0,0,1,590.78,350.31Zm-5.6,0a14.85,14.85,0,0,0-14.94-14.76H559v29.55h11.25a17.19,17.19,0,0,0,10.54-4.33A16.9,16.9,0,0,0,585.18,350.3Z" transform="translate(0 0)"/><path d="M311.4,881.63h-2.69l-2.15-8.1h-8.22l-2.15,8.1h-2.8l7.66-28.8h2.7Zm-5.56-10.8-3.29-12.4-.1-.37-.06.21,0,.08-.06.22-3.25,12.26Z" transform="translate(0 0)"/><path d="M346.09,870.06v11.57h-2.7v-28.8h2.7l6.3,11.58L358.7,876V852.83h2.7v28.8h-2.7l-6.31-11.57-6.3-11.58Z" transform="translate(0 0)"/><path d="M374.45,881.63H372.2v-28.8h18v2.7H374.9v8.1H383v2.7h-8.1v12.6h15.3v2.7H374.45Z" transform="translate(0 0)"/><path d="M406.42,881.63h-1.35l-2-14.4-2-14.4h2.73l.19,1.35.19,1.35,1.53,10.78,1.52,10.78,2-3.77,2-3.77,1.19-2.2,1.19-2.2,1.18,2.2,1.19,2.2,2,3.77,2,3.77,1.53-10.78,1.52-10.78.19-1.35.19-1.35h2.73l-2,14.4-2,14.4h-2.7l-2.92-5.4-2.91-5.4-2.92,5.4-2.92,5.4Z" transform="translate(0 0)"/><path d="M459.17,881.63v-28.8h3.6a14.4,14.4,0,1,1,0,28.8Zm2.7-2.7h.93a13.59,13.59,0,0,0,6.5-2,13.91,13.91,0,0,0,3.18-3.18,13.39,13.39,0,0,0,1.07-2,13.68,13.68,0,0,0,.69-2.23,11.92,11.92,0,0,0,0-4.66,13.27,13.27,0,0,0-.69-2.22,13.5,13.5,0,0,0-1.07-2,14.11,14.11,0,0,0-3.18-3.18,11.61,11.61,0,0,0-6.52-2h-.91Z" transform="translate(0 0)"/><path d="M490.68,867.23v14.4H488v-28.8h2.7Z" transform="translate(0 0)"/><path d="M501.48,870.83v-7.2a10.81,10.81,0,0,1,10.8-10.8,12.48,12.48,0,0,1,7.2,2.75l-.9,1-.9,1a9.38,9.38,0,0,0-5.41-2.07,8.1,8.1,0,0,0-8.09,8.1h0v7.2h0a8.1,8.1,0,0,0,16.2,0h-6.3v-2.7h9v2.7a10.8,10.8,0,0,1-21.6,0Z" transform="translate(0 0)"/><path d="M536.58,867.23v14.4h-2.7v-28.8h2.7Z" transform="translate(0 0)"/><path d="M555,868.58V855.53h-7.65v-2.7h18v2.7h-7.65v26.1H555Z" transform="translate(0 0)"/><path d="M589.87,881.63h-2.68l-2.15-8.1h-8.22l-2.15,8.1h-2.8l7.65-28.8h2.7Zm-5.55-10.8-3.3-12.4-.09-.37-.06.21,0,.08-.06.22-3.25,12.26Z" transform="translate(0 0)"/><path d="M602,881.63h-1.35v-28.8h2.7v26.1h11.7v2.7H602Z" transform="translate(0 0)"/><path d="M652,881.63h-1.35l-2-14.4-2-14.4h2.73l.19,1.35.19,1.35,1.52,10.78,1.53,10.78,2-3.77,2-3.77,1.19-2.2,1.18-2.2,1.19,2.2,1.19,2.2,2,3.77,2,3.77,1.52-10.78,1.53-10.78.19-1.35.19-1.35h2.72l-2,14.4-2,14.4H665l-2.92-5.4-2.92-5.4-2.91,5.4-2.92,5.4Z" transform="translate(0 0)"/><path d="M703.79,863.63v7.2a10.8,10.8,0,1,1-21.6,0v-7.2a10.8,10.8,0,1,1,21.6,0Zm-2.7,0h0a8.1,8.1,0,1,0-16.2,0h0v7.2h0a8.1,8.1,0,1,0,16.2,0h0Z" transform="translate(0 0)"/><path d="M732.6,862.73a10.86,10.86,0,0,1-5.39,8.81,11.87,11.87,0,0,1,3.26,3.51,11.63,11.63,0,0,1,1.23,4.77h0v1.8H729v-1.8h0a7.19,7.19,0,0,0-7.19-7.19h-4.52v9h-2.7v-28.8h8.11A9.91,9.91,0,0,1,732.6,862.73Zm-2.7,0a7.19,7.19,0,0,0-7.19-7.2h-5.42v14.4h5.43a7.2,7.2,0,0,0,7.18-7.2Z" transform="translate(0 0)"/><path d="M744.75,881.63H743.4v-28.8h2.7v26.1h11.7v2.7h-13Z" transform="translate(0 0)"/><path d="M768.6,881.63v-28.8h3.6a14.4,14.4,0,1,1,0,28.8Zm2.7-2.7h.93a13.67,13.67,0,0,0,6.51-2,14.11,14.11,0,0,0,3.18-3.18,15.57,15.57,0,0,0,1.07-2,13.64,13.64,0,0,0,.68-2.23,11.43,11.43,0,0,0,0-4.66,13.24,13.24,0,0,0-.68-2.22,15.7,15.7,0,0,0-1.07-2,14.32,14.32,0,0,0-3.18-3.18,14,14,0,0,0-4.21-1.76,13.81,13.81,0,0,0-2.31-.23h-.92Z" transform="translate(0 0)"/><path class="cls-7" d="M741.44,419.82c24.27-2.66,47.8,18.23,44.93,39.29C765.13,461.8,742.87,442.55,741.44,419.82Z" transform="translate(0 0)"/><path class="cls-7" d="M395.23,674.78c3.89,28,7.83,56,11.65,84,.39,2.82,1.37,3.9,4.36,3.89,19.87-.12,39.74-.06,59.61-.08.44,0,.89,0,1.35-.06v-90.6h-77A22,22,0,0,0,395.23,674.78Z" transform="translate(0 0)"/><path class="cls-7" d="M546,758.91c2.44-18,5-35.9,7.52-53.85,1.53-10.89,3-21.78,4.58-33.06h-77v90.49c20.47,0,40.93,0,61.39.12C545.28,762.63,545.67,761.21,546,758.91Z" transform="translate(0 0)"/><path class="cls-7" d="M647.35,314.66V240H786V198.37H598.5V362s-2,48.46,60.07,106.36c.35.33.68.61,1,.86,8.46,7.41,17.27,13.92,25,18.22,18.92,10.46,51.8,18.94,73.41,18.94h28V464.84H758a110.73,110.73,0,0,1-110.69-110.7V314.66Z" transform="translate(0 0)"/><rect class="cls-7" width="1080" height="1080"/><text class="cls-10" transform="translate(657.67 300.8)">01101111<tspan class="cls-2"><tspan x="0" y="48">00100000</tspan></tspan><tspan x="0" y="96">01110111</tspan><tspan x="0" y="364.8">01101111</tspan><tspan class="cls-3"><tspan x="0" y="398.4">01110010</tspan></tspan><tspan class="cls-4"><tspan x="0" y="432">01101100</tspan></tspan><tspan class="cls-5"><tspan x="0" y="465.6">01100100 </tspan></tspan></text><text class="cls-10" transform="translate(293.39 306.8)">01001000 01100101<tspan x="0" y="124" xml:space="preserve">01101100   01101100</tspan></text><path class="cls-8" d="M728.1,793.63H648.56V644.5a110.3,110.3,0,0,1,109.6-98.43H786V504.66H758.11c-21.52,0-54.27,8.45-73.1,18.86-18,10-41.78,31.94-53.36,49.3-10.49-21.19-28.74-44.78-60.46-61.76-.49-.6-.12-1.23.83-2.88q11.72-20.25,23.37-40.54a6.85,6.85,0,0,0,.85-3.43,5,5,0,0,0-4-4.68,5.29,5.29,0,0,0-6,2.76l-24.41,42.27c-.57,1-.79,1.35-1.27,1.31a201.8,201.8,0,0,0-47.79-14.19,221.71,221.71,0,0,0-42.14-4c-37.61-.9-67.19,5.43-90.46,15.86q-6.94-12.11-13.95-24.18c-3.3-5.71-6.58-11.42-9.9-17.11a5.29,5.29,0,0,0-7.73-1.92c-2.51,1.72-2.91,4.71-1.08,7.87q11.31,19.56,22.6,39.12c.17.3.35.6.52.91C297.09,547.67,294.47,630,294.47,630V835H450.68c0-.11,0-.23,0-.35H472.2V771.32h-64a16,16,0,0,0,0,2.11q1.41,10.1,2.83,20.2H344.52V630h254V793.63H541.84q1.54-11.13,3.11-22.31H481.06v63.37h6.3c0,.12,0,.24,0,.35H786.61V793.63Zm-351.26-207a12.36,12.36,0,0,1-12.51-12.53,12.52,12.52,0,1,1,12.51,12.53Zm189,0a12.34,12.34,0,0,1-12.42-12.61,12.56,12.56,0,0,1,12.55-12.44,12.71,12.71,0,0,1,12.5,12.56A12.56,12.56,0,0,1,565.8,586.68Z" transform="translate(0 0)"/><path class="cls-8" d="M332.6,218.69c0,6.85-5,14.95-11.19,18.08a24.27,24.27,0,0,1,6.76,7.19,23.68,23.68,0,0,1,2.56,9.78v3.73h-5.61v-3.72A14.85,14.85,0,0,0,310.19,239h-9.37v18.47h-5.61v-59.1H312A20.45,20.45,0,0,1,332.6,218.69Zm-5.6,0a14.85,14.85,0,0,0-14.94-14.76H300.82v29.55h11.26a17.16,17.16,0,0,0,10.53-4.33A16.87,16.87,0,0,0,327,218.67Z" transform="translate(0 0)"/><path class="cls-8" d="M388.66,220.53V235.3a22.43,22.43,0,0,1-44.86,0V220.53a22.43,22.43,0,0,1,44.86,0Zm-5.61,0v0a16.82,16.82,0,0,0-33.64,0v14.82a16.82,16.82,0,0,0,33.64,0v-14.8Z" transform="translate(0 0)"/><path class="cls-8" d="M405.47,248.06v9.41h-5.6v-59.1h5.6l8.41,11.08,8.42,11.08,8.41-11.08,8.41-11.08h5.61v59.1h-5.61V207.6L433,215.73l-6.17,8.12-2.24,3-2.24,2.95-2.25-2.95-2.24-3-6.17-8.12-6.17-8.13v40.46Z" transform="translate(0 0)"/><path class="cls-8" d="M464,249.16l-2.24,8.31h-5.8l7.94-29.55,7.95-29.55h5.61l7.94,29.55,7.94,29.55h-5.57l-2.24-8.31-2.23-8.32H466.2Zm7.19-26.75-3.47,12.89h14.09l-3.47-12.89-3.46-12.89-.06.21-.06.21-.05-.21-.06-.21Z" transform="translate(0 0)"/><path class="cls-8" d="M510.13,233.71v23.76h-5.61v-59.1h5.61l13.08,23.75,13.09,23.76V198.37h5.6v59.1h-5.6l-13.09-23.76L510.13,210Z" transform="translate(0 0)"/><path class="cls-8" d="M578,210.14l6.19-11.77h6.32l-7.77,14.77L575,227.92l-.18.34-.18.34v28.87H569V228.6l-.18-.34-.18-.34-7.77-14.78-7.76-14.77h6.32l6.18,11.77,6.19,11.76Z" transform="translate(0 0)"/><path class="cls-8" d="M300.82,379.69v9.41h-5.61V330h5.61l8.41,11.09,8.41,11.08,8.41-11.08L334.46,330h5.61V389.1h-5.61V339.23l-6.16,8.13-6.17,8.12-2.24,3-2.25,2.95-2.24-2.95-2.24-3L307,347.36l-6.17-8.13v40.46Z" transform="translate(0 0)"/><path class="cls-8" d="M402.35,352.16v14.77a22.43,22.43,0,0,1-44.86,0V352.16a22.43,22.43,0,0,1,44.86,0Zm-5.61,0v0a16.82,16.82,0,0,0-33.64,0V367a16.82,16.82,0,0,0,33.64,0v-14.8Z" transform="translate(0 0)"/><path class="cls-8" d="M419.77,370.63V330h5.61v40.64h0a13.09,13.09,0,0,0,26.17,0h0V330h5.6v40.64a18.69,18.69,0,0,1-37.38,0Z" transform="translate(0 0)"/><path class="cls-8" d="M480.18,365.34V389.1h-5.6V330h5.6l13.09,23.76,13.08,23.75V330H512V389.1h-5.61l-13.08-23.76-13.09-23.75Z" transform="translate(0 0)"/><path class="cls-8" d="M535,359.54V389.1h-5.61V330H535Z" transform="translate(0 0)"/><path class="cls-8" d="M590.78,350.31c0,6.86-5,15-11.19,18.08a24.3,24.3,0,0,1,6.76,7.2,23.67,23.67,0,0,1,2.55,9.78v3.73h-5.6v-3.72a14.84,14.84,0,0,0-14.93-14.75H559V389.1h-5.61V330h16.82A20.47,20.47,0,0,1,590.78,350.31Zm-5.6,0a14.85,14.85,0,0,0-14.94-14.76H559v29.55h11.25a17.19,17.19,0,0,0,10.54-4.33A16.9,16.9,0,0,0,585.18,350.3Z" transform="translate(0 0)"/><path class="cls-6" d="M311.4,881.63h-2.69l-2.15-8.1h-8.22l-2.15,8.1h-2.8l7.66-28.8h2.7Zm-5.56-10.8-3.29-12.4-.1-.37-.06.21,0,.08-.06.22-3.25,12.26Z" transform="translate(0 0)"/><path class="cls-6" d="M346.09,870.06v11.57h-2.7v-28.8h2.7l6.3,11.58L358.7,876V852.83h2.7v28.8h-2.7l-6.31-11.57-6.3-11.58Z" transform="translate(0 0)"/><path class="cls-6" d="M374.45,881.63H372.2v-28.8h18v2.7H374.9v8.1H383v2.7h-8.1v12.6h15.3v2.7H374.45Z" transform="translate(0 0)"/><path class="cls-6" d="M406.42,881.63h-1.35l-2-14.4-2-14.4h2.73l.19,1.35.19,1.35,1.53,10.78,1.52,10.78,2-3.77,2-3.77,1.19-2.2,1.19-2.2,1.18,2.2,1.19,2.2,2,3.77,2,3.77,1.53-10.78,1.52-10.78.19-1.35.19-1.35h2.73l-2,14.4-2,14.4h-2.7l-2.92-5.4-2.91-5.4-2.92,5.4-2.92,5.4Z" transform="translate(0 0)"/><path class="cls-6" d="M459.17,881.63v-28.8h3.6a14.4,14.4,0,1,1,0,28.8Zm2.7-2.7h.93a13.59,13.59,0,0,0,6.5-2,13.91,13.91,0,0,0,3.18-3.18,13.39,13.39,0,0,0,1.07-2,13.68,13.68,0,0,0,.69-2.23,11.92,11.92,0,0,0,0-4.66,13.27,13.27,0,0,0-.69-2.22,13.5,13.5,0,0,0-1.07-2,14.11,14.11,0,0,0-3.18-3.18,11.61,11.61,0,0,0-6.52-2h-.91Z" transform="translate(0 0)"/><path class="cls-6" d="M490.68,867.23v14.4H488v-28.8h2.7Z" transform="translate(0 0)"/><path class="cls-6" d="M501.48,870.83v-7.2a10.81,10.81,0,0,1,10.8-10.8,12.48,12.48,0,0,1,7.2,2.75l-.9,1-.9,1a9.38,9.38,0,0,0-5.41-2.07,8.1,8.1,0,0,0-8.09,8.1h0v7.2h0a8.1,8.1,0,0,0,16.2,0h-6.3v-2.7h9v2.7a10.8,10.8,0,0,1-21.6,0Z" transform="translate(0 0)"/><path class="cls-6" d="M536.58,867.23v14.4h-2.7v-28.8h2.7Z" transform="translate(0 0)"/><path class="cls-6" d="M555,868.58V855.53h-7.65v-2.7h18v2.7h-7.65v26.1H555Z" transform="translate(0 0)"/><path class="cls-6" d="M589.87,881.63h-2.68l-2.15-8.1h-8.22l-2.15,8.1h-2.8l7.65-28.8h2.7Zm-5.55-10.8-3.3-12.4-.09-.37-.06.21,0,.08-.06.22-3.25,12.26Z" transform="translate(0 0)"/><path class="cls-6" d="M602,881.63h-1.35v-28.8h2.7v26.1h11.7v2.7H602Z" transform="translate(0 0)"/><path class="cls-6" d="M652,881.63h-1.35l-2-14.4-2-14.4h2.73l.19,1.35.19,1.35,1.52,10.78,1.53,10.78,2-3.77,2-3.77,1.19-2.2,1.18-2.2,1.19,2.2,1.19,2.2,2,3.77,2,3.77,1.52-10.78,1.53-10.78.19-1.35.19-1.35h2.72l-2,14.4-2,14.4H665l-2.92-5.4-2.92-5.4-2.91,5.4-2.92,5.4Z" transform="translate(0 0)"/><path class="cls-6" d="M703.79,863.63v7.2a10.8,10.8,0,1,1-21.6,0v-7.2a10.8,10.8,0,1,1,21.6,0Zm-2.7,0h0a8.1,8.1,0,1,0-16.2,0h0v7.2h0a8.1,8.1,0,1,0,16.2,0h0Z" transform="translate(0 0)"/><path class="cls-6" d="M732.6,862.73a10.86,10.86,0,0,1-5.39,8.81,11.87,11.87,0,0,1,3.26,3.51,11.63,11.63,0,0,1,1.23,4.77h0v1.8H729v-1.8h0a7.19,7.19,0,0,0-7.19-7.19h-4.52v9h-2.7v-28.8h8.11A9.91,9.91,0,0,1,732.6,862.73Zm-2.7,0a7.19,7.19,0,0,0-7.19-7.2h-5.42v14.4h5.43a7.2,7.2,0,0,0,7.18-7.2Z" transform="translate(0 0)"/><path class="cls-6" d="M744.75,881.63H743.4v-28.8h2.7v26.1h11.7v2.7h-13Z" transform="translate(0 0)"/><path class="cls-6" d="M768.6,881.63v-28.8h3.6a14.4,14.4,0,1,1,0,28.8Zm2.7-2.7h.93a13.67,13.67,0,0,0,6.51-2,14.11,14.11,0,0,0,3.18-3.18,15.57,15.57,0,0,0,1.07-2,13.64,13.64,0,0,0,.68-2.23,11.43,11.43,0,0,0,0-4.66,13.24,13.24,0,0,0-.68-2.22,15.7,15.7,0,0,0-1.07-2,14.32,14.32,0,0,0-3.18-3.18,14,14,0,0,0-4.21-1.76,13.81,13.81,0,0,0-2.31-.23h-.92Z" transform="translate(0 0)"/><path class="cls-8" d="M741.44,419.82c24.27-2.66,47.8,18.23,44.93,39.29C765.13,461.8,742.87,442.55,741.44,419.82Z" transform="translate(0 0)"/><path class="cls-8" d="M395.23,674.78c3.89,28,7.83,56,11.65,84,.39,2.82,1.37,3.9,4.36,3.89,19.87-.12,39.74-.06,59.61-.08.44,0,.89,0,1.35-.06v-90.6h-77A22,22,0,0,0,395.23,674.78Z" transform="translate(0 0)"/><path class="cls-8" d="M546,758.91c2.44-18,5-35.9,7.52-53.85,1.53-10.89,3-21.78,4.58-33.06h-77v90.49c20.47,0,40.93,0,61.39.12C545.28,762.63,545.67,761.21,546,758.91Z" transform="translate(0 0)"/><path class="cls-8" d="M647.35,314.66V240H786V198.37H598.5V362s-2,48.46,60.07,106.36c.35.33.68.61,1,.86,8.46,7.41,17.27,13.92,25,18.22,18.92,10.46,51.8,18.94,73.41,18.94h28V464.84H758a110.73,110.73,0,0,1-110.69-110.7V314.66Z" transform="translate(0 0)"/><rect class="cls-6" width="1080" height="1080"/><text class="cls-11" transform="translate(657.67 300.8)">01101111<tspan class="cls-2"><tspan x="0" y="48">00100000</tspan></tspan><tspan x="0" y="96">01110111</tspan><tspan x="0" y="364.8">01101111</tspan><tspan class="cls-3"><tspan x="0" y="398.4">01110010</tspan></tspan><tspan class="cls-4"><tspan x="0" y="432">01101100</tspan></tspan><tspan class="cls-5"><tspan x="0" y="465.6">01100100 </tspan></tspan></text><text class="cls-11" transform="translate(293.39 306.8)">01001000 01100101<tspan x="0" y="124" xml:space="preserve">01101100   01101100</tspan></text><path d="M728.1,793.63H648.56V644.5a110.3,110.3,0,0,1,109.6-98.43H786V504.66H758.11c-21.52,0-54.27,8.45-73.1,18.86-18,10-41.78,31.94-53.36,49.3-10.49-21.19-28.74-44.78-60.46-61.76-.49-.6-.12-1.23.83-2.88q11.72-20.25,23.37-40.54a6.85,6.85,0,0,0,.85-3.43,5,5,0,0,0-4-4.68,5.29,5.29,0,0,0-6,2.76l-24.41,42.27c-.57,1-.79,1.35-1.27,1.31a201.8,201.8,0,0,0-47.79-14.19,221.71,221.71,0,0,0-42.14-4c-37.61-.9-67.19,5.43-90.46,15.86q-6.94-12.11-13.95-24.18c-3.3-5.71-6.58-11.42-9.9-17.11a5.29,5.29,0,0,0-7.73-1.92c-2.51,1.72-2.91,4.71-1.08,7.87q11.31,19.56,22.6,39.12c.17.3.35.6.52.91C297.09,547.67,294.47,630,294.47,630V835H450.68c0-.11,0-.23,0-.35H472.2V771.32h-64a16,16,0,0,0,0,2.11q1.41,10.1,2.83,20.2H344.52V630h254V793.63H541.84q1.54-11.13,3.11-22.31H481.06v63.37h6.3c0,.12,0,.24,0,.35H786.61V793.63Zm-351.26-207a12.36,12.36,0,0,1-12.51-12.53,12.52,12.52,0,1,1,12.51,12.53Zm189,0a12.34,12.34,0,0,1-12.42-12.61,12.56,12.56,0,0,1,12.55-12.44,12.71,12.71,0,0,1,12.5,12.56A12.56,12.56,0,0,1,565.8,586.68Z" transform="translate(0 0)"/><path d="M332.6,218.69c0,6.85-5,14.95-11.19,18.08a24.27,24.27,0,0,1,6.76,7.19,23.68,23.68,0,0,1,2.56,9.78v3.73h-5.61v-3.72A14.85,14.85,0,0,0,310.19,239h-9.37v18.47h-5.61v-59.1H312A20.45,20.45,0,0,1,332.6,218.69Zm-5.6,0a14.85,14.85,0,0,0-14.94-14.76H300.82v29.55h11.26a17.16,17.16,0,0,0,10.53-4.33A16.87,16.87,0,0,0,327,218.67Z" transform="translate(0 0)"/><path d="M388.66,220.53V235.3a22.43,22.43,0,0,1-44.86,0V220.53a22.43,22.43,0,0,1,44.86,0Zm-5.61,0v0a16.82,16.82,0,0,0-33.64,0v14.82a16.82,16.82,0,0,0,33.64,0v-14.8Z" transform="translate(0 0)"/><path d="M405.47,248.06v9.41h-5.6v-59.1h5.6l8.41,11.08,8.42,11.08,8.41-11.08,8.41-11.08h5.61v59.1h-5.61V207.6L433,215.73l-6.17,8.12-2.24,3-2.24,2.95-2.25-2.95-2.24-3-6.17-8.12-6.17-8.13v40.46Z" transform="translate(0 0)"/><path d="M464,249.16l-2.24,8.31h-5.8l7.94-29.55,7.95-29.55h5.61l7.94,29.55,7.94,29.55h-5.57l-2.24-8.31-2.23-8.32H466.2Zm7.19-26.75-3.47,12.89h14.09l-3.47-12.89-3.46-12.89-.06.21-.06.21-.05-.21-.06-.21Z" transform="translate(0 0)"/><path d="M510.13,233.71v23.76h-5.61v-59.1h5.61l13.08,23.75,13.09,23.76V198.37h5.6v59.1h-5.6l-13.09-23.76L510.13,210Z" transform="translate(0 0)"/><path d="M578,210.14l6.19-11.77h6.32l-7.77,14.77L575,227.92l-.18.34-.18.34v28.87H569V228.6l-.18-.34-.18-.34-7.77-14.78-7.76-14.77h6.32l6.18,11.77,6.19,11.76Z" transform="translate(0 0)"/><path d="M300.82,379.69v9.41h-5.61V330h5.61l8.41,11.09,8.41,11.08,8.41-11.08L334.46,330h5.61V389.1h-5.61V339.23l-6.16,8.13-6.17,8.12-2.24,3-2.25,2.95-2.24-2.95-2.24-3L307,347.36l-6.17-8.13v40.46Z" transform="translate(0 0)"/><path d="M402.35,352.16v14.77a22.43,22.43,0,0,1-44.86,0V352.16a22.43,22.43,0,0,1,44.86,0Zm-5.61,0v0a16.82,16.82,0,0,0-33.64,0V367a16.82,16.82,0,0,0,33.64,0v-14.8Z" transform="translate(0 0)"/><path d="M419.77,370.63V330h5.61v40.64h0a13.09,13.09,0,0,0,26.17,0h0V330h5.6v40.64a18.69,18.69,0,0,1-37.38,0Z" transform="translate(0 0)"/><path d="M480.18,365.34V389.1h-5.6V330h5.6l13.09,23.76,13.08,23.75V330H512V389.1h-5.61l-13.08-23.76-13.09-23.75Z" transform="translate(0 0)"/><path d="M535,359.54V389.1h-5.61V330H535Z" transform="translate(0 0)"/><path d="M590.78,350.31c0,6.86-5,15-11.19,18.08a24.3,24.3,0,0,1,6.76,7.2,23.67,23.67,0,0,1,2.55,9.78v3.73h-5.6v-3.72a14.84,14.84,0,0,0-14.93-14.75H559V389.1h-5.61V330h16.82A20.47,20.47,0,0,1,590.78,350.31Zm-5.6,0a14.85,14.85,0,0,0-14.94-14.76H559v29.55h11.25a17.19,17.19,0,0,0,10.54-4.33A16.9,16.9,0,0,0,585.18,350.3Z" transform="translate(0 0)"/><path class="cls-8" d="M311.4,881.63h-2.69l-2.15-8.1h-8.22l-2.15,8.1h-2.8l7.66-28.8h2.7Zm-5.56-10.8-3.29-12.4-.1-.37-.06.21,0,.08-.06.22-3.25,12.26Z" transform="translate(0 0)"/><path class="cls-8" d="M346.09,870.06v11.57h-2.7v-28.8h2.7l6.3,11.58L358.7,876V852.83h2.7v28.8h-2.7l-6.31-11.57-6.3-11.58Z" transform="translate(0 0)"/><path class="cls-8" d="M374.45,881.63H372.2v-28.8h18v2.7H374.9v8.1H383v2.7h-8.1v12.6h15.3v2.7H374.45Z" transform="translate(0 0)"/><path class="cls-8" d="M406.42,881.63h-1.35l-2-14.4-2-14.4h2.73l.19,1.35.19,1.35,1.53,10.78,1.52,10.78,2-3.77,2-3.77,1.19-2.2,1.19-2.2,1.18,2.2,1.19,2.2,2,3.77,2,3.77,1.53-10.78,1.52-10.78.19-1.35.19-1.35h2.73l-2,14.4-2,14.4h-2.7l-2.92-5.4-2.91-5.4-2.92,5.4-2.92,5.4Z" transform="translate(0 0)"/><path class="cls-8" d="M459.17,881.63v-28.8h3.6a14.4,14.4,0,1,1,0,28.8Zm2.7-2.7h.93a13.59,13.59,0,0,0,6.5-2,13.91,13.91,0,0,0,3.18-3.18,13.39,13.39,0,0,0,1.07-2,13.68,13.68,0,0,0,.69-2.23,11.92,11.92,0,0,0,0-4.66,13.27,13.27,0,0,0-.69-2.22,13.5,13.5,0,0,0-1.07-2,14.11,14.11,0,0,0-3.18-3.18,11.61,11.61,0,0,0-6.52-2h-.91Z" transform="translate(0 0)"/><path class="cls-8" d="M490.68,867.23v14.4H488v-28.8h2.7Z" transform="translate(0 0)"/><path class="cls-8" d="M501.48,870.83v-7.2a10.81,10.81,0,0,1,10.8-10.8,12.48,12.48,0,0,1,7.2,2.75l-.9,1-.9,1a9.38,9.38,0,0,0-5.41-2.07,8.1,8.1,0,0,0-8.09,8.1h0v7.2h0a8.1,8.1,0,0,0,16.2,0h-6.3v-2.7h9v2.7a10.8,10.8,0,0,1-21.6,0Z" transform="translate(0 0)"/><path class="cls-8" d="M536.58,867.23v14.4h-2.7v-28.8h2.7Z" transform="translate(0 0)"/><path class="cls-8" d="M555,868.58V855.53h-7.65v-2.7h18v2.7h-7.65v26.1H555Z" transform="translate(0 0)"/><path class="cls-8" d="M589.87,881.63h-2.68l-2.15-8.1h-8.22l-2.15,8.1h-2.8l7.65-28.8h2.7Zm-5.55-10.8-3.3-12.4-.09-.37-.06.21,0,.08-.06.22-3.25,12.26Z" transform="translate(0 0)"/><path class="cls-8" d="M602,881.63h-1.35v-28.8h2.7v26.1h11.7v2.7H602Z" transform="translate(0 0)"/><path class="cls-8" d="M652,881.63h-1.35l-2-14.4-2-14.4h2.73l.19,1.35.19,1.35,1.52,10.78,1.53,10.78,2-3.77,2-3.77,1.19-2.2,1.18-2.2,1.19,2.2,1.19,2.2,2,3.77,2,3.77,1.52-10.78,1.53-10.78.19-1.35.19-1.35h2.72l-2,14.4-2,14.4H665l-2.92-5.4-2.92-5.4-2.91,5.4-2.92,5.4Z" transform="translate(0 0)"/><path class="cls-8" d="M703.79,863.63v7.2a10.8,10.8,0,1,1-21.6,0v-7.2a10.8,10.8,0,1,1,21.6,0Zm-2.7,0h0a8.1,8.1,0,1,0-16.2,0h0v7.2h0a8.1,8.1,0,1,0,16.2,0h0Z" transform="translate(0 0)"/><path class="cls-8" d="M732.6,862.73a10.86,10.86,0,0,1-5.39,8.81,11.87,11.87,0,0,1,3.26,3.51,11.63,11.63,0,0,1,1.23,4.77h0v1.8H729v-1.8h0a7.19,7.19,0,0,0-7.19-7.19h-4.52v9h-2.7v-28.8h8.11A9.91,9.91,0,0,1,732.6,862.73Zm-2.7,0a7.19,7.19,0,0,0-7.19-7.2h-5.42v14.4h5.43a7.2,7.2,0,0,0,7.18-7.2Z" transform="translate(0 0)"/><path class="cls-8" d="M744.75,881.63H743.4v-28.8h2.7v26.1h11.7v2.7h-13Z" transform="translate(0 0)"/><path class="cls-8" d="M768.6,881.63v-28.8h3.6a14.4,14.4,0,1,1,0,28.8Zm2.7-2.7h.93a13.67,13.67,0,0,0,6.51-2,14.11,14.11,0,0,0,3.18-3.18,15.57,15.57,0,0,0,1.07-2,13.64,13.64,0,0,0,.68-2.23,11.43,11.43,0,0,0,0-4.66,13.24,13.24,0,0,0-.68-2.22,15.7,15.7,0,0,0-1.07-2,14.32,14.32,0,0,0-3.18-3.18,14,14,0,0,0-4.21-1.76,13.81,13.81,0,0,0-2.31-.23h-.92Z" transform="translate(0 0)"/><path d="M741.44,419.82c24.27-2.66,47.8,18.23,44.93,39.29C765.13,461.8,742.87,442.55,741.44,419.82Z" transform="translate(0 0)"/><path d="M395.23,674.78c3.89,28,7.83,56,11.65,84,.39,2.82,1.37,3.9,4.36,3.89,19.87-.12,39.74-.06,59.61-.08.44,0,.89,0,1.35-.06v-90.6h-77A22,22,0,0,0,395.23,674.78Z" transform="translate(0 0)"/><path d="M546,758.91c2.44-18,5-35.9,7.52-53.85,1.53-10.89,3-21.78,4.58-33.06h-77v90.49c20.47,0,40.93,0,61.39.12C545.28,762.63,545.67,761.21,546,758.91Z" transform="translate(0 0)"/><path d="M647.35,314.66V240H786V198.37H598.5V362s-2,48.46,60.07,106.36c.35.33.68.61,1,.86,8.46,7.41,17.27,13.92,25,18.22,18.92,10.46,51.8,18.94,73.41,18.94h28V464.84H758a110.73,110.73,0,0,1-110.69-110.7V314.66Z" transform="translate(0 0)"/></g></svg>